<svg width="821" height="257" viewBox="0 0 821 257" fill="none" xmlns="http://www.w3.org/2000/svg">
<g clip-path="url(#clip0_6_3171)">
<path d="M170.886 80.9387L169.873 80.9376L169.865 80.3282L170.769 80.3292C170.907 80.3262 171.035 80.3045 171.154 80.264C171.273 80.2204 171.368 80.158 171.44 80.0768C171.512 79.9925 171.548 79.8894 171.548 79.7676C171.548 79.6144 171.522 79.4925 171.469 79.4019C171.419 79.3112 171.332 79.247 171.207 79.2094C171.085 79.1686 170.919 79.1482 170.71 79.148L170.086 79.1472L170.083 82.5175L169.403 82.5167L169.407 78.5418L170.711 78.5432C171.02 78.5435 171.287 78.5891 171.512 78.68C171.74 78.7678 171.915 78.9024 172.036 79.0838C172.161 79.262 172.224 79.4856 172.223 79.7544C172.223 79.9231 172.184 80.073 172.106 80.2041C172.027 80.3353 171.912 80.4492 171.758 80.5459C171.608 80.6395 171.424 80.7159 171.205 80.775C171.196 80.775 171.185 80.7859 171.172 80.8078C171.163 80.8296 171.153 80.8406 171.144 80.8406C171.091 80.8717 171.056 80.8951 171.041 80.9107C171.028 80.9232 171.014 80.931 170.998 80.9341C170.986 80.9372 170.948 80.9388 170.886 80.9387ZM170.839 80.9386L170.938 80.4747C171.426 80.4752 171.758 80.5819 171.936 80.7946C172.114 81.0041 172.203 81.2714 172.202 81.5964V81.8496C172.202 81.9652 172.207 82.0762 172.216 82.1825C172.228 82.2856 172.25 82.373 172.281 82.445V82.52L171.583 82.5193C171.551 82.438 171.533 82.3223 171.527 82.1723C171.524 82.0223 171.522 81.9129 171.522 81.8441L171.523 81.6005C171.523 81.3723 171.472 81.205 171.369 81.0986C171.266 80.9924 171.089 80.9389 170.839 80.9386ZM167.994 80.5839C167.994 80.9995 168.064 81.3871 168.204 81.7466C168.347 82.103 168.547 82.4158 168.803 82.6848C169.059 82.9507 169.354 83.1589 169.688 83.3092C170.025 83.4565 170.385 83.5303 170.766 83.5308C171.15 83.5312 171.51 83.4582 171.844 83.3117C172.179 83.162 172.473 82.9545 172.726 82.6892C172.98 82.4207 173.178 82.1086 173.323 81.7525C173.467 81.3933 173.539 81.0058 173.539 80.5902C173.54 80.1746 173.469 79.7885 173.325 79.4321C173.182 79.0756 172.984 78.7645 172.731 78.4986C172.478 78.2327 172.185 78.0261 171.85 77.8788C171.516 77.7285 171.157 77.6532 170.772 77.6527C170.391 77.6523 170.032 77.7269 169.694 77.8765C169.36 78.023 169.064 78.2288 168.807 78.4942C168.551 78.7595 168.351 79.0702 168.206 79.4263C168.065 79.7824 167.995 80.1683 167.994 80.5839ZM167.441 80.5833C167.442 80.0864 167.528 79.6256 167.7 79.2008C167.873 78.7759 168.112 78.4059 168.419 78.0906C168.725 77.7722 169.079 77.5257 169.479 77.3512C169.882 77.1735 170.314 77.085 170.773 77.0855C171.232 77.0861 171.662 77.1756 172.062 77.3542C172.465 77.5296 172.818 77.7768 173.12 78.0959C173.426 78.4119 173.665 78.7825 173.836 79.2077C174.011 79.6329 174.098 80.0939 174.097 80.5907C174.097 81.0876 174.009 81.5485 173.833 81.9733C173.661 82.3981 173.421 82.7712 173.115 83.0928C172.811 83.4112 172.458 83.6592 172.055 83.8369C171.654 84.0146 171.225 84.1031 170.765 84.1026C170.306 84.1021 169.875 84.0126 169.472 83.834C169.072 83.6554 168.719 83.4066 168.413 83.0875C168.107 82.7653 167.869 82.3916 167.697 81.9664C167.526 81.5412 167.441 81.0802 167.441 80.5833Z" fill="#94A8FD"/>
<path d="M36.007 107.493C29.351 107.486 25.515 104.41 25.52 99.5777L25.529 91.7057C25.534 86.8737 29.346 83.806 36.002 83.8134C42.658 83.8209 46.462 86.8971 46.457 91.7291L46.455 93.1371L41.175 93.1312L41.176 92.1392C41.179 89.8032 39.421 88.2972 36.029 88.2934C32.413 88.2894 30.491 89.7912 30.488 92.1272L30.48 99.1672C30.478 101.503 32.364 103.009 35.98 103.013C39.404 103.017 41.166 101.515 41.168 99.1792L41.17 98.1872L46.45 98.1931L46.448 99.6011C46.443 104.433 42.631 107.501 36.007 107.493ZM60.105 107.52C53.289 107.513 49.452 104.436 49.457 99.6045L49.466 91.7325C49.472 86.9005 53.283 83.8328 60.099 83.8404C66.915 83.8481 70.72 86.9243 70.714 91.7563L70.705 99.6283C70.7 104.46 66.889 107.528 60.105 107.52ZM60.078 103.04C63.982 103.045 65.743 101.543 65.746 99.2068L65.754 92.1668C65.756 89.8308 63.998 88.3248 60.126 88.3205C56.222 88.3161 54.428 89.8181 54.426 92.1541L54.418 99.1941C54.415 101.53 56.174 103.036 60.078 103.04ZM74.019 107.056L74.045 84.3361L79.005 84.3416L78.979 107.062L74.019 107.056ZM96.718 84.3615L101.55 84.3669L101.525 107.087L96.693 107.081L87.461 93.0871L87.445 107.071L82.613 107.066L82.638 84.3457L87.47 84.3511L96.703 98.4095L96.718 84.3615ZM114.743 107.518C108.439 107.511 105.082 104.467 105.087 100.307L105.088 99.5069L107.904 99.51L107.903 100.374C107.9 102.934 110.49 104.825 114.81 104.83C118.714 104.834 121.244 103.237 121.247 100.677C121.253 94.565 105.601 98.8994 105.61 90.4194C105.614 87.0914 108.113 84.1182 114.385 84.1253C120.689 84.1323 123.534 87.0795 123.529 91.0475L123.528 91.9435L120.712 91.9404L120.713 91.0124C120.716 88.6124 118.478 86.8179 114.35 86.8132C110.542 86.809 108.46 88.3106 108.458 90.4226C108.452 95.7666 124.008 92.0081 124.095 100.648C124.122 104.424 121.047 107.525 114.743 107.518ZM144.594 87.2311L131.41 87.2164L131.402 94.6723L143.146 94.6855L143.143 97.3735L131.399 97.3603L131.391 104.432L144.575 104.447L144.572 107.135L128.572 107.117L128.597 84.5572L144.597 84.5751L144.594 87.2311ZM158.442 107.535C151.818 107.527 148.654 104.612 148.659 99.7797L148.668 91.9077C148.673 87.0757 151.845 84.1673 158.437 84.1746C165.061 84.1821 168.193 87.0976 168.188 91.9296L168.187 92.8256L165.211 92.8222L165.212 92.2782C165.215 88.7582 163.266 86.8681 158.466 86.8627C153.506 86.8571 151.487 88.7429 151.484 92.2629L151.475 99.4309C151.472 102.951 153.485 104.841 158.413 104.847C163.245 104.852 165.2 102.966 165.203 99.4462L165.204 98.9022L168.18 98.9056L168.179 99.8016C168.174 104.634 165.034 107.542 158.442 107.535Z" fill="#94A8FD"/>
<path d="M62.11 123.13C60.43 123.13 59.49 122.24 59.49 120.99V120.72H60.37V121.04C60.37 121.79 61.05 122.3 62.13 122.3C63.14 122.3 63.8 121.84 63.8 121.08C63.8 119.24 59.65 120.24 59.65 117.75C59.65 116.68 60.39 115.82 62.05 115.82C63.71 115.82 64.53 116.66 64.53 117.85V118.16H63.66V117.82C63.66 117.14 63.07 116.66 62.05 116.66C61.08 116.66 60.53 117.08 60.53 117.73C60.53 119.33 64.67 118.46 64.68 121.04C64.69 122.22 63.81 123.13 62.11 123.13ZM67.842 117.82C69.132 117.82 69.942 118.58 69.942 119.71V120.73H66.562V120.96C66.562 121.9 66.982 122.39 67.872 122.39C68.602 122.39 69.072 122.06 69.072 121.44V121.38H69.922C69.922 122.5 69.122 123.12 67.892 123.12C66.442 123.12 65.722 122.25 65.722 120.95V119.97C65.722 118.67 66.462 117.82 67.842 117.82ZM66.562 120.01H69.082V119.72C69.082 118.94 68.662 118.55 67.872 118.55C66.962 118.55 66.562 119.05 66.562 119.97V120.01ZM73.135 123.12C71.765 123.12 71.015 122.33 71.015 121.03V119.91C71.015 118.61 71.755 117.82 73.135 117.82C74.435 117.82 75.215 118.58 75.215 119.8V119.9H74.365V119.78C74.365 119.02 73.925 118.63 73.135 118.63C72.265 118.63 71.865 119.07 71.865 119.96V120.98C71.865 121.87 72.255 122.31 73.135 122.31C73.915 122.31 74.365 121.92 74.365 121.16V121.04H75.215V121.14C75.215 122.36 74.445 123.12 73.135 123.12ZM79.678 117.95H80.528V123H79.958L79.808 122.47C79.468 122.91 78.928 123.13 78.288 123.13C77.138 123.13 76.438 122.46 76.438 120.9V117.95H77.288V120.88C77.288 121.86 77.668 122.32 78.438 122.32C79.108 122.32 79.588 121.96 79.678 121.2V117.95ZM84.306 117.86C84.396 117.86 84.496 117.86 84.596 117.87V118.65C84.456 118.62 84.306 118.6 84.166 118.6C83.446 118.6 82.836 118.99 82.836 119.82V123H81.986V117.95H82.576L82.746 118.47C83.116 118.07 83.706 117.86 84.306 117.86ZM87.383 117.82C88.673 117.82 89.483 118.58 89.483 119.71V120.73H86.103V120.96C86.103 121.9 86.523 122.39 87.413 122.39C88.143 122.39 88.613 122.06 88.613 121.44V121.38H89.463C89.463 122.5 88.663 123.12 87.433 123.12C85.983 123.12 85.263 122.25 85.263 120.95V119.97C85.263 118.67 86.003 117.82 87.383 117.82ZM86.103 120.01H88.623V119.72C88.623 118.94 88.203 118.55 87.413 118.55C86.503 118.55 86.103 119.05 86.103 119.97V120.01ZM94.006 115.3H94.846V123H94.256L94.096 122.49C93.746 122.92 93.196 123.13 92.526 123.13C91.286 123.13 90.556 122.51 90.556 121V119.95C90.556 118.44 91.286 117.82 92.526 117.82C93.136 117.82 93.656 117.99 94.006 118.35V115.3ZM92.676 122.32C93.446 122.32 93.936 121.94 94.006 121.1V119.84C93.936 119.01 93.456 118.63 92.676 118.63C91.826 118.63 91.406 119.04 91.406 120V120.94C91.406 121.91 91.826 122.32 92.676 122.32ZM102.805 119.27C103.365 119.54 103.695 120.07 103.695 120.69V121.22C103.695 122.3 102.885 123 101.705 123H98.735V115.95H101.465C102.655 115.95 103.465 116.52 103.465 117.56V118.03C103.465 118.57 103.225 119 102.805 119.27ZM101.485 116.76H99.615V118.95H101.485C102.155 118.95 102.585 118.69 102.585 118.02V117.59C102.585 117 102.155 116.76 101.485 116.76ZM102.815 121.22V120.71C102.815 120.09 102.415 119.75 101.725 119.75H99.615V122.19H101.715C102.415 122.19 102.815 121.84 102.815 121.22ZM108.185 117.95H109.025V123.48C109.025 124.6 108.305 125.43 106.925 125.43C105.625 125.43 105.005 124.75 104.915 123.88H105.765C105.865 124.37 106.235 124.62 106.915 124.62C107.695 124.62 108.185 124.21 108.185 123.42V122.61C107.845 122.96 107.355 123.13 106.795 123.13C105.645 123.13 104.935 122.46 104.935 120.9V117.95H105.785V120.88C105.785 121.87 106.165 122.32 106.945 122.32C107.635 122.32 108.125 121.94 108.185 121.1V117.95ZM117.574 115.95V116.78H115.364V123H114.484V116.78H112.274V115.95H117.574ZM120.771 117.82C121.951 117.82 122.691 118.48 122.691 120.05V123H121.851V120.07C121.851 119.09 121.391 118.63 120.601 118.63C119.881 118.63 119.381 118.99 119.281 119.76V123H118.431V115.3H119.281V118.36C119.641 118 120.161 117.82 120.771 117.82ZM126.045 117.82C127.335 117.82 128.145 118.58 128.145 119.71V120.73H124.765V120.96C124.765 121.9 125.185 122.39 126.075 122.39C126.805 122.39 127.275 122.06 127.275 121.44V121.38H128.125C128.125 122.5 127.325 123.12 126.095 123.12C124.645 123.12 123.925 122.25 123.925 120.95V119.97C123.925 118.67 124.665 117.82 126.045 117.82ZM124.765 120.01H127.285V119.72C127.285 118.94 126.865 118.55 126.075 118.55C125.165 118.55 124.765 119.05 124.765 119.97V120.01ZM135.85 115.95H136.67V123H135.85L132.66 117.57V123H131.84V115.95H132.66L135.85 121.39V115.95ZM140.088 117.82C141.378 117.82 142.188 118.58 142.188 119.71V120.73H138.808V120.96C138.808 121.9 139.228 122.39 140.118 122.39C140.848 122.39 141.318 122.06 141.318 121.44V121.38H142.168C142.168 122.5 141.368 123.12 140.138 123.12C138.688 123.12 137.968 122.25 137.968 120.95V119.97C137.968 118.67 138.708 117.82 140.088 117.82ZM138.808 120.01H141.328V119.72C141.328 118.94 140.908 118.55 140.118 118.55C139.208 118.55 138.808 119.05 138.808 119.97V120.01ZM145.461 122.19H145.901V123H145.281C144.151 123 143.581 122.46 143.581 121.25V118.75H142.901V117.95H143.581V116.47H144.431V117.95H145.811V118.75H144.431V121.06C144.431 121.87 144.771 122.19 145.461 122.19ZM151.83 117.95H152.7L151.41 123H150.54L149.46 119.61L148.38 123H147.51L146.22 117.95H147.08L148.02 122.07L149.11 117.95H149.8L150.89 122.09L151.83 117.95ZM155.479 123.13C154.059 123.13 153.319 122.33 153.319 121.03V119.91C153.319 118.61 154.059 117.82 155.469 117.82C156.889 117.82 157.629 118.61 157.629 119.91V121.03C157.629 122.33 156.889 123.13 155.479 123.13ZM155.469 122.32C156.379 122.32 156.779 121.87 156.779 120.98V119.96C156.779 119.07 156.389 118.63 155.479 118.63C154.569 118.63 154.169 119.07 154.169 119.96V120.98C154.169 121.87 154.559 122.32 155.469 122.32ZM161.22 117.86C161.31 117.86 161.41 117.86 161.51 117.87V118.65C161.37 118.62 161.22 118.6 161.08 118.6C160.36 118.6 159.75 118.99 159.75 119.82V123H158.9V117.95H159.49L159.66 118.47C160.03 118.07 160.62 117.86 161.22 117.86ZM166.743 117.95L164.273 120.24L166.743 123H165.713L163.383 120.44V123H162.533V115.3H163.383V120.04L165.673 117.95H166.743Z" fill="#94A8FD"/>
<path d="M100 199C154.676 199 199 154.676 199 100C199 45.3238 154.676 1 100 1C45.3238 1 1 45.3238 1 100C1 154.676 45.3238 199 100 199Z" stroke="#94A8FD" stroke-width="2"/>
<path d="M417 199C471.676 199 516 154.676 516 100C516 45.3238 471.676 1 417 1C362.324 1 318 45.3238 318 100C318 154.676 362.324 199 417 199Z" stroke="#94A8FD" stroke-width="2"/>
<path d="M384.04 104.643C374.584 104.633 369.549 100.067 369.556 93.8269L369.558 92.6269L373.782 92.6316L373.78 93.9276C373.776 97.7676 377.661 100.604 384.141 100.611C389.997 100.618 393.791 98.2221 393.796 94.3821C393.806 85.2141 370.327 91.7157 370.341 78.9958C370.347 74.0038 374.096 69.544 383.504 69.5545C392.96 69.5651 397.227 73.9859 397.22 79.9379L397.218 81.2819L392.994 81.2771L392.996 79.8851C393 76.2852 389.643 73.5934 383.451 73.5864C377.739 73.58 374.617 75.8325 374.613 79.0005C374.604 87.0165 397.938 81.3787 398.068 94.3388C398.109 100.003 393.496 104.654 384.04 104.643ZM428.817 74.2133L409.041 74.1911L409.029 85.3751L426.645 85.3949L426.64 89.4269L409.024 89.4071L409.013 100.015L428.789 100.037L428.784 104.069L404.784 104.042L404.822 70.2024L428.822 70.2293L428.817 74.2133ZM449.589 104.669C439.653 104.657 434.906 100.284 434.915 93.0361L434.928 81.2281C434.936 73.9802 439.693 69.6175 449.581 69.6286C459.517 69.6397 464.216 74.013 464.208 81.261L464.206 82.605L459.742 82.6L459.743 81.784C459.749 76.504 456.824 73.6687 449.624 73.6606C442.184 73.6523 439.157 76.4809 439.151 81.7609L439.139 92.5129C439.133 97.7929 442.154 100.628 449.546 100.637C456.794 100.645 459.725 97.816 459.731 92.536L459.732 91.72L464.196 91.725L464.194 93.069C464.186 100.317 459.477 104.68 449.589 104.669Z" fill="#94A8FD"/>
<path d="M343.038 119.358C344.875 119.358 345.876 120.282 345.876 121.789V124.682C345.876 126.189 344.875 127.113 343.049 127.113H340.266V119.358H343.038ZM344.908 124.594V121.866C344.908 120.832 344.336 120.271 343.104 120.271H341.234V126.189H343.093C344.336 126.189 344.908 125.639 344.908 124.594ZM349.446 121.415C350.865 121.415 351.756 122.251 351.756 123.494V124.616H348.038V124.869C348.038 125.903 348.5 126.442 349.479 126.442C350.282 126.442 350.799 126.079 350.799 125.397V125.331H351.734C351.734 126.563 350.854 127.245 349.501 127.245C347.906 127.245 347.114 126.288 347.114 124.858V123.78C347.114 122.35 347.928 121.415 349.446 121.415ZM348.038 123.824H350.81V123.505C350.81 122.647 350.348 122.218 349.479 122.218C348.478 122.218 348.038 122.768 348.038 123.78V123.824ZM355.268 127.245C353.761 127.245 352.936 126.376 352.936 124.946V123.714C352.936 122.284 353.75 121.415 355.268 121.415C356.698 121.415 357.556 122.251 357.556 123.593V123.703H356.621V123.571C356.621 122.735 356.137 122.306 355.268 122.306C354.311 122.306 353.871 122.79 353.871 123.769V124.891C353.871 125.87 354.3 126.354 355.268 126.354C356.126 126.354 356.621 125.925 356.621 125.089V124.957H357.556V125.067C357.556 126.409 356.709 127.245 355.268 127.245ZM361.079 121.415C362.498 121.415 363.389 122.251 363.389 123.494V124.616H359.671V124.869C359.671 125.903 360.133 126.442 361.112 126.442C361.915 126.442 362.432 126.079 362.432 125.397V125.331H363.367C363.367 126.563 362.487 127.245 361.134 127.245C359.539 127.245 358.747 126.288 358.747 124.858V123.78C358.747 122.35 359.561 121.415 361.079 121.415ZM359.671 123.824H362.443V123.505C362.443 122.647 361.981 122.218 361.112 122.218C360.111 122.218 359.671 122.768 359.671 123.78V123.824ZM367.353 121.415C368.662 121.415 369.465 122.141 369.465 123.868V127.113H368.541V123.89C368.541 122.801 368.046 122.306 367.166 122.306C366.374 122.306 365.824 122.691 365.714 123.538V127.113H364.779V121.558H365.406L365.571 122.163C365.978 121.657 366.605 121.415 367.353 121.415ZM373.242 126.222H373.726V127.113H373.044C371.801 127.113 371.174 126.519 371.174 125.188V122.438H370.426V121.558H371.174V119.93H372.109V121.558H373.627V122.438H372.109V124.979C372.109 125.87 372.483 126.222 373.242 126.222ZM377.299 121.459C377.398 121.459 377.508 121.459 377.618 121.47V122.328C377.464 122.295 377.299 122.273 377.145 122.273C376.353 122.273 375.682 122.702 375.682 123.615V127.113H374.747V121.558H375.396L375.583 122.13C375.99 121.69 376.639 121.459 377.299 121.459ZM382.433 121.558H383.082V127.113H382.433L382.257 126.552C381.861 127.025 381.256 127.256 380.519 127.256C379.155 127.256 378.352 126.563 378.352 124.913V123.758C378.352 122.097 379.155 121.415 380.519 121.415C381.256 121.415 381.861 121.646 382.257 122.119L382.433 121.558ZM380.684 126.365C381.531 126.365 382.07 125.947 382.147 125.023V123.637C382.07 122.724 381.542 122.306 380.684 122.306C379.749 122.306 379.287 122.757 379.287 123.813V124.847C379.287 125.903 379.749 126.365 380.684 126.365ZM384.706 118.643H385.641V127.113H384.706V118.643ZM387.283 120.689V119.545H388.273V120.689H387.283ZM387.305 127.113V121.558H388.24V127.113H387.305ZM393.953 121.558V122.295L390.84 126.222H393.953V127.113H389.564V126.376L392.699 122.438H389.718V121.558H393.953ZM397.377 121.415C398.796 121.415 399.687 122.251 399.687 123.494V124.616H395.969V124.869C395.969 125.903 396.431 126.442 397.41 126.442C398.213 126.442 398.73 126.079 398.73 125.397V125.331H399.665C399.665 126.563 398.785 127.245 397.432 127.245C395.837 127.245 395.045 126.288 395.045 124.858V123.78C395.045 122.35 395.859 121.415 397.377 121.415ZM395.969 123.824H398.741V123.505C398.741 122.647 398.279 122.218 397.41 122.218C396.409 122.218 395.969 122.768 395.969 123.78V123.824ZM404.662 118.643H405.586V127.113H404.937L404.761 126.552C404.376 127.025 403.771 127.256 403.034 127.256C401.67 127.256 400.867 126.574 400.867 124.913V123.758C400.867 122.097 401.67 121.415 403.034 121.415C403.705 121.415 404.277 121.602 404.662 121.998V118.643ZM403.199 126.365C404.046 126.365 404.585 125.947 404.662 125.023V123.637C404.585 122.724 404.057 122.306 403.199 122.306C402.264 122.306 401.802 122.757 401.802 123.813V124.847C401.802 125.914 402.264 126.365 403.199 126.365ZM415.518 122.064H414.55V121.745C414.55 120.711 413.923 120.139 412.603 120.139C411.272 120.139 410.645 120.711 410.645 121.745V124.715C410.645 125.749 411.272 126.332 412.592 126.332C413.923 126.332 414.55 125.749 414.55 124.715V123.956H412.482V123.043H415.518V124.792C415.518 126.299 414.517 127.256 412.603 127.256C410.689 127.256 409.677 126.299 409.677 124.792V121.668C409.677 120.161 410.678 119.215 412.592 119.215C414.506 119.215 415.518 120.161 415.518 121.668V122.064ZM416.997 118.643H417.932V127.113H416.997V118.643ZM421.741 127.256C420.179 127.256 419.365 126.376 419.365 124.946V123.714C419.365 122.284 420.179 121.415 421.73 121.415C423.292 121.415 424.106 122.284 424.106 123.714V124.946C424.106 126.376 423.292 127.256 421.741 127.256ZM421.73 126.365C422.731 126.365 423.171 125.87 423.171 124.891V123.769C423.171 122.79 422.742 122.306 421.741 122.306C420.74 122.306 420.3 122.79 420.3 123.769V124.891C420.3 125.87 420.729 126.365 421.73 126.365ZM428.056 121.415C429.42 121.415 430.223 122.097 430.223 123.758V124.913C430.223 126.574 429.42 127.256 428.056 127.256C427.319 127.256 426.714 127.025 426.329 126.563L426.153 127.113H425.504V118.643H426.439V121.998C426.824 121.602 427.385 121.415 428.056 121.415ZM429.299 124.847V123.813C429.299 122.757 428.826 122.306 427.891 122.306C427.066 122.306 426.549 122.691 426.439 123.538V125.133C426.549 125.98 427.077 126.365 427.891 126.365C428.826 126.365 429.299 125.914 429.299 124.847ZM435.488 121.558H436.137V127.113H435.488L435.312 126.552C434.916 127.025 434.311 127.256 433.574 127.256C432.21 127.256 431.407 126.563 431.407 124.913V123.758C431.407 122.097 432.21 121.415 433.574 121.415C434.311 121.415 434.916 121.646 435.312 122.119L435.488 121.558ZM433.739 126.365C434.586 126.365 435.125 125.947 435.202 125.023V123.637C435.125 122.724 434.597 122.306 433.739 122.306C432.804 122.306 432.342 122.757 432.342 123.813V124.847C432.342 125.903 432.804 126.365 433.739 126.365ZM437.762 118.643H438.697V127.113H437.762V118.643ZM445.6 127.256C443.752 127.256 442.718 126.277 442.718 124.902V124.605H443.686V124.957C443.686 125.782 444.434 126.343 445.622 126.343C446.733 126.343 447.459 125.837 447.459 125.001C447.459 122.977 442.894 124.077 442.894 121.338C442.894 120.161 443.708 119.215 445.534 119.215C447.36 119.215 448.262 120.139 448.262 121.448V121.789H447.305V121.415C447.305 120.667 446.656 120.139 445.534 120.139C444.467 120.139 443.862 120.601 443.862 121.316C443.862 123.076 448.416 122.119 448.427 124.957C448.438 126.255 447.47 127.256 445.6 127.256ZM451.905 121.415C453.324 121.415 454.215 122.251 454.215 123.494V124.616H450.497V124.869C450.497 125.903 450.959 126.442 451.938 126.442C452.741 126.442 453.258 126.079 453.258 125.397V125.331H454.193C454.193 126.563 453.313 127.245 451.96 127.245C450.365 127.245 449.573 126.288 449.573 124.858V123.78C449.573 122.35 450.387 121.415 451.905 121.415ZM450.497 123.824H453.269V123.505C453.269 122.647 452.807 122.218 451.938 122.218C450.937 122.218 450.497 122.768 450.497 123.78V123.824ZM457.815 126.222H458.299V127.113H457.617C456.374 127.113 455.747 126.519 455.747 125.188V122.438H454.999V121.558H455.747V119.93H456.682V121.558H458.2V122.438H456.682V124.979C456.682 125.87 457.056 126.222 457.815 126.222ZM461.532 126.222H462.016V127.113H461.334C460.091 127.113 459.464 126.519 459.464 125.188V122.438H458.716V121.558H459.464V119.93H460.399V121.558H461.917V122.438H460.399V124.979C460.399 125.87 460.773 126.222 461.532 126.222ZM463.059 118.643H463.994V127.113H463.059V118.643ZM467.76 121.415C469.179 121.415 470.07 122.251 470.07 123.494V124.616H466.352V124.869C466.352 125.903 466.814 126.442 467.793 126.442C468.596 126.442 469.113 126.079 469.113 125.397V125.331H470.048C470.048 126.563 469.168 127.245 467.815 127.245C466.22 127.245 465.428 126.288 465.428 124.858V123.78C465.428 122.35 466.242 121.415 467.76 121.415ZM466.352 123.824H469.124V123.505C469.124 122.647 468.662 122.218 467.793 122.218C466.792 122.218 466.352 122.768 466.352 123.78V123.824ZM477.113 121.415C478.367 121.415 479.049 122.185 479.049 123.868V127.113H478.114V123.846C478.114 122.823 477.696 122.306 476.97 122.306C476.31 122.306 475.815 122.724 475.727 123.593V123.824V127.113H474.792V123.846C474.792 122.823 474.374 122.306 473.637 122.306C472.988 122.306 472.493 122.724 472.394 123.527V127.113H471.459V121.558H472.086L472.251 122.13C472.614 121.657 473.164 121.415 473.78 121.415C474.572 121.415 475.133 121.712 475.441 122.339C475.793 121.723 476.42 121.415 477.113 121.415ZM482.724 121.415C484.143 121.415 485.034 122.251 485.034 123.494V124.616H481.316V124.869C481.316 125.903 481.778 126.442 482.757 126.442C483.56 126.442 484.077 126.079 484.077 125.397V125.331H485.012C485.012 126.563 484.132 127.245 482.779 127.245C481.184 127.245 480.392 126.288 480.392 124.858V123.78C480.392 122.35 481.206 121.415 482.724 121.415ZM481.316 123.824H484.088V123.505C484.088 122.647 483.626 122.218 482.757 122.218C481.756 122.218 481.316 122.768 481.316 123.78V123.824ZM488.997 121.415C490.306 121.415 491.109 122.141 491.109 123.868V127.113H490.185V123.89C490.185 122.801 489.69 122.306 488.81 122.306C488.018 122.306 487.468 122.691 487.358 123.538V127.113H486.423V121.558H487.05L487.215 122.163C487.622 121.657 488.249 121.415 488.997 121.415ZM494.886 126.222H495.37V127.113H494.688C493.445 127.113 492.818 126.519 492.818 125.188V122.438H492.07V121.558H492.818V119.93H493.753V121.558H495.271V122.438H493.753V124.979C493.753 125.87 494.127 126.222 494.886 126.222ZM498.306 127.245C496.876 127.245 496.04 126.508 496.04 125.397V125.287H496.964V125.386C496.964 126.024 497.47 126.409 498.35 126.409C499.032 126.409 499.571 126.134 499.571 125.617C499.571 124.308 496.172 125.111 496.172 123.098C496.172 122.075 496.997 121.415 498.273 121.415C499.637 121.415 500.429 122.141 500.429 123.219V123.329H499.505V123.219C499.505 122.625 499.076 122.251 498.284 122.251C497.536 122.251 497.096 122.581 497.096 123.032C497.096 124.231 500.495 123.472 500.495 125.551C500.495 126.684 499.483 127.245 498.306 127.245ZM407.035 132.358H407.937V140.113H407.035L403.526 134.14V140.113H402.624V132.358H403.526L407.035 138.342V132.358ZM411.697 134.415C413.116 134.415 414.007 135.251 414.007 136.494V137.616H410.289V137.869C410.289 138.903 410.751 139.442 411.73 139.442C412.533 139.442 413.05 139.079 413.05 138.397V138.331H413.985C413.985 139.563 413.105 140.245 411.752 140.245C410.157 140.245 409.365 139.288 409.365 137.858V136.78C409.365 135.35 410.179 134.415 411.697 134.415ZM410.289 136.824H413.061V136.505C413.061 135.647 412.599 135.218 411.73 135.218C410.729 135.218 410.289 135.768 410.289 136.78V136.824ZM417.607 139.222H418.091V140.113H417.409C416.166 140.113 415.539 139.519 415.539 138.188V135.438H414.791V134.558H415.539V132.93H416.474V134.558H417.992V135.438H416.474V137.979C416.474 138.87 416.848 139.222 417.607 139.222ZM424.613 134.558H425.57L424.151 140.113H423.194L422.006 136.384L420.818 140.113H419.861L418.442 134.558H419.388L420.422 139.09L421.621 134.558H422.38L423.579 139.112L424.613 134.558ZM428.627 140.256C427.065 140.256 426.251 139.376 426.251 137.946V136.714C426.251 135.284 427.065 134.415 428.616 134.415C430.178 134.415 430.992 135.284 430.992 136.714V137.946C430.992 139.376 430.178 140.256 428.627 140.256ZM428.616 139.365C429.617 139.365 430.057 138.87 430.057 137.891V136.769C430.057 135.79 429.628 135.306 428.627 135.306C427.626 135.306 427.186 135.79 427.186 136.769V137.891C427.186 138.87 427.615 139.365 428.616 139.365ZM434.942 134.459C435.041 134.459 435.151 134.459 435.261 134.47V135.328C435.107 135.295 434.942 135.273 434.788 135.273C433.996 135.273 433.325 135.702 433.325 136.615V140.113H432.39V134.558H433.039L433.226 135.13C433.633 134.69 434.282 134.459 434.942 134.459ZM441.018 134.558L438.301 137.077L441.018 140.113H439.885L437.322 137.297V140.113H436.387V131.643H437.322V136.857L439.841 134.558H441.018Z" fill="#94A8FD"/>
<path d="M721 199C775.676 199 820 154.676 820 100C820 45.3238 775.676 1 721 1C666.324 1 622 45.3238 622 100C622 154.676 666.324 199 721 199Z" stroke="#94A8FD" stroke-width="2"/>
<path d="M686.871 100.596C676.935 100.585 672.188 96.2116 672.196 88.9636L672.209 77.1556C672.217 69.9076 676.974 65.545 686.862 65.5561C696.798 65.5672 701.497 69.9405 701.489 77.1885L701.488 78.5325L697.024 78.5274V77.7115C697.03 72.4315 694.106 69.5961 686.906 69.588C679.466 69.5797 676.438 72.4084 676.432 77.6884L676.42 88.4404C676.414 93.7204 679.435 96.5557 686.827 96.564C694.075 96.5722 697.006 93.7434 697.012 88.4634L697.013 87.6474L701.477 87.6523L701.476 88.9964C701.468 96.2444 696.759 100.607 686.871 100.596ZM721.728 100.683C712.272 100.672 707.237 96.1068 707.244 89.8668L707.245 88.6669L711.469 88.6716L711.468 89.9676C711.463 93.8076 715.348 96.644 721.828 96.6513C727.684 96.6578 731.479 94.262 731.483 90.422C731.493 81.254 708.014 87.7557 708.028 75.0357C708.034 70.0437 711.783 65.584 721.191 65.5945C730.647 65.6051 734.914 70.0258 734.907 75.9778L734.906 77.3219L730.682 77.3172L730.683 75.9252C730.687 72.3252 727.33 69.6334 721.139 69.6265C715.427 69.6201 712.304 71.8725 712.3 75.0405C712.291 83.0565 735.626 77.4187 735.755 90.3789C735.797 96.0429 731.184 100.694 721.728 100.683ZM764.445 66.267L768.573 66.2716L768.535 100.112L764.407 100.107L746.629 73.7351L746.599 100.087L742.472 100.082L742.509 66.2424L746.637 66.2471L764.416 92.667L764.445 66.267Z" fill="#94A8FD"/>
<path d="M666.177 123.193H670.522V124.117H665.033V123.149L669.312 117.275H665.22V116.362H670.445V117.33L666.177 123.193ZM677.299 124.117H676.089L672.767 120.366V124.117H671.799V116.362H672.767V119.882L675.957 116.362H677.167L673.889 120.135L677.299 124.117ZM685.657 116.362H686.625V124.117H685.657V120.762H682.016V124.117H681.048V116.362H682.016V119.838H685.657V116.362ZM691.819 118.562H692.743V124.645C692.743 125.877 691.951 126.79 690.433 126.79C689.003 126.79 688.321 126.042 688.222 125.085H689.157C689.267 125.624 689.674 125.899 690.422 125.899C691.28 125.899 691.819 125.448 691.819 124.579V123.688C691.445 124.073 690.906 124.26 690.29 124.26C689.025 124.26 688.244 123.523 688.244 121.807V118.562H689.179V121.785C689.179 122.874 689.597 123.369 690.455 123.369C691.214 123.369 691.753 122.951 691.819 122.027V118.562ZM696.898 118.419C698.262 118.419 699.076 119.101 699.076 120.762V121.917C699.076 123.578 698.262 124.26 696.898 124.26C696.227 124.26 695.666 124.073 695.281 123.677V126.647H694.346V118.562H694.995L695.171 119.112C695.556 118.65 696.161 118.419 696.898 118.419ZM698.141 121.851V120.817C698.141 119.761 697.679 119.31 696.733 119.31C695.919 119.31 695.391 119.695 695.281 120.542V122.137C695.391 122.984 695.919 123.369 696.733 123.369C697.679 123.369 698.141 122.918 698.141 121.851ZM702.593 118.419C704.012 118.419 704.903 119.255 704.903 120.498V121.62H701.185V121.873C701.185 122.907 701.647 123.446 702.626 123.446C703.429 123.446 703.946 123.083 703.946 122.401V122.335H704.881C704.881 123.567 704.001 124.249 702.648 124.249C701.053 124.249 700.261 123.292 700.261 121.862V120.784C700.261 119.354 701.075 118.419 702.593 118.419ZM701.185 120.828H703.957V120.509C703.957 119.651 703.495 119.222 702.626 119.222C701.625 119.222 701.185 119.772 701.185 120.784V120.828ZM708.844 118.463C708.943 118.463 709.053 118.463 709.163 118.474V119.332C709.009 119.299 708.844 119.277 708.69 119.277C707.898 119.277 707.227 119.706 707.227 120.619V124.117H706.292V118.562H706.941L707.128 119.134C707.535 118.694 708.184 118.463 708.844 118.463ZM712.228 124.249C710.721 124.249 709.896 123.38 709.896 121.95V120.718C709.896 119.288 710.71 118.419 712.228 118.419C713.658 118.419 714.516 119.255 714.516 120.597V120.707H713.581V120.575C713.581 119.739 713.097 119.31 712.228 119.31C711.271 119.31 710.831 119.794 710.831 120.773V121.895C710.831 122.874 711.26 123.358 712.228 123.358C713.086 123.358 713.581 122.929 713.581 122.093V121.961H714.516V122.071C714.516 123.413 713.669 124.249 712.228 124.249ZM718.491 118.419C719.789 118.419 720.603 119.145 720.603 120.872V124.117H719.679V120.894C719.679 119.816 719.173 119.31 718.304 119.31C717.512 119.31 716.962 119.706 716.852 120.553V124.117H715.917V115.647H716.852V119.013C717.248 118.617 717.82 118.419 718.491 118.419ZM726.041 118.562H726.69V124.117H726.041L725.865 123.556C725.469 124.029 724.864 124.26 724.127 124.26C722.763 124.26 721.96 123.567 721.96 121.917V120.762C721.96 119.101 722.763 118.419 724.127 118.419C724.864 118.419 725.469 118.65 725.865 119.123L726.041 118.562ZM724.292 123.369C725.139 123.369 725.678 122.951 725.755 122.027V120.641C725.678 119.728 725.15 119.31 724.292 119.31C723.357 119.31 722.895 119.761 722.895 120.817V121.851C722.895 122.907 723.357 123.369 724.292 123.369ZM728.292 117.693V116.549H729.282V117.693H728.292ZM728.314 124.117V118.562H729.249V124.117H728.314ZM733.465 118.419C734.774 118.419 735.577 119.145 735.577 120.872V124.117H734.653V120.894C734.653 119.805 734.158 119.31 733.278 119.31C732.486 119.31 731.936 119.695 731.826 120.542V124.117H730.891V118.562H731.518L731.683 119.167C732.09 118.661 732.717 118.419 733.465 118.419ZM744.23 116.362H745.132V124.117H744.23L740.721 118.144V124.117H739.819V116.362H740.721L744.23 122.346V116.362ZM748.891 118.419C750.31 118.419 751.201 119.255 751.201 120.498V121.62H747.483V121.873C747.483 122.907 747.945 123.446 748.924 123.446C749.727 123.446 750.244 123.083 750.244 122.401V122.335H751.179C751.179 123.567 750.299 124.249 748.946 124.249C747.351 124.249 746.559 123.292 746.559 121.862V120.784C746.559 119.354 747.373 118.419 748.891 118.419ZM747.483 120.828H750.255V120.509C750.255 119.651 749.793 119.222 748.924 119.222C747.923 119.222 747.483 119.772 747.483 120.784V120.828ZM754.802 123.226H755.286V124.117H754.604C753.361 124.117 752.734 123.523 752.734 122.192V119.442H751.986V118.562H752.734V116.934H753.669V118.562H755.187V119.442H753.669V121.983C753.669 122.874 754.043 123.226 754.802 123.226ZM761.807 118.562H762.764L761.345 124.117H760.388L759.2 120.388L758.012 124.117H757.055L755.636 118.562H756.582L757.616 123.094L758.815 118.562H759.574L760.773 123.116L761.807 118.562ZM765.822 124.26C764.26 124.26 763.446 123.38 763.446 121.95V120.718C763.446 119.288 764.26 118.419 765.811 118.419C767.373 118.419 768.187 119.288 768.187 120.718V121.95C768.187 123.38 767.373 124.26 765.822 124.26ZM765.811 123.369C766.812 123.369 767.252 122.874 767.252 121.895V120.773C767.252 119.794 766.823 119.31 765.822 119.31C764.821 119.31 764.381 119.794 764.381 120.773V121.895C764.381 122.874 764.81 123.369 765.811 123.369ZM772.14 118.463C772.24 118.463 772.35 118.463 772.46 118.474V119.332C772.3 119.299 772.14 119.277 771.98 119.277C771.19 119.277 770.52 119.706 770.52 120.619V124.117H769.585V118.562H770.23L770.42 119.134C770.83 118.694 771.48 118.463 772.14 118.463ZM778.21 118.562L775.5 121.081L778.21 124.117H777.08L774.52 121.301V124.117H773.58V115.647H774.52V120.861L777.04 118.562H778.21Z" fill="#94A8FD"/>
<path d="M236.376 92.064V85.248H280.344V92.064H236.376ZM236.376 111.168V104.352H280.344V111.168H236.376Z" fill="#94A8FD"/>
<path d="M571.816 94.752H590.92V101.568H571.816V121.344H564.904V101.568H545.8V94.752H564.904V74.88H571.816V94.752Z" fill="#94A8FD"/>
<path d="M17.008 236.08V238.072H11.704V253H9.592V238.072H4.28799V236.08H17.008ZM24.681 240.568C27.513 240.568 29.289 242.152 29.289 245.92V253H27.273V245.968C27.273 243.616 26.169 242.512 24.273 242.512C22.545 242.512 21.345 243.376 21.105 245.224V253H19.065V234.52H21.105V241.864C21.969 241 23.217 240.568 24.681 240.568ZM37.337 240.568C40.433 240.568 42.377 242.392 42.377 245.104V247.552H34.265V248.104C34.265 250.36 35.273 251.536 37.409 251.536C39.161 251.536 40.289 250.744 40.289 249.256V249.112H42.329C42.329 251.8 40.409 253.288 37.457 253.288C33.977 253.288 32.249 251.2 32.249 248.08V245.728C32.249 242.608 34.025 240.568 37.337 240.568ZM34.265 245.824H40.313V245.128C40.313 243.256 39.305 242.32 37.409 242.32C35.225 242.32 34.265 243.52 34.265 245.728V245.824ZM57.222 253.288C53.046 253.288 50.838 251.224 50.838 247.936V241.12C50.838 237.832 53.022 235.768 57.198 235.768C61.374 235.768 63.582 237.832 63.582 241.12V242.248H61.398V241.288C61.398 239.032 60.126 237.784 57.222 237.784C54.246 237.784 52.95 239.032 52.95 241.288V247.768C52.95 250.024 54.246 251.272 57.198 251.272C60.126 251.272 61.398 250.024 61.398 247.768V246.808H63.582V247.936C63.582 251.224 61.398 253.288 57.222 253.288ZM72.856 253.312C68.584 253.312 66.424 251.248 66.424 247.96V241.192C66.424 237.856 68.584 235.768 72.832 235.768C77.104 235.768 79.24 237.856 79.24 241.192V247.96C79.24 251.248 77.104 253.312 72.856 253.312ZM72.832 251.296C75.928 251.296 77.128 250.048 77.128 247.768V241.36C77.128 239.056 75.928 237.784 72.856 237.784C69.76 237.784 68.536 239.056 68.536 241.36V247.768C68.536 250.048 69.736 251.296 72.832 251.296ZM82.488 253V236.08H84.6V253H82.488ZM97.878 236.08H99.846V253H97.878L90.222 239.968V253H88.254V236.08H90.222L97.878 249.136V236.08ZM109.128 253.312C105.096 253.312 102.84 251.176 102.84 248.176V247.528H104.952V248.296C104.952 250.096 106.584 251.32 109.176 251.32C111.6 251.32 113.184 250.216 113.184 248.392C113.184 243.976 103.224 246.376 103.224 240.4C103.224 237.832 105 235.768 108.984 235.768C112.968 235.768 114.936 237.784 114.936 240.64V241.384H112.848V240.568C112.848 238.936 111.432 237.784 108.984 237.784C106.656 237.784 105.336 238.792 105.336 240.352C105.336 244.192 115.272 242.104 115.296 248.296C115.32 251.128 113.208 253.312 109.128 253.312ZM128.668 238.072H120.436V243.664H127.588V245.68H120.436V250.984H128.668V253H118.324V236.08H128.668V238.072ZM137.73 253.288C133.554 253.288 131.346 251.224 131.346 247.936V241.12C131.346 237.832 133.53 235.768 137.706 235.768C141.882 235.768 144.09 237.832 144.09 241.12V242.248H141.906V241.288C141.906 239.032 140.634 237.784 137.73 237.784C134.754 237.784 133.458 239.032 133.458 241.288V247.768C133.458 250.024 134.754 251.272 137.706 251.272C140.634 251.272 141.906 250.024 141.906 247.768V246.808H144.09V247.936C144.09 251.224 141.906 253.288 137.73 253.288ZM162.729 236.08H164.697V253H162.729L155.073 239.968V253H153.105V236.08H155.073L162.729 249.136V236.08ZM172.9 240.568C175.996 240.568 177.94 242.392 177.94 245.104V247.552H169.828V248.104C169.828 250.36 170.836 251.536 172.972 251.536C174.724 251.536 175.852 250.744 175.852 249.256V249.112H177.892C177.892 251.8 175.972 253.288 173.02 253.288C169.54 253.288 167.812 251.2 167.812 248.08V245.728C167.812 242.608 169.588 240.568 172.9 240.568ZM169.828 245.824H175.876V245.128C175.876 243.256 174.868 242.32 172.972 242.32C170.788 242.32 169.828 243.52 169.828 245.728V245.824ZM185.795 251.056H186.851V253H185.363C182.651 253 181.283 251.704 181.283 248.8V242.8H179.651V240.88H181.283V237.328H183.323V240.88H186.635V242.8H183.323V248.344C183.323 250.288 184.139 251.056 185.795 251.056ZM201.08 240.88H203.168L200.072 253H197.984L195.392 244.864L192.8 253H190.712L187.616 240.88H189.68L191.936 250.768L194.552 240.88H196.208L198.824 250.816L201.08 240.88ZM209.839 253.312C206.431 253.312 204.655 251.392 204.655 248.272V245.584C204.655 242.464 206.431 240.568 209.815 240.568C213.223 240.568 214.999 242.464 214.999 245.584V248.272C214.999 251.392 213.223 253.312 209.839 253.312ZM209.815 251.368C211.999 251.368 212.959 250.288 212.959 248.152V245.704C212.959 243.568 212.023 242.512 209.839 242.512C207.655 242.512 206.695 243.568 206.695 245.704V248.152C206.695 250.288 207.631 251.368 209.815 251.368ZM223.617 240.664C223.833 240.664 224.073 240.664 224.313 240.688V242.56C223.977 242.488 223.617 242.44 223.281 242.44C221.553 242.44 220.089 243.376 220.089 245.368V253H218.049V240.88H219.465L219.873 242.128C220.761 241.168 222.177 240.664 223.617 240.664ZM236.873 240.88L230.945 246.376L236.873 253H234.401L228.809 246.856V253H226.769V234.52H228.809V245.896L234.305 240.88H236.873ZM239.145 243.424V240.88H241.329V243.424H239.145ZM239.145 253V250.456H241.329V253H239.145ZM261.953 236.08V238.072H256.649V253H254.537V238.072H249.233V236.08H261.953ZM269.626 240.568C272.458 240.568 274.234 242.152 274.234 245.92V253H272.218V245.968C272.218 243.616 271.114 242.512 269.218 242.512C267.49 242.512 266.29 243.376 266.05 245.224V253H264.01V234.52H266.05V241.864C266.914 241 268.162 240.568 269.626 240.568ZM282.282 240.568C285.378 240.568 287.322 242.392 287.322 245.104V247.552H279.21V248.104C279.21 250.36 280.218 251.536 282.354 251.536C284.106 251.536 285.234 250.744 285.234 249.256V249.112H287.274C287.274 251.8 285.354 253.288 282.402 253.288C278.922 253.288 277.194 251.2 277.194 248.08V245.728C277.194 242.608 278.97 240.568 282.282 240.568ZM279.21 245.824H285.258V245.128C285.258 243.256 284.25 242.32 282.354 242.32C280.17 242.32 279.21 243.52 279.21 245.728V245.824ZM306.535 238.072H298.303V244.168H305.695V246.184H298.303V253H296.191V236.08H306.535V238.072ZM316.802 240.88H318.218V253H316.802L316.418 251.776C315.554 252.808 314.234 253.312 312.626 253.312C309.65 253.312 307.898 251.8 307.898 248.2V245.68C307.898 242.056 309.65 240.568 312.626 240.568C314.234 240.568 315.554 241.072 316.418 242.104L316.802 240.88ZM312.986 251.368C314.834 251.368 316.01 250.456 316.178 248.44V245.416C316.01 243.424 314.858 242.512 312.986 242.512C310.946 242.512 309.938 243.496 309.938 245.8V248.056C309.938 250.36 310.946 251.368 312.986 251.368ZM325.889 253.288C322.769 253.288 320.945 251.68 320.945 249.256V249.016H322.961V249.232C322.961 250.624 324.065 251.464 325.985 251.464C327.473 251.464 328.649 250.864 328.649 249.736C328.649 246.88 321.233 248.632 321.233 244.24C321.233 242.008 323.033 240.568 325.817 240.568C328.793 240.568 330.521 242.152 330.521 244.504V244.744H328.505V244.504C328.505 243.208 327.569 242.392 325.841 242.392C324.209 242.392 323.249 243.112 323.249 244.096C323.249 246.712 330.665 245.056 330.665 249.592C330.665 252.064 328.457 253.288 325.889 253.288ZM338.185 251.056H339.241V253H337.753C335.041 253 333.673 251.704 333.673 248.8V242.8H332.041V240.88H333.673V237.328H335.713V240.88H339.025V242.8H335.713V248.344C335.713 250.288 336.529 251.056 338.185 251.056ZM346.103 240.568C349.199 240.568 351.143 242.392 351.143 245.104V247.552H343.031V248.104C343.031 250.36 344.039 251.536 346.175 251.536C347.927 251.536 349.055 250.744 349.055 249.256V249.112H351.095C351.095 251.8 349.175 253.288 346.223 253.288C342.743 253.288 341.015 251.2 341.015 248.08V245.728C341.015 242.608 342.791 240.568 346.103 240.568ZM343.031 245.824H349.079V245.128C349.079 243.256 348.071 242.32 346.175 242.32C343.991 242.32 343.031 243.52 343.031 245.728V245.824ZM358.35 253.288C355.23 253.288 353.406 251.68 353.406 249.256V249.016H355.422V249.232C355.422 250.624 356.526 251.464 358.446 251.464C359.934 251.464 361.11 250.864 361.11 249.736C361.11 246.88 353.694 248.632 353.694 244.24C353.694 242.008 355.494 240.568 358.278 240.568C361.254 240.568 362.982 242.152 362.982 244.504V244.744H360.966V244.504C360.966 243.208 360.03 242.392 358.302 242.392C356.67 242.392 355.71 243.112 355.71 244.096C355.71 246.712 363.126 245.056 363.126 249.592C363.126 252.064 360.918 253.288 358.35 253.288ZM370.646 251.056H371.702V253H370.214C367.502 253 366.134 251.704 366.134 248.8V242.8H364.502V240.88H366.134V237.328H368.174V240.88H371.486V242.8H368.174V248.344C368.174 250.288 368.99 251.056 370.646 251.056ZM375.972 250.456V253L374.724 256.456H373.836L374.628 253H373.788V250.456H375.972ZM391.208 236.08C395.216 236.08 397.4 238.096 397.4 241.384V247.696C397.4 250.984 395.216 253 391.232 253H385.16V236.08H391.208ZM395.288 247.504V241.552C395.288 239.296 394.04 238.072 391.352 238.072H387.272V250.984H391.328C394.04 250.984 395.288 249.784 395.288 247.504ZM405.189 240.568C408.285 240.568 410.229 242.392 410.229 245.104V247.552H402.117V248.104C402.117 250.36 403.125 251.536 405.261 251.536C407.013 251.536 408.141 250.744 408.141 249.256V249.112H410.181C410.181 251.8 408.261 253.288 405.309 253.288C401.829 253.288 400.101 251.2 400.101 248.08V245.728C400.101 242.608 401.877 240.568 405.189 240.568ZM402.117 245.824H408.165V245.128C408.165 243.256 407.157 242.32 405.261 242.32C403.077 242.32 402.117 243.52 402.117 245.728V245.824ZM417.892 253.288C414.604 253.288 412.804 251.392 412.804 248.272V245.584C412.804 242.464 414.58 240.568 417.892 240.568C421.012 240.568 422.884 242.392 422.884 245.32V245.56H420.844V245.272C420.844 243.448 419.788 242.512 417.892 242.512C415.804 242.512 414.844 243.568 414.844 245.704V248.152C414.844 250.288 415.78 251.344 417.892 251.344C419.764 251.344 420.844 250.408 420.844 248.584V248.296H422.884V248.536C422.884 251.464 421.036 253.288 417.892 253.288ZM430.572 240.568C433.668 240.568 435.612 242.392 435.612 245.104V247.552H427.5V248.104C427.5 250.36 428.508 251.536 430.644 251.536C432.396 251.536 433.524 250.744 433.524 249.256V249.112H435.564C435.564 251.8 433.644 253.288 430.692 253.288C427.212 253.288 425.484 251.2 425.484 248.08V245.728C425.484 242.608 427.26 240.568 430.572 240.568ZM427.5 245.824H433.548V245.128C433.548 243.256 432.54 242.32 430.644 242.32C428.46 242.32 427.5 243.52 427.5 245.728V245.824ZM444.259 240.568C447.115 240.568 448.867 242.152 448.867 245.92V253H446.851V245.968C446.851 243.592 445.771 242.512 443.851 242.512C442.123 242.512 440.923 243.352 440.683 245.2V253H438.643V240.88H440.011L440.371 242.2C441.259 241.096 442.627 240.568 444.259 240.568ZM457.107 251.056H458.163V253H456.675C453.963 253 452.595 251.704 452.595 248.8V242.8H450.963V240.88H452.595V237.328H454.635V240.88H457.947V242.8H454.635V248.344C454.635 250.288 455.451 251.056 457.107 251.056ZM465.961 240.664C466.177 240.664 466.417 240.664 466.657 240.688V242.56C466.321 242.488 465.961 242.44 465.625 242.44C463.897 242.44 462.433 243.376 462.433 245.368V253H460.393V240.88H461.809L462.217 242.128C463.105 241.168 464.521 240.664 465.961 240.664ZM477.161 240.88H478.577V253H477.161L476.777 251.776C475.913 252.808 474.593 253.312 472.985 253.312C470.009 253.312 468.257 251.8 468.257 248.2V245.68C468.257 242.056 470.009 240.568 472.985 240.568C474.593 240.568 475.913 241.072 476.777 242.104L477.161 240.88ZM473.345 251.368C475.193 251.368 476.369 250.456 476.537 248.44V245.416C476.369 243.424 475.217 242.512 473.345 242.512C471.305 242.512 470.297 243.496 470.297 245.8V248.056C470.297 250.36 471.305 251.368 473.345 251.368ZM482.12 234.52H484.16V253H482.12V234.52ZM487.744 238.984V236.488H489.904V238.984H487.744ZM487.792 253V240.88H489.832V253H487.792ZM502.296 240.88V242.488L495.504 251.056H502.296V253H492.72V251.392L499.56 242.8H493.056V240.88H502.296ZM509.767 240.568C512.863 240.568 514.807 242.392 514.807 245.104V247.552H506.695V248.104C506.695 250.36 507.703 251.536 509.839 251.536C511.591 251.536 512.719 250.744 512.719 249.256V249.112H514.759C514.759 251.8 512.839 253.288 509.887 253.288C506.407 253.288 504.679 251.2 504.679 248.08V245.728C504.679 242.608 506.455 240.568 509.767 240.568ZM506.695 245.824H512.743V245.128C512.743 243.256 511.735 242.32 509.839 242.32C507.655 242.32 506.695 243.52 506.695 245.728V245.824ZM525.662 234.52H527.678V253H526.262L525.878 251.776C525.038 252.808 523.718 253.312 522.11 253.312C519.134 253.312 517.382 251.824 517.382 248.2V245.68C517.382 242.056 519.134 240.568 522.11 240.568C523.574 240.568 524.822 240.976 525.662 241.84V234.52ZM522.47 251.368C524.318 251.368 525.494 250.456 525.662 248.44V245.416C525.494 243.424 524.342 242.512 522.47 242.512C520.43 242.512 519.422 243.496 519.422 245.8V248.056C519.422 250.384 520.43 251.368 522.47 251.368ZM549.348 241.984H547.236V241.288C547.236 239.032 545.868 237.784 542.988 237.784C540.084 237.784 538.715 239.032 538.715 241.288V247.768C538.715 250.024 540.084 251.296 542.964 251.296C545.868 251.296 547.236 250.024 547.236 247.768V246.112H542.724V244.12H549.348V247.936C549.348 251.224 547.164 253.312 542.988 253.312C538.812 253.312 536.604 251.224 536.604 247.936V241.12C536.604 237.832 538.788 235.768 542.964 235.768C547.14 235.768 549.348 237.832 549.348 241.12V241.984ZM552.573 234.52H554.613V253H552.573V234.52ZM562.925 253.312C559.517 253.312 557.741 251.392 557.741 248.272V245.584C557.741 242.464 559.517 240.568 562.901 240.568C566.309 240.568 568.085 242.464 568.085 245.584V248.272C568.085 251.392 566.309 253.312 562.925 253.312ZM562.901 251.368C565.085 251.368 566.045 250.288 566.045 248.152V245.704C566.045 243.568 565.109 242.512 562.925 242.512C560.741 242.512 559.781 243.568 559.781 245.704V248.152C559.781 250.288 560.717 251.368 562.901 251.368ZM576.703 240.568C579.679 240.568 581.431 242.056 581.431 245.68V248.2C581.431 251.824 579.679 253.312 576.703 253.312C575.095 253.312 573.775 252.808 572.935 251.8L572.551 253H571.135V234.52H573.175V241.84C574.015 240.976 575.239 240.568 576.703 240.568ZM579.415 248.056V245.8C579.415 243.496 578.383 242.512 576.343 242.512C574.543 242.512 573.415 243.352 573.175 245.2V248.68C573.415 250.528 574.567 251.368 576.343 251.368C578.383 251.368 579.415 250.384 579.415 248.056ZM592.919 240.88H594.335V253H592.919L592.535 251.776C591.671 252.808 590.351 253.312 588.743 253.312C585.767 253.312 584.015 251.8 584.015 248.2V245.68C584.015 242.056 585.767 240.568 588.743 240.568C590.351 240.568 591.671 241.072 592.535 242.104L592.919 240.88ZM589.103 251.368C590.951 251.368 592.127 250.456 592.295 248.44V245.416C592.127 243.424 590.975 242.512 589.103 242.512C587.063 242.512 586.055 243.496 586.055 245.8V248.056C586.055 250.36 587.063 251.368 589.103 251.368ZM597.878 234.52H599.918V253H597.878V234.52ZM619.108 244.048C620.452 244.696 621.244 245.968 621.244 247.456V248.728C621.244 251.32 619.3 253 616.468 253H609.34V236.08H615.892C618.748 236.08 620.692 237.448 620.692 239.944V241.072C620.692 242.368 620.116 243.4 619.108 244.048ZM615.94 238.024H611.452V243.28H615.94C617.548 243.28 618.58 242.656 618.58 241.048V240.016C618.58 238.6 617.548 238.024 615.94 238.024ZM619.132 248.728V247.504C619.132 246.016 618.172 245.2 616.516 245.2H611.452V251.056H616.492C618.172 251.056 619.132 250.216 619.132 248.728ZM624.316 234.52H626.356V253H624.316V234.52ZM634.668 253.312C631.26 253.312 629.484 251.392 629.484 248.272V245.584C629.484 242.464 631.26 240.568 634.644 240.568C638.052 240.568 639.828 242.464 639.828 245.584V248.272C639.828 251.392 638.052 253.312 634.668 253.312ZM634.644 251.368C636.828 251.368 637.788 250.288 637.788 248.152V245.704C637.788 243.568 636.852 242.512 634.668 242.512C632.484 242.512 631.524 243.568 631.524 245.704V248.152C631.524 250.288 632.46 251.368 634.644 251.368ZM647.509 253.288C644.221 253.288 642.421 251.392 642.421 248.272V245.584C642.421 242.464 644.197 240.568 647.509 240.568C650.629 240.568 652.501 242.392 652.501 245.32V245.56H650.461V245.272C650.461 243.448 649.405 242.512 647.509 242.512C645.421 242.512 644.461 243.568 644.461 245.704V248.152C644.461 250.288 645.397 251.344 647.509 251.344C649.381 251.344 650.461 250.408 650.461 248.584V248.296H652.501V248.536C652.501 251.464 650.653 253.288 647.509 253.288ZM665.709 240.88L659.781 246.376L665.709 253H663.237L657.645 246.856V253H655.605V234.52H657.645V245.896L663.141 240.88H665.709ZM672.189 253.288C668.901 253.288 667.101 251.392 667.101 248.272V245.584C667.101 242.464 668.877 240.568 672.189 240.568C675.309 240.568 677.181 242.392 677.181 245.32V245.56H675.141V245.272C675.141 243.448 674.085 242.512 672.189 242.512C670.101 242.512 669.141 243.568 669.141 245.704V248.152C669.141 250.288 670.077 251.344 672.189 251.344C674.061 251.344 675.141 250.408 675.141 248.584V248.296H677.181V248.536C677.181 251.464 675.333 253.288 672.189 253.288ZM685.852 240.568C688.684 240.568 690.46 242.152 690.46 245.92V253H688.444V245.968C688.444 243.616 687.34 242.512 685.444 242.512C683.716 242.512 682.516 243.376 682.276 245.224V253H680.236V234.52H682.276V241.864C683.14 241 684.388 240.568 685.852 240.568ZM702.325 240.88H703.741V253H702.325L701.941 251.776C701.077 252.808 699.757 253.312 698.149 253.312C695.173 253.312 693.421 251.8 693.421 248.2V245.68C693.421 242.056 695.173 240.568 698.149 240.568C699.757 240.568 701.077 241.072 701.941 242.104L702.325 240.88ZM698.509 251.368C700.357 251.368 701.533 250.456 701.701 248.44V245.416C701.533 243.424 700.381 242.512 698.509 242.512C696.469 242.512 695.461 243.496 695.461 245.8V248.056C695.461 250.36 696.469 251.368 698.509 251.368ZM707.236 238.984V236.488H709.396V238.984H707.236ZM707.284 253V240.88H709.324V253H707.284ZM718.524 240.568C721.38 240.568 723.132 242.152 723.132 245.92V253H721.116V245.968C721.116 243.592 720.036 242.512 718.116 242.512C716.388 242.512 715.188 243.352 714.948 245.2V253H712.908V240.88H714.276L714.636 242.2C715.524 241.096 716.892 240.568 718.524 240.568ZM742.011 236.08H743.979V253H742.011L734.355 239.968V253H732.387V236.08H734.355L742.011 249.136V236.08ZM752.181 240.568C755.277 240.568 757.221 242.392 757.221 245.104V247.552H749.109V248.104C749.109 250.36 750.117 251.536 752.253 251.536C754.005 251.536 755.133 250.744 755.133 249.256V249.112H757.173C757.173 251.8 755.253 253.288 752.301 253.288C748.821 253.288 747.093 251.2 747.093 248.08V245.728C747.093 242.608 748.869 240.568 752.181 240.568ZM749.109 245.824H755.157V245.128C755.157 243.256 754.149 242.32 752.253 242.32C750.069 242.32 749.109 243.52 749.109 245.728V245.824ZM765.076 251.056H766.132V253H764.644C761.932 253 760.564 251.704 760.564 248.8V242.8H758.932V240.88H760.564V237.328H762.604V240.88H765.916V242.8H762.604V248.344C762.604 250.288 763.42 251.056 765.076 251.056ZM780.36 240.88H782.45L779.35 253H777.27L774.67 244.864L772.08 253H769.993L766.897 240.88H768.961L771.22 250.768L773.83 240.88H775.49L778.11 250.816L780.36 240.88ZM789.12 253.312C785.71 253.312 783.94 251.392 783.94 248.272V245.584C783.94 242.464 785.71 240.568 789.1 240.568C792.5 240.568 794.28 242.464 794.28 245.584V248.272C794.28 251.392 792.5 253.312 789.12 253.312ZM789.1 251.368C791.28 251.368 792.24 250.288 792.24 248.152V245.704C792.24 243.568 791.3 242.512 789.12 242.512C786.94 242.512 785.98 243.568 785.98 245.704V248.152C785.98 250.288 786.91 251.368 789.1 251.368ZM802.9 240.664C803.11 240.664 803.35 240.664 803.59 240.688V242.56C803.26 242.488 802.9 242.44 802.56 242.44C800.83 242.44 799.37 243.376 799.37 245.368V253H797.33V240.88H798.75L799.15 242.128C800.04 241.168 801.46 240.664 802.9 240.664ZM816.15 240.88L810.23 246.376L816.15 253H813.68L808.09 246.856V253H806.05V234.52H808.09V245.896L813.59 240.88H816.15Z" fill="#94A8FD"/>
</g>
<defs>
<clipPath id="clip0_6_3171">
<rect width="821" height="257" fill="white"/>
</clipPath>
</defs>
</svg>
