<svg width="232" height="50" viewBox="0 0 232 50" fill="none" xmlns="http://www.w3.org/2000/svg">
<circle cx="25" cy="25" r="24.5" stroke="#94A8FD"/>
<path d="M9.00325 27.1234C7.33925 27.1215 6.38011 26.3524 6.38146 25.1444L6.38367 23.1764C6.38502 21.9684 7.33788 21.2015 9.00188 21.2034C10.6659 21.2052 11.617 21.9743 11.6157 23.1823L11.6153 23.5343L10.2953 23.5328L10.2956 23.2848C10.2962 22.7008 9.85663 22.3243 9.00863 22.3234C8.10463 22.3223 7.62421 22.6978 7.62355 23.2818L7.62158 25.0418C7.62093 25.6258 8.0925 26.0023 8.9965 26.0033C9.8525 26.0043 10.2929 25.6288 10.2936 25.0448L10.2939 24.7968L11.6139 24.7983L11.6135 25.1503C11.6121 26.3583 10.6592 27.1252 9.00325 27.1234ZM15.0276 27.1301C13.3236 27.1282 12.3645 26.3591 12.3658 25.1511L12.368 23.1831C12.3694 21.9751 13.3223 21.2082 15.0263 21.2101C16.7303 21.212 17.6814 21.9811 17.68 23.1891L17.6778 25.1571C17.6765 26.3651 16.7236 27.132 15.0276 27.1301ZM15.0209 26.0101C15.9969 26.0112 16.4373 25.6357 16.4379 25.0517L16.4399 23.2917C16.4406 22.7077 16.001 22.3312 15.033 22.3301C14.057 22.329 13.6086 22.7045 13.6079 23.2885L13.606 25.0485C13.6053 25.6325 14.0449 26.009 15.0209 26.0101ZM18.5063 27.014L18.5126 21.334L19.7526 21.3354L19.7463 27.0154L18.5063 27.014ZM24.1811 21.3404L25.3891 21.3417L25.3827 27.0217L24.1747 27.0204L21.8666 23.5218L21.8627 27.0178L20.6547 27.0164L20.6611 21.3364L21.8691 21.3378L24.1771 24.8524L24.1811 21.3404ZM28.6872 27.1294C27.1112 27.1277 26.272 26.3667 26.2732 25.3267L26.2734 25.1267L26.9774 25.1275L26.9772 25.3435C26.9765 25.9835 27.6239 26.4562 28.7039 26.4574C29.6799 26.4585 30.3124 26.0592 30.3131 25.4192C30.3148 23.8912 26.4016 24.9749 26.404 22.8549C26.4049 22.0229 27.0297 21.2796 28.5977 21.2813C30.1737 21.2831 30.8849 22.0199 30.8838 23.0119L30.8836 23.2359L30.1796 23.2351L30.1798 23.0031C30.1805 22.4031 29.621 21.9545 28.589 21.9533C27.637 21.9522 27.1166 22.3277 27.116 22.8557C27.1145 24.1917 31.0035 23.252 31.0251 25.412C31.0321 26.356 30.2632 27.1312 28.6872 27.1294ZM36.1501 22.0578L32.8541 22.0541L32.852 23.9181L35.788 23.9214L35.7872 24.5934L32.8512 24.5901L32.8492 26.3581L36.1452 26.3618L36.1445 27.0338L32.1445 27.0293L32.1508 21.3893L36.1508 21.3938L36.1501 22.0578ZM39.6121 27.1337C37.9561 27.1318 37.1649 26.4029 37.1662 25.1949L37.1684 23.2269C37.1698 22.0189 37.9626 21.2918 39.6106 21.2937C41.2666 21.2955 42.0498 22.0244 42.0484 23.2324L42.0482 23.4564L41.3042 23.4556L41.3043 23.3196C41.3053 22.4396 40.8179 21.967 39.6179 21.9657C38.3779 21.9643 37.8733 22.4357 37.8723 23.3157L37.8703 25.1077C37.8694 25.9877 38.3728 26.4603 39.6048 26.4617C40.8128 26.463 41.3013 25.9916 41.3023 25.1116L41.3025 24.9756L42.0465 24.9764L42.0462 25.2004C42.0449 26.4084 41.2601 27.1355 39.6121 27.1337Z" fill="#94A8FD"/>
<path d="M43.2165 19.0433L42.9001 19.043L42.8973 18.8526L43.1801 18.8529C43.223 18.8519 43.2631 18.8452 43.3002 18.8325C43.3373 18.8189 43.3671 18.7994 43.3896 18.774C43.4121 18.7477 43.4234 18.7155 43.4234 18.6774C43.4235 18.6295 43.4152 18.5914 43.3986 18.5631C43.383 18.5347 43.3557 18.5147 43.3167 18.5029C43.2786 18.4902 43.2269 18.4838 43.1614 18.4837L42.9666 18.4835L42.9654 19.5367L42.753 19.5365L42.7544 18.2943L43.1616 18.2947C43.2583 18.2949 43.3418 18.3091 43.4121 18.3375C43.4833 18.3649 43.538 18.407 43.576 18.4637C43.615 18.5194 43.6345 18.5892 43.6344 18.6732C43.6343 18.7259 43.622 18.7728 43.5976 18.8138C43.5731 18.8548 43.5369 18.8904 43.4891 18.9206C43.4422 18.9498 43.3845 18.9737 43.3161 18.9922C43.3132 18.9922 43.3098 18.9956 43.3059 19.0024C43.3029 19.0093 43.3 19.0127 43.2971 19.0127C43.2804 19.0224 43.2697 19.0297 43.2648 19.0346C43.2609 19.0385 43.2565 19.0409 43.2516 19.0419C43.2477 19.0429 43.236 19.0434 43.2165 19.0433ZM43.2018 19.0433L43.2327 18.8983C43.3851 18.8985 43.489 18.9318 43.5446 18.9983C43.6002 19.0638 43.628 19.1473 43.6279 19.2489L43.6278 19.328C43.6277 19.3641 43.6291 19.3988 43.632 19.432C43.6359 19.4642 43.6427 19.4916 43.6525 19.514L43.6524 19.5375L43.4342 19.5372C43.4244 19.5118 43.4186 19.4757 43.4167 19.4288C43.4158 19.3819 43.4153 19.3478 43.4154 19.3263L43.4154 19.2501C43.4155 19.1788 43.3995 19.1266 43.3673 19.0933C43.3351 19.0601 43.2799 19.0434 43.2018 19.0433ZM42.3128 18.9325C42.3126 19.0624 42.3345 19.1835 42.3783 19.2958C42.4231 19.4072 42.4855 19.5049 42.5655 19.589C42.6454 19.6721 42.7377 19.7371 42.8421 19.7841C42.9475 19.8302 43.0598 19.8532 43.1789 19.8534C43.299 19.8535 43.4114 19.8307 43.5159 19.7849C43.6205 19.7381 43.7123 19.6733 43.7915 19.5904C43.8707 19.5065 43.9328 19.4089 43.9779 19.2976C44.0229 19.1854 44.0455 19.0643 44.0457 18.9344C44.0458 18.8045 44.0235 18.6839 43.9787 18.5725C43.9339 18.4611 43.872 18.3639 43.793 18.2808C43.714 18.1977 43.6223 18.1332 43.5178 18.0871C43.4134 18.0401 43.3011 18.0166 43.181 18.0164C43.0618 18.0163 42.9495 18.0396 42.844 18.0864C42.7395 18.1322 42.6471 18.1965 42.5669 18.2794C42.4868 18.3623 42.4241 18.4594 42.3791 18.5707C42.335 18.682 42.3129 18.8026 42.3128 18.9325ZM42.1399 18.9323C42.1401 18.777 42.1671 18.633 42.221 18.5002C42.2748 18.3675 42.3497 18.2518 42.4455 18.1533C42.5413 18.0538 42.6517 17.9768 42.7768 17.9222C42.9028 17.8667 43.0376 17.839 43.1812 17.8392C43.3247 17.8394 43.459 17.8673 43.5839 17.9231C43.7098 17.978 43.8201 18.0553 43.9147 18.155C44.0103 18.2537 44.0849 18.3695 44.1385 18.5024C44.193 18.6353 44.2202 18.7793 44.22 18.9346C44.2198 19.0899 44.1923 19.2339 44.1375 19.3666C44.0836 19.4994 44.0088 19.616 43.913 19.7165C43.8181 19.816 43.7077 19.8935 43.5817 19.949C43.4566 20.0046 43.3223 20.0322 43.1787 20.0321C43.0352 20.0319 42.9004 20.0039 42.7745 19.9481C42.6496 19.8923 42.5393 19.8146 42.4437 19.7148C42.3481 19.6141 42.2736 19.4974 42.22 19.3645C42.1664 19.2316 42.1398 19.0875 42.1399 18.9323Z" fill="#94A8FD"/>
<path d="M66.5879 30.3074C63.008 30.3034 60.83 28.5009 60.833 25.7609L60.8395 20.0409C60.8425 17.3009 63.0045 15.5033 66.5845 15.5074C70.1645 15.5114 72.3025 17.3138 72.2994 20.0538L72.298 21.3338L69.078 21.3301L69.0793 20.1901C69.0806 19.0502 68.2214 18.3092 66.6014 18.3074C64.8614 18.3054 63.9406 19.0444 63.9393 20.1844L63.9332 25.6244C63.9319 26.7644 64.8311 27.5054 66.5711 27.5073C68.2111 27.5092 69.0719 26.7701 69.0732 25.6301L69.0745 24.4901L72.2945 24.4938L72.293 25.7738C72.29 28.5138 70.1479 30.3114 66.5879 30.3074ZM79.7729 30.3221C76.1329 30.3181 73.955 28.5156 73.958 25.7756L73.9644 20.0556C73.9675 17.3156 76.1295 15.518 79.7695 15.5221C83.4095 15.5262 85.5675 17.3286 85.5644 20.0686L85.558 25.7886C85.555 28.5286 83.4129 30.3262 79.7729 30.3221ZM79.7561 27.5221C81.6361 27.5242 82.4569 26.7851 82.4582 25.6451L82.4643 20.2052C82.4656 19.0652 81.6464 18.3242 79.7864 18.3221C77.9064 18.32 77.0656 19.0591 77.0643 20.1991L77.0582 25.6391C77.0569 26.7791 77.8961 27.52 79.7561 27.5221ZM87.3755 30.0307L87.3914 15.8307L90.4914 15.8341L90.4755 30.0341L87.3755 30.0307ZM100.249 15.8451L103.129 15.8483L103.113 30.0483L100.233 30.0451L95.3627 21.5196L95.3531 30.0396L92.4731 30.0364L92.489 15.8364L95.369 15.8396L100.239 24.4051L100.249 15.8451ZM111.21 30.3174C107.27 30.313 105.172 28.4106 105.175 25.8106L105.176 25.3106L106.936 25.3126L106.935 25.8526C106.933 27.4526 108.552 28.6344 111.252 28.6374C113.692 28.6402 115.273 27.6419 115.275 26.0419C115.279 22.2219 105.496 24.931 105.502 19.631C105.504 17.551 107.066 15.6927 110.986 15.6971C114.926 15.7015 116.704 17.5435 116.702 20.0235L116.701 20.5835L114.941 20.5816L114.942 20.0016C114.943 18.5016 113.544 17.38 110.964 17.3771C108.585 17.3744 107.283 18.313 107.282 19.633C107.278 22.973 117.001 20.6239 117.055 26.0239C117.072 28.3839 115.15 30.3218 111.21 30.3174ZM129.867 17.6383L121.627 17.629L121.622 22.289L128.962 22.2973L128.96 23.9773L121.62 23.969L121.615 28.389L129.855 28.3983L129.853 30.0783L119.853 30.0671L119.869 15.9671L129.869 15.9783L129.867 17.6383ZM138.522 30.328C134.382 30.3234 132.404 28.5011 132.408 25.4811L132.413 20.5611C132.417 17.5411 134.399 15.7234 138.519 15.728C142.659 15.7326 144.617 17.5548 144.613 20.5748L144.612 21.1348L142.752 21.1327L142.753 20.7927C142.755 18.5927 141.537 17.4114 138.537 17.408C135.437 17.4045 134.175 18.5831 134.173 20.7831L134.168 25.2631C134.165 27.4631 135.424 28.6445 138.504 28.648C141.524 28.6514 142.745 27.4727 142.748 25.2727L142.748 24.9327L144.608 24.9348L144.608 25.4948C144.604 28.5148 142.642 30.3326 138.522 30.328ZM162.154 16.0145L163.874 16.0164L163.858 30.1164L162.138 30.1145L154.73 19.1262L154.718 30.1061L152.998 30.1042L153.014 16.0042L154.734 16.0062L162.141 27.0145L162.154 16.0145ZM171.526 19.765C174.386 19.7682 176.204 21.3502 176.202 23.6102L176.2 25.5902L168.48 25.5816C168.477 27.7416 169.476 28.9027 171.636 28.9051C173.336 28.907 174.497 28.2083 174.498 27.0083L174.498 26.8883L176.198 26.8902C176.196 29.1302 174.394 30.3682 171.674 30.3652C168.354 30.3614 166.777 28.4397 166.78 25.6597L166.781 24.3997C166.784 21.6197 168.426 19.7615 171.526 19.765ZM168.501 24.1216L174.481 24.1283L174.482 23.7483C174.484 22.0683 173.505 21.2272 171.625 21.2251C169.545 21.2228 168.603 22.2617 168.501 24.1216ZM183.392 28.5183L184.392 28.5194L184.391 30.1394L183.151 30.138C180.671 30.1352 179.292 28.9537 179.294 26.6537L179.3 21.6337L177.92 21.6321L177.922 20.0321L179.302 20.0337L179.305 17.0737L181.005 17.0756L181.002 20.0356L184.102 20.0391L184.1 21.6391L181 21.6356L180.995 26.2556C180.993 27.7756 181.852 28.5166 183.392 28.5183ZM197.322 20.0539L199.062 20.0558L196.351 30.1528L194.471 30.1507L192.099 23.248L189.711 30.1454L187.811 30.1432L185.122 20.0402L186.842 20.0421L188.933 28.4245L191.362 20.0472L192.822 20.0489L195.253 28.4316L197.322 20.0539ZM205.228 30.4228C202.008 30.4192 200.37 28.7173 200.373 25.9373L200.375 24.2573C200.378 21.4773 202.02 19.7992 205.24 19.8028C208.46 19.8064 210.098 21.4882 210.095 24.2682L210.093 25.9482C210.09 28.7282 208.468 30.4264 205.228 30.4228ZM205.23 28.8028C207.47 28.8053 208.391 27.7863 208.393 25.7863L208.395 24.4263C208.397 22.4463 207.478 21.4253 205.238 21.4228C203.018 21.4203 202.077 22.4392 202.075 24.4192L202.073 25.7792C202.071 27.7792 202.99 28.8003 205.23 28.8028ZM217.949 19.897C218.189 19.8973 218.429 19.8976 218.669 19.9178L218.667 21.4778C218.327 21.3974 217.947 21.357 217.587 21.3566C216.027 21.3549 214.666 22.0333 214.664 23.8933L214.657 30.1733L212.957 30.1714L212.969 20.0714L214.169 20.0728L214.507 21.1732C215.308 20.3141 216.589 19.8955 217.949 19.897ZM230.574 20.0912L224.789 24.6647L230.563 30.1912L228.363 30.1887L222.829 25.0025L222.823 30.1825L221.123 30.1806L221.14 14.7806L222.84 14.7825L222.83 24.3225L228.294 20.0886L230.574 20.0912Z" fill="#94A8FD"/>
</svg>
