<svg width="1236" height="310" viewBox="0 0 1236 310" fill="none" xmlns="http://www.w3.org/2000/svg">
<path d="M198 0.5H38C32.7533 0.5 28.5 4.75329 28.5 10V56.6C28.5 61.8467 32.7533 66.1 38 66.1H198C203.247 66.1 207.5 61.8467 207.5 56.6V10C207.5 4.75329 203.247 0.5 198 0.5Z" stroke="#94A8FD"/>
<path d="M63.2027 23.9H64.9627V38H63.2027V31.9H56.5827V38H54.8227V23.9H56.5827V30.22H63.2027V23.9ZM74.4063 27.9H76.0863V38.96C76.0863 41.2 74.6463 42.86 71.8863 42.86C69.2863 42.86 68.0463 41.5 67.8663 39.76H69.5663C69.7663 40.74 70.5063 41.24 71.8663 41.24C73.4263 41.24 74.4063 40.42 74.4063 38.84V37.22C73.7263 37.92 72.7463 38.26 71.6263 38.26C69.3263 38.26 67.9063 36.92 67.9063 33.8V27.9H69.6063V33.76C69.6063 35.74 70.3663 36.64 71.9263 36.64C73.3063 36.64 74.2863 35.88 74.4063 34.2V27.9ZM83.641 27.64C86.121 27.64 87.601 28.88 87.601 31.9V34C87.601 37.02 86.121 38.26 83.641 38.26C82.421 38.26 81.401 37.92 80.701 37.2V42.6H79.001V27.9H80.181L80.501 28.9C81.201 28.06 82.301 27.64 83.641 27.64ZM85.901 33.88V32C85.901 30.08 85.061 29.26 83.341 29.26C81.861 29.26 80.901 29.96 80.701 31.5V34.4C80.901 35.94 81.861 36.64 83.341 36.64C85.061 36.64 85.901 35.82 85.901 33.88ZM93.9938 27.64C96.5738 27.64 98.1938 29.16 98.1938 31.42V33.46H91.4338V33.92C91.4338 35.8 92.2738 36.78 94.0538 36.78C95.5138 36.78 96.4538 36.12 96.4538 34.88V34.76H98.1538C98.1538 37 96.5538 38.24 94.0938 38.24C91.1938 38.24 89.7538 36.5 89.7538 33.9V31.94C89.7538 29.34 91.2338 27.64 93.9938 27.64ZM91.4338 32.02H96.4738V31.44C96.4738 29.88 95.6338 29.1 94.0538 29.1C92.2338 29.1 91.4338 30.1 91.4338 31.94V32.02ZM105.36 27.72C105.54 27.72 105.74 27.72 105.94 27.74V29.3C105.66 29.24 105.36 29.2 105.08 29.2C103.64 29.2 102.42 29.98 102.42 31.64V38H100.72V27.9H101.9L102.24 28.94C102.98 28.14 104.16 27.72 105.36 27.72ZM111.513 38.24C108.773 38.24 107.273 36.66 107.273 34.06V31.82C107.273 29.22 108.753 27.64 111.513 27.64C114.113 27.64 115.673 29.16 115.673 31.6V31.8H113.973V31.56C113.973 30.04 113.093 29.26 111.513 29.26C109.773 29.26 108.973 30.14 108.973 31.92V33.96C108.973 35.74 109.753 36.62 111.513 36.62C113.073 36.62 113.973 35.84 113.973 34.32V34.08H115.673V34.28C115.673 36.72 114.133 38.24 111.513 38.24ZM122.9 27.64C125.26 27.64 126.74 28.96 126.74 32.1V38H125.06V32.14C125.06 30.18 124.14 29.26 122.56 29.26C121.12 29.26 120.12 29.98 119.92 31.52V38H118.22V22.6H119.92V28.72C120.64 28 121.68 27.64 122.9 27.64ZM136.627 27.9H137.807V38H136.627L136.307 36.98C135.587 37.84 134.487 38.26 133.147 38.26C130.667 38.26 129.207 37 129.207 34V31.9C129.207 28.88 130.667 27.64 133.147 27.64C134.487 27.64 135.587 28.06 136.307 28.92L136.627 27.9ZM133.447 36.64C134.987 36.64 135.967 35.88 136.107 34.2V31.68C135.967 30.02 135.007 29.26 133.447 29.26C131.747 29.26 130.907 30.08 130.907 32V33.88C130.907 35.8 131.747 36.64 133.447 36.64ZM140.72 26.32V24.24H142.52V26.32H140.72ZM140.76 38V27.9H142.46V38H140.76ZM150.126 27.64C152.506 27.64 153.966 28.96 153.966 32.1V38H152.286V32.14C152.286 30.16 151.386 29.26 149.786 29.26C148.346 29.26 147.346 29.96 147.146 31.5V38H145.446V27.9H146.586L146.886 29C147.626 28.08 148.766 27.64 150.126 27.64ZM163.438 36.32H170.358V38H161.678V23.9H163.438V36.32ZM181.6 28.12C181.6 32.72 174.24 32.98 173.98 36.32H181.54V38H172.08V37.04C172.08 31.96 179.86 31.78 179.86 28.02V27.46C179.86 26.2 178.78 25.32 176.96 25.32C175 25.32 173.98 26.32 173.98 28.16V28.66H172.22V28.16C172.22 25.38 174.04 23.64 177 23.64C179.78 23.64 181.6 25.22 181.6 27.44V28.12Z" fill="#94A8FD"/>
<path d="M398 0.5H238C232.753 0.5 228.5 4.75329 228.5 10V56.6C228.5 61.8467 232.753 66.1 238 66.1H398C403.247 66.1 407.5 61.8467 407.5 56.6V10C407.5 4.75329 403.247 0.5 398 0.5Z" stroke="#94A8FD"/>
<path d="M263.015 23.9H264.775V38H263.015V31.9H256.395V38H254.635V23.9H256.395V30.22H263.015V23.9ZM274.219 27.9H275.899V38.96C275.899 41.2 274.459 42.86 271.699 42.86C269.099 42.86 267.859 41.5 267.679 39.76H269.379C269.579 40.74 270.319 41.24 271.679 41.24C273.239 41.24 274.219 40.42 274.219 38.84V37.22C273.539 37.92 272.559 38.26 271.439 38.26C269.139 38.26 267.719 36.92 267.719 33.8V27.9H269.419V33.76C269.419 35.74 270.179 36.64 271.739 36.64C273.119 36.64 274.099 35.88 274.219 34.2V27.9ZM283.454 27.64C285.934 27.64 287.414 28.88 287.414 31.9V34C287.414 37.02 285.934 38.26 283.454 38.26C282.234 38.26 281.214 37.92 280.514 37.2V42.6H278.814V27.9H279.994L280.314 28.9C281.014 28.06 282.114 27.64 283.454 27.64ZM285.714 33.88V32C285.714 30.08 284.874 29.26 283.154 29.26C281.674 29.26 280.714 29.96 280.514 31.5V34.4C280.714 35.94 281.674 36.64 283.154 36.64C284.874 36.64 285.714 35.82 285.714 33.88ZM293.806 27.64C296.386 27.64 298.006 29.16 298.006 31.42V33.46H291.246V33.92C291.246 35.8 292.086 36.78 293.866 36.78C295.326 36.78 296.266 36.12 296.266 34.88V34.76H297.966C297.966 37 296.366 38.24 293.906 38.24C291.006 38.24 289.566 36.5 289.566 33.9V31.94C289.566 29.34 291.046 27.64 293.806 27.64ZM291.246 32.02H296.286V31.44C296.286 29.88 295.446 29.1 293.866 29.1C292.046 29.1 291.246 30.1 291.246 31.94V32.02ZM305.172 27.72C305.352 27.72 305.552 27.72 305.752 27.74V29.3C305.472 29.24 305.172 29.2 304.892 29.2C303.452 29.2 302.232 29.98 302.232 31.64V38H300.532V27.9H301.712L302.052 28.94C302.792 28.14 303.972 27.72 305.172 27.72ZM311.326 38.24C308.586 38.24 307.086 36.66 307.086 34.06V31.82C307.086 29.22 308.566 27.64 311.326 27.64C313.926 27.64 315.486 29.16 315.486 31.6V31.8H313.786V31.56C313.786 30.04 312.906 29.26 311.326 29.26C309.586 29.26 308.786 30.14 308.786 31.92V33.96C308.786 35.74 309.566 36.62 311.326 36.62C312.886 36.62 313.786 35.84 313.786 34.32V34.08H315.486V34.28C315.486 36.72 313.946 38.24 311.326 38.24ZM322.712 27.64C325.072 27.64 326.552 28.96 326.552 32.1V38H324.872V32.14C324.872 30.18 323.952 29.26 322.372 29.26C320.932 29.26 319.932 29.98 319.732 31.52V38H318.032V22.6H319.732V28.72C320.452 28 321.492 27.64 322.712 27.64ZM336.439 27.9H337.619V38H336.439L336.119 36.98C335.399 37.84 334.299 38.26 332.959 38.26C330.479 38.26 329.019 37 329.019 34V31.9C329.019 28.88 330.479 27.64 332.959 27.64C334.299 27.64 335.399 28.06 336.119 28.92L336.439 27.9ZM333.259 36.64C334.799 36.64 335.779 35.88 335.919 34.2V31.68C335.779 30.02 334.819 29.26 333.259 29.26C331.559 29.26 330.719 30.08 330.719 32V33.88C330.719 35.8 331.559 36.64 333.259 36.64ZM340.532 26.32V24.24H342.332V26.32H340.532ZM340.572 38V27.9H342.272V38H340.572ZM349.939 27.64C352.319 27.64 353.779 28.96 353.779 32.1V38H352.099V32.14C352.099 30.16 351.199 29.26 349.599 29.26C348.159 29.26 347.159 29.96 346.959 31.5V38H345.259V27.9H346.399L346.699 29C347.439 28.08 348.579 27.64 349.939 27.64ZM363.251 36.32H370.171V38H361.491V23.9H363.251V36.32ZM381.412 28.12C381.412 32.72 374.052 32.98 373.792 36.32H381.352V38H371.892V37.04C371.892 31.96 379.672 31.78 379.672 28.02V27.46C379.672 26.2 378.592 25.32 376.772 25.32C374.812 25.32 373.792 26.32 373.792 28.16V28.66H372.032V28.16C372.032 25.38 373.852 23.64 376.812 23.64C379.592 23.64 381.412 25.22 381.412 27.44V28.12Z" fill="#94A8FD"/>
<path d="M598 0.5H438C432.753 0.5 428.5 4.75329 428.5 10V56.6C428.5 61.8467 432.753 66.1 438 66.1H598C603.247 66.1 607.5 61.8467 607.5 56.6V10C607.5 4.75329 603.247 0.5 598 0.5Z" stroke="#94A8FD"/>
<path d="M462.828 23.9H464.588V38H462.828V31.9H456.208V38H454.448V23.9H456.208V30.22H462.828V23.9ZM474.031 27.9H475.711V38.96C475.711 41.2 474.271 42.86 471.511 42.86C468.911 42.86 467.671 41.5 467.491 39.76H469.191C469.391 40.74 470.131 41.24 471.491 41.24C473.051 41.24 474.031 40.42 474.031 38.84V37.22C473.351 37.92 472.371 38.26 471.251 38.26C468.951 38.26 467.531 36.92 467.531 33.8V27.9H469.231V33.76C469.231 35.74 469.991 36.64 471.551 36.64C472.931 36.64 473.911 35.88 474.031 34.2V27.9ZM483.266 27.64C485.746 27.64 487.226 28.88 487.226 31.9V34C487.226 37.02 485.746 38.26 483.266 38.26C482.046 38.26 481.026 37.92 480.326 37.2V42.6H478.626V27.9H479.806L480.126 28.9C480.826 28.06 481.926 27.64 483.266 27.64ZM485.526 33.88V32C485.526 30.08 484.686 29.26 482.966 29.26C481.486 29.26 480.526 29.96 480.326 31.5V34.4C480.526 35.94 481.486 36.64 482.966 36.64C484.686 36.64 485.526 35.82 485.526 33.88ZM493.619 27.64C496.199 27.64 497.819 29.16 497.819 31.42V33.46H491.059V33.92C491.059 35.8 491.899 36.78 493.679 36.78C495.139 36.78 496.079 36.12 496.079 34.88V34.76H497.779C497.779 37 496.179 38.24 493.719 38.24C490.819 38.24 489.379 36.5 489.379 33.9V31.94C489.379 29.34 490.859 27.64 493.619 27.64ZM491.059 32.02H496.099V31.44C496.099 29.88 495.259 29.1 493.679 29.1C491.859 29.1 491.059 30.1 491.059 31.94V32.02ZM504.985 27.72C505.165 27.72 505.365 27.72 505.565 27.74V29.3C505.285 29.24 504.985 29.2 504.705 29.2C503.265 29.2 502.045 29.98 502.045 31.64V38H500.345V27.9H501.525L501.865 28.94C502.605 28.14 503.785 27.72 504.985 27.72ZM511.138 38.24C508.398 38.24 506.898 36.66 506.898 34.06V31.82C506.898 29.22 508.378 27.64 511.138 27.64C513.738 27.64 515.298 29.16 515.298 31.6V31.8H513.598V31.56C513.598 30.04 512.718 29.26 511.138 29.26C509.398 29.26 508.598 30.14 508.598 31.92V33.96C508.598 35.74 509.378 36.62 511.138 36.62C512.698 36.62 513.598 35.84 513.598 34.32V34.08H515.298V34.28C515.298 36.72 513.758 38.24 511.138 38.24ZM522.525 27.64C524.885 27.64 526.365 28.96 526.365 32.1V38H524.685V32.14C524.685 30.18 523.765 29.26 522.185 29.26C520.745 29.26 519.745 29.98 519.545 31.52V38H517.845V22.6H519.545V28.72C520.265 28 521.305 27.64 522.525 27.64ZM536.252 27.9H537.432V38H536.252L535.932 36.98C535.212 37.84 534.112 38.26 532.772 38.26C530.292 38.26 528.832 37 528.832 34V31.9C528.832 28.88 530.292 27.64 532.772 27.64C534.112 27.64 535.212 28.06 535.932 28.92L536.252 27.9ZM533.072 36.64C534.612 36.64 535.592 35.88 535.732 34.2V31.68C535.592 30.02 534.632 29.26 533.072 29.26C531.372 29.26 530.532 30.08 530.532 32V33.88C530.532 35.8 531.372 36.64 533.072 36.64ZM540.345 26.32V24.24H542.145V26.32H540.345ZM540.385 38V27.9H542.085V38H540.385ZM549.751 27.64C552.131 27.64 553.591 28.96 553.591 32.1V38H551.911V32.14C551.911 30.16 551.011 29.26 549.411 29.26C547.971 29.26 546.971 29.96 546.771 31.5V38H545.071V27.9H546.211L546.511 29C547.251 28.08 548.391 27.64 549.751 27.64ZM563.063 36.32H569.983V38H561.303V23.9H563.063V36.32ZM581.225 28.12C581.225 32.72 573.865 32.98 573.605 36.32H581.165V38H571.705V37.04C571.705 31.96 579.485 31.78 579.485 28.02V27.46C579.485 26.2 578.405 25.32 576.585 25.32C574.625 25.32 573.605 26.32 573.605 28.16V28.66H571.845V28.16C571.845 25.38 573.665 23.64 576.625 23.64C579.405 23.64 581.225 25.22 581.225 27.44V28.12Z" fill="#94A8FD"/>
<path d="M798 0.5H638C632.753 0.5 628.5 4.75329 628.5 10V56.6C628.5 61.8467 632.753 66.1 638 66.1H798C803.247 66.1 807.5 61.8467 807.5 56.6V10C807.5 4.75329 803.247 0.5 798 0.5Z" stroke="#94A8FD"/>
<path d="M663.64 23.9H665.4V38H663.64V31.9H657.02V38H655.26V23.9H657.02V30.22H663.64V23.9ZM674.844 27.9H676.524V38.96C676.524 41.2 675.084 42.86 672.324 42.86C669.724 42.86 668.484 41.5 668.304 39.76H670.004C670.204 40.74 670.944 41.24 672.304 41.24C673.864 41.24 674.844 40.42 674.844 38.84V37.22C674.164 37.92 673.184 38.26 672.064 38.26C669.764 38.26 668.344 36.92 668.344 33.8V27.9H670.044V33.76C670.044 35.74 670.804 36.64 672.364 36.64C673.744 36.64 674.724 35.88 674.844 34.2V27.9ZM684.079 27.64C686.559 27.64 688.039 28.88 688.039 31.9V34C688.039 37.02 686.559 38.26 684.079 38.26C682.859 38.26 681.839 37.92 681.139 37.2V42.6H679.439V27.9H680.619L680.939 28.9C681.639 28.06 682.739 27.64 684.079 27.64ZM686.339 33.88V32C686.339 30.08 685.499 29.26 683.779 29.26C682.299 29.26 681.339 29.96 681.139 31.5V34.4C681.339 35.94 682.299 36.64 683.779 36.64C685.499 36.64 686.339 35.82 686.339 33.88ZM694.431 27.64C697.011 27.64 698.631 29.16 698.631 31.42V33.46H691.871V33.92C691.871 35.8 692.711 36.78 694.491 36.78C695.951 36.78 696.891 36.12 696.891 34.88V34.76H698.591C698.591 37 696.991 38.24 694.531 38.24C691.631 38.24 690.191 36.5 690.191 33.9V31.94C690.191 29.34 691.671 27.64 694.431 27.64ZM691.871 32.02H696.911V31.44C696.911 29.88 696.071 29.1 694.491 29.1C692.671 29.1 691.871 30.1 691.871 31.94V32.02ZM705.797 27.72C705.977 27.72 706.177 27.72 706.377 27.74V29.3C706.097 29.24 705.797 29.2 705.517 29.2C704.077 29.2 702.857 29.98 702.857 31.64V38H701.157V27.9H702.337L702.677 28.94C703.417 28.14 704.597 27.72 705.797 27.72ZM711.951 38.24C709.211 38.24 707.711 36.66 707.711 34.06V31.82C707.711 29.22 709.191 27.64 711.951 27.64C714.551 27.64 716.111 29.16 716.111 31.6V31.8H714.411V31.56C714.411 30.04 713.531 29.26 711.951 29.26C710.211 29.26 709.411 30.14 709.411 31.92V33.96C709.411 35.74 710.191 36.62 711.951 36.62C713.511 36.62 714.411 35.84 714.411 34.32V34.08H716.111V34.28C716.111 36.72 714.571 38.24 711.951 38.24ZM723.337 27.64C725.697 27.64 727.177 28.96 727.177 32.1V38H725.497V32.14C725.497 30.18 724.577 29.26 722.997 29.26C721.557 29.26 720.557 29.98 720.357 31.52V38H718.657V22.6H720.357V28.72C721.077 28 722.117 27.64 723.337 27.64ZM737.064 27.9H738.244V38H737.064L736.744 36.98C736.024 37.84 734.924 38.26 733.584 38.26C731.104 38.26 729.644 37 729.644 34V31.9C729.644 28.88 731.104 27.64 733.584 27.64C734.924 27.64 736.024 28.06 736.744 28.92L737.064 27.9ZM733.884 36.64C735.424 36.64 736.404 35.88 736.544 34.2V31.68C736.404 30.02 735.444 29.26 733.884 29.26C732.184 29.26 731.344 30.08 731.344 32V33.88C731.344 35.8 732.184 36.64 733.884 36.64ZM741.157 26.32V24.24H742.957V26.32H741.157ZM741.197 38V27.9H742.897V38H741.197ZM750.564 27.64C752.944 27.64 754.404 28.96 754.404 32.1V38H752.724V32.14C752.724 30.16 751.824 29.26 750.224 29.26C748.784 29.26 747.784 29.96 747.584 31.5V38H745.884V27.9H747.024L747.324 29C748.064 28.08 749.204 27.64 750.564 27.64ZM763.876 36.32H770.796V38H762.116V23.9H763.876V36.32ZM782.037 28.12C782.037 32.72 774.677 32.98 774.417 36.32H781.977V38H772.517V37.04C772.517 31.96 780.297 31.78 780.297 28.02V27.46C780.297 26.2 779.217 25.32 777.397 25.32C775.437 25.32 774.417 26.32 774.417 28.16V28.66H772.657V28.16C772.657 25.38 774.477 23.64 777.437 23.64C780.217 23.64 782.037 25.22 782.037 27.44V28.12Z" fill="#94A8FD"/>
<path d="M998 0.5H838C832.753 0.5 828.5 4.75329 828.5 10V56.6C828.5 61.8467 832.753 66.1 838 66.1H998C1003.25 66.1 1007.5 61.8467 1007.5 56.6V10C1007.5 4.75329 1003.25 0.5 998 0.5Z" stroke="#94A8FD"/>
<path d="M863.445 23.9H865.205V38H863.445V31.9H856.825V38H855.065V23.9H856.825V30.22H863.445V23.9ZM874.649 27.9H876.329V38.96C876.329 41.2 874.889 42.86 872.129 42.86C869.529 42.86 868.289 41.5 868.109 39.76H869.809C870.009 40.74 870.749 41.24 872.109 41.24C873.669 41.24 874.649 40.42 874.649 38.84V37.22C873.969 37.92 872.989 38.26 871.869 38.26C869.569 38.26 868.149 36.92 868.149 33.8V27.9H869.849V33.76C869.849 35.74 870.609 36.64 872.169 36.64C873.549 36.64 874.529 35.88 874.649 34.2V27.9ZM883.883 27.64C886.363 27.64 887.843 28.88 887.843 31.9V34C887.843 37.02 886.363 38.26 883.883 38.26C882.663 38.26 881.643 37.92 880.943 37.2V42.6H879.243V27.9H880.423L880.743 28.9C881.443 28.06 882.543 27.64 883.883 27.64ZM886.143 33.88V32C886.143 30.08 885.303 29.26 883.583 29.26C882.103 29.26 881.143 29.96 880.943 31.5V34.4C881.143 35.94 882.103 36.64 883.583 36.64C885.303 36.64 886.143 35.82 886.143 33.88ZM894.236 27.64C896.816 27.64 898.436 29.16 898.436 31.42V33.46H891.676V33.92C891.676 35.8 892.516 36.78 894.296 36.78C895.756 36.78 896.696 36.12 896.696 34.88V34.76H898.396C898.396 37 896.796 38.24 894.336 38.24C891.436 38.24 889.996 36.5 889.996 33.9V31.94C889.996 29.34 891.476 27.64 894.236 27.64ZM891.676 32.02H896.716V31.44C896.716 29.88 895.876 29.1 894.296 29.1C892.476 29.1 891.676 30.1 891.676 31.94V32.02ZM905.602 27.72C905.782 27.72 905.982 27.72 906.182 27.74V29.3C905.902 29.24 905.602 29.2 905.322 29.2C903.882 29.2 902.662 29.98 902.662 31.64V38H900.962V27.9H902.142L902.482 28.94C903.222 28.14 904.402 27.72 905.602 27.72ZM911.756 38.24C909.016 38.24 907.516 36.66 907.516 34.06V31.82C907.516 29.22 908.996 27.64 911.756 27.64C914.356 27.64 915.916 29.16 915.916 31.6V31.8H914.216V31.56C914.216 30.04 913.336 29.26 911.756 29.26C910.016 29.26 909.216 30.14 909.216 31.92V33.96C909.216 35.74 909.996 36.62 911.756 36.62C913.316 36.62 914.216 35.84 914.216 34.32V34.08H915.916V34.28C915.916 36.72 914.376 38.24 911.756 38.24ZM923.142 27.64C925.502 27.64 926.982 28.96 926.982 32.1V38H925.302V32.14C925.302 30.18 924.382 29.26 922.802 29.26C921.362 29.26 920.362 29.98 920.162 31.52V38H918.462V22.6H920.162V28.72C920.882 28 921.922 27.64 923.142 27.64ZM936.869 27.9H938.049V38H936.869L936.549 36.98C935.829 37.84 934.729 38.26 933.389 38.26C930.909 38.26 929.449 37 929.449 34V31.9C929.449 28.88 930.909 27.64 933.389 27.64C934.729 27.64 935.829 28.06 936.549 28.92L936.869 27.9ZM933.689 36.64C935.229 36.64 936.209 35.88 936.349 34.2V31.68C936.209 30.02 935.249 29.26 933.689 29.26C931.989 29.26 931.149 30.08 931.149 32V33.88C931.149 35.8 931.989 36.64 933.689 36.64ZM940.962 26.32V24.24H942.762V26.32H940.962ZM941.002 38V27.9H942.702V38H941.002ZM950.369 27.64C952.749 27.64 954.209 28.96 954.209 32.1V38H952.529V32.14C952.529 30.16 951.629 29.26 950.029 29.26C948.589 29.26 947.589 29.96 947.389 31.5V38H945.689V27.9H946.829L947.129 29C947.869 28.08 949.009 27.64 950.369 27.64ZM963.68 36.32H970.6V38H961.92V23.9H963.68V36.32ZM981.842 28.12C981.842 32.72 974.482 32.98 974.222 36.32H981.782V38H972.322V37.04C972.322 31.96 980.102 31.78 980.102 28.02V27.46C980.102 26.2 979.022 25.32 977.202 25.32C975.242 25.32 974.222 26.32 974.222 28.16V28.66H972.462V28.16C972.462 25.38 974.282 23.64 977.242 23.64C980.022 23.64 981.842 25.22 981.842 27.44V28.12Z" fill="#94A8FD"/>
<path d="M1198 0.5H1038C1032.75 0.5 1028.5 4.75329 1028.5 10V56.6C1028.5 61.8467 1032.75 66.1 1038 66.1H1198C1203.25 66.1 1207.5 61.8467 1207.5 56.6V10C1207.5 4.75329 1203.25 0.5 1198 0.5Z" stroke="#94A8FD"/>
<path d="M1063.26 23.9H1065.02V38H1063.26V31.9H1056.64V38H1054.88V23.9H1056.64V30.22H1063.26V23.9ZM1074.46 27.9H1076.14V38.96C1076.14 41.2 1074.7 42.86 1071.94 42.86C1069.34 42.86 1068.1 41.5 1067.92 39.76H1069.62C1069.82 40.74 1070.56 41.24 1071.92 41.24C1073.48 41.24 1074.46 40.42 1074.46 38.84V37.22C1073.78 37.92 1072.8 38.26 1071.68 38.26C1069.38 38.26 1067.96 36.92 1067.96 33.8V27.9H1069.66V33.76C1069.66 35.74 1070.42 36.64 1071.98 36.64C1073.36 36.64 1074.34 35.88 1074.46 34.2V27.9ZM1083.7 27.64C1086.18 27.64 1087.66 28.88 1087.66 31.9V34C1087.66 37.02 1086.18 38.26 1083.7 38.26C1082.48 38.26 1081.46 37.92 1080.76 37.2V42.6H1079.06V27.9H1080.24L1080.56 28.9C1081.26 28.06 1082.36 27.64 1083.7 27.64ZM1085.96 33.88V32C1085.96 30.08 1085.12 29.26 1083.4 29.26C1081.92 29.26 1080.96 29.96 1080.76 31.5V34.4C1080.96 35.94 1081.92 36.64 1083.4 36.64C1085.12 36.64 1085.96 35.82 1085.96 33.88ZM1094.05 27.64C1096.63 27.64 1098.25 29.16 1098.25 31.42V33.46H1091.49V33.92C1091.49 35.8 1092.33 36.78 1094.11 36.78C1095.57 36.78 1096.51 36.12 1096.51 34.88V34.76H1098.21C1098.21 37 1096.61 38.24 1094.15 38.24C1091.25 38.24 1089.81 36.5 1089.81 33.9V31.94C1089.81 29.34 1091.29 27.64 1094.05 27.64ZM1091.49 32.02H1096.53V31.44C1096.53 29.88 1095.69 29.1 1094.11 29.1C1092.29 29.1 1091.49 30.1 1091.49 31.94V32.02ZM1105.41 27.72C1105.59 27.72 1105.79 27.72 1105.99 27.74V29.3C1105.71 29.24 1105.41 29.2 1105.13 29.2C1103.69 29.2 1102.47 29.98 1102.47 31.64V38H1100.77V27.9H1101.95L1102.29 28.94C1103.03 28.14 1104.21 27.72 1105.41 27.72ZM1111.57 38.24C1108.83 38.24 1107.33 36.66 1107.33 34.06V31.82C1107.33 29.22 1108.81 27.64 1111.57 27.64C1114.17 27.64 1115.73 29.16 1115.73 31.6V31.8H1114.03V31.56C1114.03 30.04 1113.15 29.26 1111.57 29.26C1109.83 29.26 1109.03 30.14 1109.03 31.92V33.96C1109.03 35.74 1109.81 36.62 1111.57 36.62C1113.13 36.62 1114.03 35.84 1114.03 34.32V34.08H1115.73V34.28C1115.73 36.72 1114.19 38.24 1111.57 38.24ZM1122.95 27.64C1125.31 27.64 1126.79 28.96 1126.79 32.1V38H1125.11V32.14C1125.11 30.18 1124.19 29.26 1122.61 29.26C1121.17 29.26 1120.17 29.98 1119.97 31.52V38H1118.27V22.6H1119.97V28.72C1120.69 28 1121.73 27.64 1122.95 27.64ZM1136.68 27.9H1137.86V38H1136.68L1136.36 36.98C1135.64 37.84 1134.54 38.26 1133.2 38.26C1130.72 38.26 1129.26 37 1129.26 34V31.9C1129.26 28.88 1130.72 27.64 1133.2 27.64C1134.54 27.64 1135.64 28.06 1136.36 28.92L1136.68 27.9ZM1133.5 36.64C1135.04 36.64 1136.02 35.88 1136.16 34.2V31.68C1136.02 30.02 1135.06 29.26 1133.5 29.26C1131.8 29.26 1130.96 30.08 1130.96 32V33.88C1130.96 35.8 1131.8 36.64 1133.5 36.64ZM1140.77 26.32V24.24H1142.57V26.32H1140.77ZM1140.81 38V27.9H1142.51V38H1140.81ZM1150.18 27.64C1152.56 27.64 1154.02 28.96 1154.02 32.1V38H1152.34V32.14C1152.34 30.16 1151.44 29.26 1149.84 29.26C1148.4 29.26 1147.4 29.96 1147.2 31.5V38H1145.5V27.9H1146.64L1146.94 29C1147.68 28.08 1148.82 27.64 1150.18 27.64ZM1163.49 36.32H1170.41V38H1161.73V23.9H1163.49V36.32ZM1181.65 28.12C1181.65 32.72 1174.29 32.98 1174.03 36.32H1181.59V38H1172.13V37.04C1172.13 31.96 1179.91 31.78 1179.91 28.02V27.46C1179.91 26.2 1178.83 25.32 1177.01 25.32C1175.05 25.32 1174.03 26.32 1174.03 28.16V28.66H1172.27V28.16C1172.27 25.38 1174.09 23.64 1177.05 23.64C1179.83 23.64 1181.65 25.22 1181.65 27.44V28.12Z" fill="#94A8FD"/>
<path d="M1198 202.5H38C32.7533 202.5 28.5 206.753 28.5 212V300C28.5 305.247 32.7533 309.5 38 309.5H1198C1203.25 309.5 1207.5 305.247 1207.5 300V212C1207.5 206.753 1203.25 202.5 1198 202.5Z" stroke="#94A8FD"/>
<path d="M472.656 261.24C469.176 261.24 467.336 259.52 467.336 256.78V251.1C467.336 248.36 469.156 246.64 472.636 246.64C476.116 246.64 477.956 248.36 477.956 251.1V252.04H476.136V251.24C476.136 249.36 475.076 248.32 472.656 248.32C470.176 248.32 469.096 249.36 469.096 251.24V256.64C469.096 258.52 470.176 259.56 472.636 259.56C475.076 259.56 476.136 258.52 476.136 256.64V255.84H477.956V256.78C477.956 259.52 476.136 261.24 472.656 261.24ZM485.685 261.26C482.125 261.26 480.325 259.54 480.325 256.8V251.16C480.325 248.38 482.125 246.64 485.665 246.64C489.225 246.64 491.005 248.38 491.005 251.16V256.8C491.005 259.54 489.225 261.26 485.685 261.26ZM485.665 259.58C488.245 259.58 489.245 258.54 489.245 256.64V251.3C489.245 249.38 488.245 248.32 485.685 248.32C483.105 248.32 482.085 249.38 482.085 251.3V256.64C482.085 258.54 483.085 259.58 485.665 259.58ZM493.711 261V246.9H495.471V261H493.711ZM506.536 246.9H508.176V261H506.536L500.156 250.14V261H498.516V246.9H500.156L506.536 257.78V246.9ZM515.911 261.26C512.551 261.26 510.671 259.48 510.671 256.98V256.44H512.431V257.08C512.431 258.58 513.791 259.6 515.951 259.6C517.971 259.6 519.291 258.68 519.291 257.16C519.291 253.48 510.991 255.48 510.991 250.5C510.991 248.36 512.471 246.64 515.791 246.64C519.111 246.64 520.751 248.32 520.751 250.7V251.32H519.011V250.64C519.011 249.28 517.831 248.32 515.791 248.32C513.851 248.32 512.751 249.16 512.751 250.46C512.751 253.66 521.031 251.92 521.051 257.08C521.071 259.44 519.311 261.26 515.911 261.26ZM532.195 248.56H525.335V253.22H531.295V254.9H525.335V259.32H532.195V261H523.575V246.9H532.195V248.56ZM539.746 261.24C536.266 261.24 534.426 259.52 534.426 256.78V251.1C534.426 248.36 536.246 246.64 539.726 246.64C543.206 246.64 545.046 248.36 545.046 251.1V252.04H543.226V251.24C543.226 249.36 542.166 248.32 539.746 248.32C537.266 248.32 536.186 249.36 536.186 251.24V256.64C536.186 258.52 537.266 259.56 539.726 259.56C542.166 259.56 543.226 258.52 543.226 256.64V255.84H545.046V256.78C545.046 259.52 543.226 261.24 539.746 261.24ZM551.839 255.52C551.839 254.427 551.939 253.36 552.139 252.32C552.352 251.28 552.679 250.287 553.119 249.34C553.559 248.393 554.112 247.52 554.779 246.72H556.439C555.826 247.547 555.306 248.44 554.879 249.4C554.466 250.36 554.152 251.353 553.939 252.38C553.726 253.407 553.619 254.447 553.619 255.5C553.619 256.527 553.726 257.547 553.939 258.56C554.152 259.573 554.466 260.547 554.879 261.48C555.292 262.427 555.806 263.32 556.419 264.16H554.779C554.112 263.373 553.559 262.513 553.119 261.58C552.679 260.66 552.352 259.687 552.139 258.66C551.939 257.633 551.839 256.587 551.839 255.52ZM563.255 261.26C559.895 261.26 558.015 259.48 558.015 256.98V256.44H559.775V257.08C559.775 258.58 561.135 259.6 563.295 259.6C565.315 259.6 566.635 258.68 566.635 257.16C566.635 253.48 558.335 255.48 558.335 250.5C558.335 248.36 559.815 246.64 563.135 246.64C566.455 246.64 568.095 248.32 568.095 250.7V251.32H566.355V250.64C566.355 249.28 565.175 248.32 563.135 248.32C561.195 248.32 560.095 249.16 560.095 250.46C560.095 253.66 568.375 251.92 568.395 257.08C568.415 259.44 566.655 261.26 563.255 261.26ZM579.538 248.56H572.678V253.22H578.638V254.9H572.678V259.32H579.538V261H570.918V246.9H579.538V248.56ZM587.09 261.24C583.61 261.24 581.77 259.52 581.77 256.78V251.1C581.77 248.36 583.59 246.64 587.07 246.64C590.55 246.64 592.39 248.36 592.39 251.1V252.04H590.57V251.24C590.57 249.36 589.51 248.32 587.09 248.32C584.61 248.32 583.53 249.36 583.53 251.24V256.64C583.53 258.52 584.61 259.56 587.07 259.56C589.51 259.56 590.57 258.52 590.57 256.64V255.84H592.39V256.78C592.39 259.52 590.57 261.24 587.09 261.24ZM598.778 255.52C598.778 256.587 598.671 257.633 598.458 258.66C598.258 259.687 597.938 260.66 597.498 261.58C597.071 262.513 596.518 263.373 595.838 264.16H594.198C594.811 263.32 595.325 262.427 595.738 261.48C596.151 260.547 596.465 259.573 596.678 258.56C596.891 257.547 596.998 256.527 596.998 255.5C596.998 254.447 596.891 253.407 596.678 252.38C596.465 251.353 596.151 250.36 595.738 249.4C595.325 248.44 594.805 247.547 594.178 246.72H595.838C596.518 247.52 597.071 248.393 597.498 249.34C597.938 250.287 598.258 251.28 598.458 252.32C598.671 253.36 598.778 254.427 598.778 255.52ZM610.599 261.26C607.239 261.26 605.359 259.48 605.359 256.98V256.44H607.119V257.08C607.119 258.58 608.479 259.6 610.639 259.6C612.659 259.6 613.979 258.68 613.979 257.16C613.979 253.48 605.679 255.48 605.679 250.5C605.679 248.36 607.159 246.64 610.479 246.64C613.799 246.64 615.439 248.32 615.439 250.7V251.32H613.699V250.64C613.699 249.28 612.519 248.32 610.479 248.32C608.539 248.32 607.439 249.16 607.439 250.46C607.439 253.66 615.719 251.92 615.739 257.08C615.759 259.44 613.999 261.26 610.599 261.26ZM622.062 250.64C624.642 250.64 626.262 252.16 626.262 254.42V256.46H619.502V256.92C619.502 258.8 620.342 259.78 622.122 259.78C623.582 259.78 624.522 259.12 624.522 257.88V257.76H626.222C626.222 260 624.622 261.24 622.162 261.24C619.262 261.24 617.822 259.5 617.822 256.9V254.94C617.822 252.34 619.302 250.64 622.062 250.64ZM619.502 255.02H624.542V254.44C624.542 252.88 623.702 252.1 622.122 252.1C620.302 252.1 619.502 253.1 619.502 254.94V255.02ZM632.808 259.38H633.688V261H632.448C630.188 261 629.048 259.92 629.048 257.5V252.5H627.688V250.9H629.048V247.94H630.748V250.9H633.508V252.5H630.748V257.12C630.748 258.74 631.428 259.38 632.808 259.38ZM639.566 259.38H640.446V261H639.206C636.946 261 635.806 259.92 635.806 257.5V252.5H634.446V250.9H635.806V247.94H637.506V250.9H640.266V252.5H637.506V257.12C637.506 258.74 638.186 259.38 639.566 259.38ZM642.344 245.6H644.044V261H642.344V245.6ZM650.89 250.64C653.47 250.64 655.09 252.16 655.09 254.42V256.46H648.33V256.92C648.33 258.8 649.17 259.78 650.95 259.78C652.41 259.78 653.35 259.12 653.35 257.88V257.76H655.05C655.05 260 653.45 261.24 650.99 261.24C648.09 261.24 646.65 259.5 646.65 256.9V254.94C646.65 252.34 648.13 250.64 650.89 250.64ZM648.33 255.02H653.37V254.44C653.37 252.88 652.53 252.1 650.95 252.1C649.13 252.1 648.33 253.1 648.33 254.94V255.02ZM667.896 250.64C670.176 250.64 671.416 252.04 671.416 255.1V261H669.716V255.06C669.716 253.2 668.956 252.26 667.636 252.26C666.436 252.26 665.536 253.02 665.376 254.6V255.02V261H663.676V255.06C663.676 253.2 662.916 252.26 661.576 252.26C660.396 252.26 659.496 253.02 659.316 254.48V261H657.616V250.9H658.756L659.056 251.94C659.716 251.08 660.716 250.64 661.836 250.64C663.276 250.64 664.296 251.18 664.856 252.32C665.496 251.2 666.636 250.64 667.896 250.64ZM678.097 250.64C680.677 250.64 682.297 252.16 682.297 254.42V256.46H675.537V256.92C675.537 258.8 676.377 259.78 678.157 259.78C679.617 259.78 680.557 259.12 680.557 257.88V257.76H682.257C682.257 260 680.657 261.24 678.197 261.24C675.297 261.24 673.857 259.5 673.857 256.9V254.94C673.857 252.34 675.337 250.64 678.097 250.64ZM675.537 255.02H680.577V254.44C680.577 252.88 679.737 252.1 678.157 252.1C676.337 252.1 675.537 253.1 675.537 254.94V255.02ZM689.503 250.64C691.883 250.64 693.343 251.96 693.343 255.1V261H691.663V255.14C691.663 253.16 690.763 252.26 689.163 252.26C687.723 252.26 686.723 252.96 686.523 254.5V261H684.823V250.9H685.963L686.263 252C687.003 251.08 688.143 250.64 689.503 250.64ZM700.21 259.38H701.09V261H699.85C697.59 261 696.45 259.92 696.45 257.5V252.5H695.09V250.9H696.45V247.94H698.15V250.9H700.91V252.5H698.15V257.12C698.15 258.74 698.83 259.38 700.21 259.38ZM709.573 259.32H716.493V261H707.813V246.9H709.573V259.32ZM725.594 250.9H726.774V261H725.594L725.274 259.98C724.554 260.84 723.454 261.26 722.114 261.26C719.634 261.26 718.174 260 718.174 257V254.9C718.174 251.88 719.634 250.64 722.114 250.64C723.454 250.64 724.554 251.06 725.274 251.92L725.594 250.9ZM722.414 259.64C723.954 259.64 724.934 258.88 725.074 257.2V254.68C724.934 253.02 723.974 252.26 722.414 252.26C720.714 252.26 719.874 253.08 719.874 255V256.88C719.874 258.8 720.714 259.64 722.414 259.64ZM736.147 250.9H737.827V261.96C737.827 264.2 736.387 265.86 733.627 265.86C731.027 265.86 729.787 264.5 729.607 262.76H731.307C731.507 263.74 732.247 264.24 733.607 264.24C735.167 264.24 736.147 263.42 736.147 261.84V260.22C735.467 260.92 734.487 261.26 733.367 261.26C731.067 261.26 729.647 259.92 729.647 256.8V250.9H731.347V256.76C731.347 258.74 732.107 259.64 733.667 259.64C735.047 259.64 736.027 258.88 736.147 257.2V250.9ZM744.601 250.64C747.181 250.64 748.801 252.16 748.801 254.42V256.46H742.041V256.92C742.041 258.8 742.881 259.78 744.661 259.78C746.121 259.78 747.061 259.12 747.061 257.88V257.76H748.761C748.761 260 747.161 261.24 744.701 261.24C741.801 261.24 740.361 259.5 740.361 256.9V254.94C740.361 252.34 741.841 250.64 744.601 250.64ZM742.041 255.02H747.081V254.44C747.081 252.88 746.241 252.1 744.661 252.1C742.841 252.1 742.041 253.1 742.041 254.94V255.02ZM755.967 250.72C756.147 250.72 756.347 250.72 756.547 250.74V252.3C756.267 252.24 755.967 252.2 755.687 252.2C754.247 252.2 753.027 252.98 753.027 254.64V261H751.327V250.9H752.507L752.847 251.94C753.587 251.14 754.767 250.72 755.967 250.72ZM767.398 259.32H770.278V261H762.778V259.32H765.638V248.56H762.778V246.9H767.398V259.32Z" fill="#94A8FD"/>
<path d="M963 132.5H273C267.753 132.5 263.5 136.753 263.5 142V192C263.5 197.247 267.753 201.5 273 201.5H963C968.247 201.5 972.5 197.247 972.5 192V142C972.5 136.753 968.247 132.5 963 132.5Z" stroke="#94A8FD"/>
<path d="M561.427 172.26C558.067 172.26 556.187 170.48 556.187 167.98V167.44H557.947V168.08C557.947 169.58 559.307 170.6 561.467 170.6C563.487 170.6 564.807 169.68 564.807 168.16C564.807 164.48 556.507 166.48 556.507 161.5C556.507 159.36 557.987 157.64 561.307 157.64C564.627 157.64 566.267 159.32 566.267 161.7V162.32H564.527V161.64C564.527 160.28 563.347 159.32 561.307 159.32C559.367 159.32 558.267 160.16 558.267 161.46C558.267 164.66 566.547 162.92 566.567 168.08C566.587 170.44 564.827 172.26 561.427 172.26ZM573.71 161.64C576.07 161.64 577.55 162.96 577.55 166.1V172H575.87V166.14C575.87 164.18 574.95 163.26 573.37 163.26C571.93 163.26 570.93 163.98 570.73 165.52V172H569.03V156.6H570.73V162.72C571.45 162 572.49 161.64 573.71 161.64ZM587.438 161.9H588.618V172H587.438L587.118 170.98C586.398 171.84 585.298 172.26 583.958 172.26C581.478 172.26 580.018 171 580.018 168V165.9C580.018 162.88 581.478 161.64 583.958 161.64C585.298 161.64 586.398 162.06 587.118 162.92L587.438 161.9ZM584.258 170.64C585.798 170.64 586.778 169.88 586.918 168.2V165.68C586.778 164.02 585.818 163.26 584.258 163.26C582.558 163.26 581.718 164.08 581.718 166V167.88C581.718 169.8 582.558 170.64 584.258 170.64ZM596.17 161.72C596.35 161.72 596.55 161.72 596.75 161.74V163.3C596.47 163.24 596.17 163.2 595.89 163.2C594.45 163.2 593.23 163.98 593.23 165.64V172H591.53V161.9H592.71L593.05 162.94C593.79 162.14 594.97 161.72 596.17 161.72ZM602.324 161.64C604.904 161.64 606.524 163.16 606.524 165.42V167.46H599.764V167.92C599.764 169.8 600.604 170.78 602.384 170.78C603.844 170.78 604.784 170.12 604.784 168.88V168.76H606.484C606.484 171 604.884 172.24 602.424 172.24C599.524 172.24 598.084 170.5 598.084 167.9V165.94C598.084 163.34 599.564 161.64 602.324 161.64ZM599.764 166.02H604.804V165.44C604.804 163.88 603.964 163.1 602.384 163.1C600.564 163.1 599.764 164.1 599.764 165.94V166.02ZM615.57 156.6H617.25V172H616.07L615.75 170.98C615.05 171.84 613.95 172.26 612.61 172.26C610.13 172.26 608.67 171.02 608.67 168V165.9C608.67 162.88 610.13 161.64 612.61 161.64C613.83 161.64 614.87 161.98 615.57 162.7V156.6ZM612.91 170.64C614.45 170.64 615.43 169.88 615.57 168.2V165.68C615.43 164.02 614.47 163.26 612.91 163.26C611.21 163.26 610.37 164.08 610.37 166V167.88C610.37 169.82 611.21 170.64 612.91 170.64ZM633.168 164.54C634.288 165.08 634.948 166.14 634.948 167.38V168.44C634.948 170.6 633.328 172 630.968 172H625.028V157.9H630.488C632.868 157.9 634.488 159.04 634.488 161.12V162.06C634.488 163.14 634.008 164 633.168 164.54ZM630.528 159.52H626.788V163.9H630.528C631.868 163.9 632.728 163.38 632.728 162.04V161.18C632.728 160 631.868 159.52 630.528 159.52ZM633.188 168.44V167.42C633.188 166.18 632.388 165.5 631.008 165.5H626.788V170.38H630.988C632.388 170.38 633.188 169.68 633.188 168.44ZM642.108 161.72C642.288 161.72 642.488 161.72 642.688 161.74V163.3C642.408 163.24 642.108 163.2 641.828 163.2C640.388 163.2 639.168 163.98 639.168 165.64V172H637.468V161.9H638.648L638.988 162.94C639.728 162.14 640.908 161.72 642.108 161.72ZM644.694 160.32V158.24H646.494V160.32H644.694ZM644.734 172V161.9H646.434V172H644.734ZM655.941 156.6H657.621V172H656.441L656.121 170.98C655.421 171.84 654.321 172.26 652.981 172.26C650.501 172.26 649.041 171.02 649.041 168V165.9C649.041 162.88 650.501 161.64 652.981 161.64C654.201 161.64 655.241 161.98 655.941 162.7V156.6ZM653.281 170.64C654.821 170.64 655.801 169.88 655.941 168.2V165.68C655.801 164.02 654.841 163.26 653.281 163.26C651.581 163.26 650.741 164.08 650.741 166V167.88C650.741 169.82 651.581 170.64 653.281 170.64ZM667.574 161.9H668.754V172.96C668.754 175.2 667.294 176.86 664.474 176.86C661.774 176.86 660.514 175.5 660.314 173.76H662.034C662.214 174.74 662.994 175.24 664.454 175.24C666.054 175.24 667.054 174.42 667.054 172.84V171.2C666.354 171.92 665.314 172.26 664.094 172.26C661.614 172.26 660.154 171.02 660.154 168V165.9C660.154 162.88 661.614 161.64 664.094 161.64C665.434 161.64 666.534 162.06 667.254 162.92L667.574 161.9ZM664.394 170.64C665.934 170.64 666.914 169.88 667.054 168.2V165.68C666.914 164.02 665.954 163.26 664.394 163.26C662.694 163.26 661.854 164.08 661.854 166V167.88C661.854 169.82 662.694 170.64 664.394 170.64ZM675.527 161.64C678.107 161.64 679.727 163.16 679.727 165.42V167.46H672.967V167.92C672.967 169.8 673.807 170.78 675.587 170.78C677.047 170.78 677.987 170.12 677.987 168.88V168.76H679.687C679.687 171 678.087 172.24 675.627 172.24C672.727 172.24 671.287 170.5 671.287 167.9V165.94C671.287 163.34 672.767 161.64 675.527 161.64ZM672.967 166.02H678.007V165.44C678.007 163.88 677.167 163.1 675.587 163.1C673.767 163.1 672.967 164.1 672.967 165.94V166.02Z" fill="#94A8FD"/>
<path d="M185 67L271 132" stroke="#94A8FD" stroke-opacity="0.5"/>
<path d="M346 67L424 132" stroke="#94A8FD" stroke-opacity="0.5"/>
<path d="M968 132L1049 67" stroke="#94A8FD" stroke-opacity="0.5"/>
<path d="M856 132L932 67" stroke="#94A8FD" stroke-opacity="0.5"/>
<path d="M518 67L563 132" stroke="#94A8FD" stroke-opacity="0.5"/>
<path d="M747 67L713 132" stroke="#94A8FD" stroke-opacity="0.5"/>
<path d="M610 35.5H626.125" stroke="#94A8FD" stroke-opacity="0.5"/>
<path d="M809 35.5H825.125" stroke="#94A8FD" stroke-opacity="0.5"/>
<path d="M1010 35.5H1026.12" stroke="#94A8FD" stroke-opacity="0.5"/>
<path d="M409 32.5H425.125" stroke="#94A8FD" stroke-opacity="0.5"/>
<path d="M210 32.5H226.125" stroke="#94A8FD" stroke-opacity="0.5"/>
</svg>
