<svg width="35" height="36" viewBox="0 0 35 36" fill="none" xmlns="http://www.w3.org/2000/svg">
<path fill-rule="evenodd" clip-rule="evenodd" d="M14.2944 1.29976C13.2268 1.47134 11.1623 2.19393 9.70652 2.90561C-1.04183 8.16002 -3.3453 22.5806 5.22275 30.9755C15.4188 40.9654 32.6601 35.1452 34.8111 20.9874C36.1677 12.0608 30.0358 3.31464 21.0951 1.42307C18.4443 0.862538 17.1611 0.839285 14.2944 1.29976ZM11.4453 9.23247C12.3484 10.3782 12.3696 11.1596 11.5261 12.1993C10.1572 13.8869 7.23612 12.7672 7.23612 10.5551C7.23612 8.44152 10.1106 7.53819 11.4453 9.23247ZM25.1635 15.5636C27.024 16.7794 27.3494 17.9424 27.3508 23.3832L27.3522 28.4213L25.323 28.3156L23.2937 28.2099L23.1173 23.8644C22.9641 20.0894 22.8508 19.4535 22.2558 19.0201C21.4593 18.4398 20.1704 18.374 19.249 18.8661C18.2365 19.4073 17.8235 21.159 17.8235 24.9154V28.386H15.8825H13.9415V21.6921V14.9981H15.8825C17.6234 14.9981 17.8235 15.0749 17.8235 15.7432C17.8235 16.4694 17.8475 16.4725 18.7637 15.8736C20.7665 14.5633 23.4349 14.434 25.1635 15.5636ZM11.824 21.6921V28.386H9.70652H7.58904V21.6921V14.9981H9.70652H11.824V21.6921Z" fill="#94ABFD"/>
</svg>
