<svg version="1.2" xmlns="http://www.w3.org/2000/svg" viewBox="0 0 157 50" width="157" height="50">
	<title>logo-svg</title>
	<style>
		.s0 { fill: none;stroke: #94a8fd } 
		.s1 { fill: #94a8fd } 
	</style>
	<path id="Layer" class="s0" d="m25 49.5c-13.5 0-24.5-11-24.5-24.5 0-13.5 11-24.5 24.5-24.5 13.5 0 24.5 11 24.5 24.5 0 13.5-11 24.5-24.5 24.5z"/>
	<path id="Layer" fill-rule="evenodd" class="s1" d="m9 27.1c-1.7 0-2.6-0.7-2.6-2v-1.9c0-1.2 0.9-2 2.6-2 1.7 0 2.6 0.8 2.6 2v0.3h-1.3v-0.2c0-0.6-0.4-1-1.3-1-0.9 0-1.4 0.4-1.4 1v1.7c0 0.6 0.5 1 1.4 1 0.9 0 1.3-0.4 1.3-1v-0.2h1.3v0.4c0 1.2-0.9 1.9-2.6 1.9zm6 0c-1.7 0-2.6-0.7-2.6-1.9v-2c0-1.2 0.9-2 2.6-2 1.7 0 2.7 0.8 2.7 2v2c0 1.2-1 1.9-2.7 1.9zm0-1.1c1 0 1.4-0.4 1.4-0.9v-1.8c0-0.6-0.4-1-1.4-1-0.9 0-1.4 0.4-1.4 1v1.7c0 0.6 0.4 1 1.4 1zm3.5 1v-5.7h1.3l-0.1 5.7zm5.7-5.7h1.2v5.7h-1.2l-2.3-3.5v3.5h-1.2v-5.7h1.2l2.3 3.6zm4.5 5.7c-1.6 0-2.4-0.7-2.4-1.8v-0.2h0.7v0.3c0 0.6 0.7 1.1 1.7 1.1 1 0 1.6-0.4 1.6-1.1 0.1-1.5-3.9-0.4-3.9-2.5 0-0.9 0.7-1.6 2.2-1.6 1.6 0 2.3 0.7 2.3 1.7v0.2h-0.7v-0.2c0-0.6-0.5-1-1.6-1-0.9 0-1.4 0.3-1.4 0.9 0 1.3 3.8 0.4 3.9 2.5 0 1-0.8 1.7-2.4 1.7zm7.5-5h-3.3v1.8h2.9v0.7h-2.9v1.8h3.3v0.6h-4v-5.6h4zm3.4 5.1c-1.6 0-2.4-0.7-2.4-2v-1.9c0-1.2 0.8-2 2.4-2 1.7 0 2.5 0.8 2.5 2v0.2h-0.8v-0.1c0-0.9-0.4-1.4-1.6-1.4-1.3 0-1.8 0.5-1.8 1.4v1.8c0 0.8 0.5 1.3 1.7 1.3 1.2 0 1.7-0.5 1.7-1.3v-0.2h0.8v0.2c0 1.3-0.8 2-2.5 2z"/>
	<path id="Layer" fill-rule="evenodd" class="s1" d="m42.1 18.9q0-0.2 0.1-0.4 0.1-0.2 0.2-0.3 0.2-0.2 0.4-0.3 0.2-0.1 0.4-0.1 0.2 0 0.4 0.1 0.2 0.1 0.3 0.3 0.2 0.1 0.2 0.3 0.1 0.2 0.1 0.4 0 0.3-0.1 0.5 0 0.2-0.2 0.3-0.1 0.2-0.3 0.2-0.2 0.1-0.4 0.1-0.2 0-0.4-0.1-0.2 0-0.4-0.2-0.1-0.1-0.2-0.3-0.1-0.2-0.1-0.5zm0.2 0q0 0.2 0.1 0.4 0 0.2 0.2 0.3 0.1 0.1 0.2 0.2 0.2 0.1 0.4 0.1 0.2 0 0.3-0.1 0.2-0.1 0.3-0.2 0.1-0.1 0.2-0.3 0-0.2 0-0.4 0-0.2 0-0.3-0.1-0.2-0.2-0.3-0.1-0.1-0.3-0.2-0.1-0.1-0.3-0.1-0.2 0-0.4 0.1-0.1 0.1-0.2 0.2-0.2 0.1-0.2 0.3-0.1 0.1-0.1 0.3zm0.9 0.1q0.1 0 0.2 0.1 0 0 0 0.2 0 0.1 0 0.1 0 0.1 0 0.1h0.3q-0.1 0-0.1-0.1 0 0 0-0.1v-0.1q0-0.1-0.1-0.2 0 0 0-0.1-0.1 0.1-0.2 0.1 0 0 0 0 0 0 0 0 0 0 0 0 0 0 0 0-0.1 0-0.1 0zm-0.2 0v0.5h-0.2v-1.2h0.4q0.1 0 0.2 0 0.1 0.1 0.2 0.2 0 0 0 0.2 0 0.1 0 0.1 0 0.1-0.1 0.1 0 0 0 0-0.1 0-0.3 0v0.1zm0 0v-0.1h-0.1v0.1zm0.3-0.1q0 0 0.1-0.1 0 0 0.1 0 0-0.1 0-0.1 0-0.1 0-0.1-0.1-0.1-0.1-0.1-0.1 0-0.2 0h-0.2v0.4z"/>
	<path id="Layer" fill-rule="evenodd" class="s1" d="m71.6 30.3c-3.6 0-5.8-1.8-5.8-4.5v-5.8c0-2.7 2.2-4.5 5.8-4.5 3.6 0 5.7 1.8 5.7 4.6v1.2h-3.2v-1.1c0-1.1-0.9-1.9-2.5-1.9-1.7 0-2.7 0.7-2.7 1.9v5.4c0 1.2 0.9 1.9 2.7 1.9 1.6 0 2.5-0.7 2.5-1.9v-1.1h3.2v1.3c0 2.7-2.2 4.5-5.7 4.5zm13.2 0c-3.7 0-5.8-1.8-5.8-4.5v-5.7c0-2.8 2.1-4.6 5.8-4.6 3.6 0 5.8 1.8 5.8 4.6v5.7c0 2.7-2.2 4.5-5.8 4.5zm0-2.8c1.8 0 2.7-0.7 2.7-1.9v-5.4c0-1.1-0.9-1.9-2.7-1.9-1.9 0-2.7 0.8-2.7 1.9v5.4c0 1.2 0.8 1.9 2.7 1.9zm7.6 2.5v-14.2h3.1v14.2zm12.8-14.2l2.9 0.1v14.2l-2.9-0.1-4.8-8.5v8.5h-2.9v-14.2h2.9l4.8 8.6zm11 14.5c-3.9 0-6-1.9-6-4.5v-0.5h1.7v0.5c0 1.6 1.6 2.8 4.3 2.8 2.5 0 4.1-1 4.1-2.6 0-3.8-9.8-1.1-9.8-6.4 0-2.1 1.6-3.9 5.5-3.9 3.9 0 5.7 1.8 5.7 4.3v0.5h-1.8v-0.5c0-1.5-1.4-2.7-3.9-2.7-2.4 0-3.7 1-3.7 2.3 0 3.3 9.7 1 9.7 6.4 0.1 2.3-1.9 4.3-5.8 4.3zm18.7-12.7h-8.3v4.7h7.4v1.6h-7.4v4.5h8.2v1.6h-10l0.1-14.1h10zm8.6 12.7c-4.1 0-6.1-1.8-6.1-4.8v-4.9c0-3.1 2-4.9 6.1-4.9 4.2 0 6.1 1.9 6.1 4.9v0.5h-1.9v-0.3c0-2.2-1.2-3.4-4.2-3.4-3.1 0-4.3 1.2-4.3 3.4v4.5c0 2.2 1.2 3.3 4.3 3.4 3 0 4.2-1.2 4.2-3.4v-0.4h1.9v0.6c0 3-2 4.8-6.1 4.8z"/>
</svg>