<svg width="1108" height="200" viewBox="0 0 1108 200" fill="none" xmlns="http://www.w3.org/2000/svg">
<g clip-path="url(#clip0_6_3384)">
<path d="M170.886 80.9387L169.873 80.9376L169.865 80.3282L170.769 80.3292C170.907 80.3262 171.035 80.3045 171.154 80.264C171.273 80.2204 171.368 80.158 171.44 80.0768C171.512 79.9925 171.548 79.8894 171.548 79.7676C171.548 79.6144 171.522 79.4925 171.469 79.4019C171.419 79.3112 171.332 79.247 171.207 79.2094C171.085 79.1686 170.919 79.1482 170.71 79.148L170.086 79.1472L170.083 82.5175L169.403 82.5167L169.407 78.5418L170.711 78.5432C171.02 78.5435 171.287 78.5891 171.512 78.68C171.74 78.7678 171.915 78.9024 172.036 79.0838C172.161 79.262 172.224 79.4856 172.223 79.7544C172.223 79.9231 172.184 80.073 172.106 80.2041C172.027 80.3353 171.912 80.4492 171.758 80.5459C171.608 80.6395 171.424 80.7159 171.205 80.775C171.196 80.775 171.185 80.7859 171.172 80.8078C171.163 80.8296 171.153 80.8406 171.144 80.8406C171.091 80.8717 171.056 80.8951 171.041 80.9107C171.028 80.9232 171.014 80.931 170.998 80.9341C170.986 80.9372 170.948 80.9388 170.886 80.9387ZM170.839 80.9386L170.938 80.4747C171.426 80.4752 171.758 80.5819 171.936 80.7946C172.114 81.0041 172.203 81.2714 172.202 81.5964V81.8496C172.202 81.9652 172.207 82.0762 172.216 82.1825C172.228 82.2856 172.25 82.373 172.281 82.445V82.52L171.583 82.5193C171.551 82.438 171.533 82.3223 171.527 82.1723C171.524 82.0223 171.522 81.9129 171.522 81.8441L171.523 81.6005C171.523 81.3723 171.472 81.205 171.369 81.0986C171.266 80.9924 171.089 80.9389 170.839 80.9386ZM167.994 80.5839C167.994 80.9995 168.064 81.3871 168.204 81.7466C168.347 82.103 168.547 82.4158 168.803 82.6848C169.059 82.9507 169.354 83.1589 169.688 83.3092C170.025 83.4565 170.385 83.5303 170.766 83.5308C171.15 83.5312 171.51 83.4582 171.844 83.3117C172.179 83.162 172.473 82.9545 172.726 82.6892C172.98 82.4207 173.178 82.1086 173.323 81.7525C173.467 81.3933 173.539 81.0058 173.539 80.5902C173.54 80.1746 173.469 79.7885 173.325 79.4321C173.182 79.0756 172.984 78.7645 172.731 78.4986C172.478 78.2327 172.185 78.0261 171.85 77.8788C171.516 77.7285 171.157 77.6532 170.772 77.6527C170.391 77.6523 170.032 77.7269 169.694 77.8765C169.36 78.023 169.064 78.2288 168.807 78.4942C168.551 78.7595 168.351 79.0702 168.206 79.4263C168.065 79.7824 167.995 80.1683 167.994 80.5839ZM167.441 80.5833C167.442 80.0864 167.528 79.6256 167.7 79.2008C167.873 78.7759 168.112 78.4059 168.419 78.0906C168.725 77.7722 169.079 77.5257 169.479 77.3512C169.882 77.1735 170.314 77.085 170.773 77.0855C171.232 77.0861 171.662 77.1756 172.062 77.3542C172.465 77.5296 172.818 77.7768 173.12 78.0959C173.426 78.4119 173.665 78.7825 173.836 79.2077C174.011 79.6329 174.098 80.0939 174.097 80.5907C174.097 81.0876 174.009 81.5485 173.833 81.9733C173.661 82.3981 173.421 82.7712 173.115 83.0928C172.811 83.4112 172.458 83.6592 172.055 83.8369C171.654 84.0146 171.225 84.1031 170.765 84.1026C170.306 84.1021 169.875 84.0126 169.472 83.834C169.072 83.6554 168.719 83.4066 168.413 83.0875C168.107 82.7653 167.869 82.3916 167.697 81.9664C167.526 81.5412 167.441 81.0802 167.441 80.5833Z" fill="#94A8FD"/>
<path d="M36.007 107.493C29.351 107.486 25.515 104.41 25.52 99.5778L25.529 91.7058C25.534 86.8738 29.346 83.8061 36.002 83.8135C42.658 83.821 46.462 86.8972 46.457 91.7292L46.455 93.1372L41.175 93.1313L41.176 92.1393C41.179 89.8033 39.421 88.2973 36.029 88.2935C32.413 88.2895 30.491 89.7913 30.488 92.1273L30.48 99.1673C30.478 101.503 32.364 103.009 35.98 103.013C39.404 103.017 41.166 101.515 41.168 99.1793L41.17 98.1873L46.45 98.1932L46.448 99.6012C46.443 104.433 42.631 107.501 36.007 107.493ZM60.105 107.52C53.289 107.513 49.452 104.436 49.457 99.6046L49.466 91.7326C49.472 86.9006 53.283 83.8329 60.099 83.8405C66.915 83.8482 70.72 86.9244 70.714 91.7564L70.705 99.6284C70.7 104.46 66.889 107.528 60.105 107.52ZM60.078 103.04C63.982 103.045 65.743 101.543 65.746 99.2069L65.754 92.1669C65.756 89.8309 63.998 88.3249 60.126 88.3206C56.222 88.3162 54.428 89.8182 54.426 92.1542L54.418 99.1942C54.415 101.53 56.174 103.036 60.078 103.04ZM74.019 107.056L74.045 84.3362L79.005 84.3417L78.979 107.062L74.019 107.056ZM96.718 84.3616L101.55 84.367L101.525 107.087L96.693 107.081L87.461 93.0872L87.445 107.071L82.613 107.066L82.638 84.3458L87.47 84.3512L96.703 98.4096L96.718 84.3616ZM114.743 107.518C108.439 107.511 105.082 104.467 105.087 100.307L105.088 99.507L107.904 99.5101L107.903 100.374C107.9 102.934 110.49 104.825 114.81 104.83C118.714 104.834 121.244 103.237 121.247 100.677C121.253 94.5651 105.601 98.8995 105.61 90.4195C105.614 87.0915 108.113 84.1183 114.385 84.1254C120.689 84.1324 123.534 87.0796 123.529 91.0476L123.528 91.9436L120.712 91.9405L120.713 91.0125C120.716 88.6125 118.478 86.818 114.35 86.8133C110.542 86.8091 108.46 88.3107 108.458 90.4227C108.452 95.7667 124.008 92.0082 124.095 100.648C124.122 104.424 121.047 107.525 114.743 107.518ZM144.594 87.2312L131.41 87.2165L131.402 94.6724L143.146 94.6856L143.143 97.3736L131.399 97.3604L131.391 104.432L144.575 104.447L144.572 107.135L128.572 107.117L128.597 84.5573L144.597 84.5752L144.594 87.2312ZM158.442 107.535C151.818 107.527 148.654 104.612 148.659 99.7798L148.668 91.9078C148.673 87.0758 151.845 84.1674 158.437 84.1747C165.061 84.1822 168.193 87.0977 168.188 91.9297L168.187 92.8257L165.211 92.8223L165.212 92.2783C165.215 88.7583 163.266 86.8682 158.466 86.8628C153.506 86.8572 151.487 88.743 151.484 92.263L151.475 99.431C151.472 102.951 153.485 104.841 158.413 104.847C163.245 104.852 165.2 102.966 165.203 99.4463L165.204 98.9023L168.18 98.9057L168.179 99.8017C168.174 104.634 165.034 107.542 158.442 107.535Z" fill="#94A8FD"/>
<path d="M102.288 114.72H103.6V126H102.288L97.184 117.312V126H95.872V114.72H97.184L102.288 123.424V114.72ZM112.069 117.712C114.133 117.712 115.429 118.928 115.429 120.736V122.368H110.021V122.736C110.021 124.24 110.693 125.024 112.117 125.024C113.285 125.024 114.037 124.496 114.037 123.504V123.408H115.397C115.397 125.2 114.117 126.192 112.149 126.192C109.829 126.192 108.677 124.8 108.677 122.72V121.152C108.677 119.072 109.861 117.712 112.069 117.712ZM110.021 121.216H114.053V120.752C114.053 119.504 113.381 118.88 112.117 118.88C110.661 118.88 110.021 119.68 110.021 121.152V121.216ZM123.665 124.704H124.369V126H123.377C121.569 126 120.657 125.136 120.657 123.2V119.2H119.569V117.92H120.657V115.552H122.017V117.92H124.225V119.2H122.017V122.896C122.017 124.192 122.561 124.704 123.665 124.704ZM136.856 117.92H138.248L136.184 126H134.792L133.064 120.576L131.336 126H129.944L127.88 117.92H129.256L130.76 124.512L132.504 117.92H133.608L135.352 124.544L136.856 117.92ZM145.695 126.208C143.423 126.208 142.239 124.928 142.239 122.848V121.056C142.239 118.976 143.423 117.712 145.679 117.712C147.951 117.712 149.135 118.976 149.135 121.056V122.848C149.135 124.928 147.951 126.208 145.695 126.208ZM145.679 124.912C147.135 124.912 147.775 124.192 147.775 122.768V121.136C147.775 119.712 147.151 119.008 145.695 119.008C144.239 119.008 143.599 119.712 143.599 121.136V122.768C143.599 124.192 144.223 124.912 145.679 124.912ZM157.88 117.776C158.024 117.776 158.184 117.776 158.344 117.792V119.04C158.12 118.992 157.88 118.96 157.656 118.96C156.504 118.96 155.528 119.584 155.528 120.912V126H154.168V117.92H155.112L155.384 118.752C155.976 118.112 156.92 117.776 157.88 117.776ZM169.717 117.92L165.765 121.584L169.717 126H168.069L164.341 121.904V126H162.981V113.68H164.341V121.264L168.005 117.92H169.717Z" fill="#94A8FD"/>
<path d="M100 199C154.676 199 199 154.676 199 100C199 45.3238 154.676 1 100 1C45.3238 1 1 45.3238 1 100C1 154.676 45.3238 199 100 199Z" stroke="#94A8FD" stroke-width="2"/>
<path d="M409 199C463.676 199 508 154.676 508 100C508 45.3238 463.676 1 409 1C354.324 1 310 45.3238 310 100C310 154.676 354.324 199 409 199Z" stroke="#94A8FD" stroke-width="2"/>
<path d="M354.973 97.0519C356.828 97.95 357.882 99.6472 357.88 101.631L357.878 103.327C357.874 106.783 355.248 109.02 351.376 109.016L339.76 109.003L339.785 86.4429L350.601 86.455C354.441 86.4593 357.095 88.2863 357.091 91.6143L357.089 93.1183C357.088 94.8143 356.35 96.1895 354.973 97.0519ZM350.598 89.047L342.598 89.038L342.59 96.046L350.59 96.055C352.798 96.0575 354.271 95.2271 354.274 93.0831L354.275 91.7071C354.277 89.8191 352.774 89.0494 350.598 89.047ZM355.062 103.324L355.064 101.692C355.066 99.708 353.723 98.6185 351.387 98.6159L342.587 98.606L342.579 106.414L351.379 106.424C353.715 106.427 355.06 105.308 355.062 103.324ZM374.27 92.8815L376.99 92.8846L376.971 109.045L375.083 109.043L374.606 107.058C373.42 108.689 371.499 109.455 369.067 109.452C364.971 109.447 362.381 107.172 362.388 101.604L362.398 92.8682L365.118 92.8713L365.108 101.511C365.104 105.159 366.574 106.857 369.55 106.86C372.142 106.863 373.935 105.489 374.259 102.546L374.27 92.8815ZM388.592 109.474C383.856 109.468 381.203 107.162 381.206 103.834L381.207 103.514L383.927 103.517L383.926 103.837C383.924 105.821 385.651 107.071 388.787 107.074C390.995 107.076 392.916 106.311 392.918 104.679C392.922 100.615 381.527 103.61 381.534 97.5617C381.537 94.4897 384.227 92.4767 388.387 92.4814C392.899 92.4864 395.393 94.7292 395.389 97.9932V98.3132L392.701 98.3102V97.9582C392.703 96.0702 391.201 94.8525 388.385 94.8494C385.793 94.8465 384.255 95.9007 384.254 97.3407C384.25 100.925 395.645 98.0895 395.638 104.458C395.634 107.882 392.272 109.478 388.592 109.474ZM399.842 90.3822L399.846 87.0542L402.726 87.0574L402.722 90.3854L399.842 90.3822ZM399.885 109.07L399.904 92.9103L402.623 92.9133L402.605 109.074L399.885 109.07ZM416.472 92.5128C420.76 92.5176 423.446 94.7607 423.44 100.361L423.43 109.097L420.71 109.094L420.72 100.454C420.724 96.7736 418.934 95.1076 415.894 95.1042C413.046 95.101 411.028 96.5387 410.8 99.7705L410.79 109.083L408.07 109.08L408.088 92.9194L410.008 92.9216L410.486 95.0021C411.768 93.3076 413.848 92.5099 416.472 92.5128ZM435.436 92.5341C440.012 92.5392 442.922 95.0705 442.918 98.6865L442.914 101.855L430.562 101.841C430.558 105.297 432.156 107.155 435.612 107.159C438.332 107.162 440.189 106.044 440.191 104.124L440.192 103.932L442.912 103.935C442.908 107.519 440.025 109.499 435.673 109.495C430.361 109.489 427.837 106.414 427.842 101.966L427.844 99.9496C427.849 95.5016 430.476 92.5285 435.436 92.5341ZM430.597 99.5047L440.165 99.5154V98.9074C440.168 96.2194 438.602 94.8736 435.594 94.8703C432.266 94.8665 430.76 96.5289 430.597 99.5047ZM453.811 109.547C449.075 109.542 446.421 107.235 446.425 103.907L446.426 103.587L449.146 103.59L449.145 103.91C449.143 105.894 450.87 107.144 454.006 107.147C456.214 107.15 458.134 106.384 458.136 104.752C458.141 100.688 446.745 103.683 446.752 97.6348C446.756 94.5628 449.446 92.5498 453.606 92.5545C458.118 92.5595 460.611 94.8023 460.608 98.0663L460.607 98.3863L457.919 98.3833L457.92 98.0313C457.922 96.1433 456.419 94.9256 453.603 94.9225C451.011 94.9196 449.474 95.9738 449.472 97.4138C449.468 100.998 460.864 98.1626 460.857 104.531C460.853 107.955 457.491 109.551 453.811 109.547ZM471.28 109.566C466.544 109.561 463.89 107.254 463.894 103.926V103.606L466.614 103.609V103.929C466.612 105.913 468.338 107.163 471.474 107.167C473.682 107.169 475.603 106.403 475.605 104.771C475.61 100.707 464.214 103.703 464.221 97.6544C464.224 94.5824 466.915 92.5694 471.075 92.574C475.587 92.5791 478.08 94.8219 478.076 98.0859V98.4059L475.388 98.4029L475.389 98.0509C475.391 96.1629 473.888 94.9452 471.072 94.942C468.48 94.9391 466.943 95.9934 466.941 97.4334C466.937 101.018 478.332 98.1822 478.325 104.55C478.321 107.974 474.96 109.571 471.28 109.566Z" fill="#94A8FD"/>
<path d="M230.584 97.376V92.832H259.896V97.376H230.584ZM230.584 110.112V105.568H259.896V110.112H230.584Z" fill="#94A8FD"/>
<path d="M706 199C760.676 199 805 154.676 805 100C805 45.3238 760.676 1 706 1C651.324 1 607 45.3238 607 100C607 154.676 651.324 199 706 199Z" stroke="#94A8FD" stroke-width="2"/>
<path d="M658.255 75.8551L647.543 75.8431L647.535 82.4471L657.337 82.4581L657.335 84.6421L647.533 84.6311L647.525 92.0151L645.237 92.0125L645.257 73.6825L658.257 73.6971L658.255 75.8551ZM661.605 76.8468L661.608 74.1428L663.948 74.1455L663.945 76.8495L661.605 76.8468ZM661.64 92.0309L661.654 78.9009L663.864 78.9034L663.85 92.0334L661.64 92.0309ZM675.117 78.578C678.601 78.5819 680.782 80.4043 680.777 84.9543L680.769 92.0523L678.559 92.0499L678.567 85.0299C678.571 82.0399 677.116 80.6862 674.646 80.6835C672.332 80.6809 670.693 81.849 670.508 84.4748L670.499 92.0408L668.289 92.0383L668.304 78.9084L669.864 78.9101L670.252 80.6005C671.294 79.2237 672.985 78.5756 675.117 78.578ZM695.412 78.9387L696.972 78.9405L696.958 92.0705L695.398 92.0687L694.931 90.5342C693.916 91.8071 692.277 92.4032 690.145 92.4008C686.531 92.3968 684.349 90.7303 684.354 86.4144L684.356 84.5684C684.361 80.2524 686.547 78.5908 690.161 78.5949C692.293 78.5972 693.93 79.1971 694.943 80.4722L695.412 78.9387ZM690.564 90.2953C693.06 90.2981 694.569 89.1038 694.754 86.504L694.756 84.502C694.577 81.8758 693.096 80.7041 690.574 80.7013C687.922 80.6983 686.569 81.8928 686.566 84.7788L686.564 86.2088C686.561 89.0688 687.912 90.2923 690.564 90.2953ZM708.099 78.615C711.583 78.6189 713.765 80.4413 713.76 84.9913L713.752 92.0893L711.542 92.0868L711.55 85.0668C711.553 82.0768 710.099 80.7232 707.629 80.7204C705.315 80.7178 703.675 81.886 703.49 84.5118L703.482 92.0778L701.272 92.0753L701.287 78.9453L702.847 78.9471L703.235 80.6375C704.276 79.2607 705.967 78.6126 708.099 78.615ZM723.544 92.4123C719.462 92.4077 717.332 90.2213 717.336 86.6073L717.339 84.4233C717.343 80.8093 719.477 78.6277 723.533 78.6323C727.329 78.6365 729.615 80.6931 729.611 83.9951V84.0471L727.375 84.0446V83.9926C727.378 81.8606 726.027 80.7411 723.557 80.7383C720.775 80.7352 719.551 82.0598 719.548 84.6338L719.546 86.4018C719.544 89.0018 720.738 90.3031 723.52 90.3063C725.99 90.309 727.369 89.1926 727.372 87.0606V87.0086L729.608 87.0111V87.0631C729.604 90.3651 727.314 92.4165 723.544 92.4123ZM733.384 76.9273L733.387 74.2233L735.727 74.2259L735.724 76.9299L733.384 76.9273ZM733.419 92.1113L733.433 78.9814L735.643 78.9838L735.629 92.1138L733.419 92.1113ZM750.535 79.0005L752.095 79.0023L752.081 92.1323L750.521 92.1305L750.054 90.596C749.039 91.8689 747.4 92.465 745.268 92.4626C741.654 92.4586 739.472 90.7921 739.477 86.4761L739.479 84.6301C739.484 80.3141 741.67 78.6526 745.284 78.6566C747.416 78.659 749.053 79.2589 750.066 80.534L750.535 79.0005ZM745.687 90.3571C748.183 90.3599 749.692 89.1656 749.877 86.5658L749.879 84.5638C749.7 81.9376 748.219 80.7659 745.697 80.7631C743.045 80.7601 741.692 81.9546 741.689 84.8406L741.687 86.2706C741.684 89.1306 743.035 90.3541 745.687 90.3571ZM756.521 72.1172L758.731 72.1197L758.709 92.1397L756.499 92.1372L756.521 72.1172ZM636.188 123.002L636.209 104.672L638.497 104.675L638.476 123.005L636.188 123.002ZM649.691 109.55C653.175 109.554 655.357 111.376 655.352 115.926L655.344 123.024L653.134 123.021L653.142 116.001C653.145 113.011 651.691 111.658 649.221 111.655C646.907 111.652 645.267 112.821 645.083 115.446L645.074 123.012L642.864 123.01L642.879 109.88L644.439 109.882L644.827 111.572C645.868 110.195 647.559 109.547 649.691 109.55ZM664.642 123.372C660.794 123.368 658.638 121.494 658.641 118.79V118.53L660.851 118.532V118.792C660.849 120.404 662.252 121.42 664.8 121.423C666.594 121.425 668.155 120.802 668.156 119.476C668.16 116.174 658.901 118.608 658.907 113.694C658.91 111.198 661.095 109.562 664.475 109.566C668.141 109.57 670.167 111.393 670.164 114.045V114.305L667.98 114.302V114.016C667.982 112.482 666.761 111.493 664.473 111.49C662.367 111.488 661.118 112.344 661.117 113.514C661.114 116.426 670.372 114.123 670.366 119.297C670.363 122.079 667.632 123.376 664.642 123.372ZM679.332 120.945L680.632 120.946L680.63 123.052L679.018 123.05C675.794 123.047 674.001 121.511 674.005 118.521L674.012 111.995L672.218 111.993L672.22 109.913L674.014 109.915L674.019 106.067L676.229 106.069L676.224 109.917L680.254 109.922L680.252 112.002L676.222 111.997L676.215 118.003C676.213 119.979 677.33 120.943 679.332 120.945ZM683.507 107.872L683.51 105.168L685.85 105.17L685.847 107.874L683.507 107.872ZM683.542 123.056L683.557 109.926L685.767 109.928L685.752 123.058L683.542 123.056ZM695.811 120.963L697.111 120.965L697.108 123.071L695.496 123.069C692.272 123.065 690.48 121.529 690.483 118.539L690.491 112.013L688.697 112.011L688.699 109.931L690.493 109.933L690.497 106.085L692.707 106.088L692.703 109.936L696.733 109.94L696.731 112.02L692.701 112.016L692.694 118.022C692.692 119.998 693.809 120.961 695.811 120.963ZM709.473 109.955L711.683 109.957L711.669 123.087L710.135 123.085L709.747 121.473C708.783 122.798 707.222 123.42 705.246 123.418C701.918 123.414 699.814 121.566 699.82 117.042L699.827 109.944L702.037 109.946L702.03 116.966C702.026 119.93 703.221 121.31 705.639 121.312C707.745 121.315 709.202 120.198 709.465 117.807L709.473 109.955ZM721.607 120.992L722.907 120.994L722.905 123.1L721.293 123.098C718.069 123.094 716.277 121.558 716.28 118.568L716.287 112.042L714.493 112.04L714.496 109.96L716.29 109.962L716.294 106.114L718.504 106.117L718.5 109.965L722.53 109.969L722.527 112.049L718.497 112.045L718.491 118.051C718.488 120.027 719.605 120.99 721.607 120.992ZM725.783 107.919L725.786 105.215L728.126 105.218L728.123 107.922L725.783 107.919ZM725.818 123.103L725.832 109.973L728.042 109.975L728.028 123.105L725.818 123.103ZM738.187 123.455C734.001 123.45 731.872 121.238 731.876 117.624L731.878 115.44C731.882 111.826 734.017 109.644 738.203 109.649C742.389 109.654 744.518 111.84 744.514 115.454L744.512 117.638C744.508 121.252 742.399 123.46 738.187 123.455ZM738.19 121.349C741.102 121.352 742.299 120.027 742.302 117.427L742.304 115.659C742.307 113.085 741.112 111.758 738.2 111.755C735.314 111.752 734.091 113.076 734.088 115.65L734.086 117.418C734.083 120.018 735.278 121.346 738.19 121.349ZM755.062 109.668C758.546 109.672 760.728 111.494 760.723 116.044L760.715 123.142L758.505 123.14L758.513 116.12C758.516 113.13 757.062 111.776 754.592 111.773C752.278 111.771 750.639 112.939 750.454 115.565L750.445 123.131L748.235 123.128L748.25 109.998L749.81 110L750.198 111.69C751.239 110.313 752.93 109.665 755.062 109.668ZM770.013 123.49C766.165 123.486 764.009 121.612 764.012 118.908V118.648L766.222 118.65V118.91C766.22 120.522 767.623 121.538 770.171 121.541C771.965 121.543 773.526 120.92 773.527 119.594C773.531 116.292 764.272 118.726 764.278 113.812C764.281 111.316 766.466 109.681 769.846 109.684C773.512 109.688 775.538 111.511 775.535 114.163V114.423L773.351 114.42V114.134C773.353 112.6 772.132 111.611 769.844 111.608C767.738 111.606 766.489 112.463 766.488 113.633C766.485 116.545 775.743 114.241 775.738 119.415C775.734 122.197 773.003 123.494 770.013 123.49Z" fill="#94A8FD"/>
<path d="M556.544 100.168H569.28V104.712H556.544V117.896H551.936V104.712H539.2V100.168H551.936V86.9199H556.544V100.168Z" fill="#94A8FD"/>
<path d="M1008 199C1062.68 199 1107 154.676 1107 100C1107 45.3238 1062.68 1 1008 1C953.324 1 909 45.3238 909 100C909 154.676 953.324 199 1008 199Z" stroke="#94A8FD" stroke-width="2"/>
<path d="M946.72 95.0857L944.43 95.0831V94.9271C944.44 92.0671 942.72 90.5312 938.82 90.5268C934.87 90.5224 933.15 92.0545 933.15 94.9145L933.14 100.739C933.14 103.599 934.85 105.161 938.78 105.165C942.71 105.169 944.42 103.611 944.43 100.751V99.5551L938.24 99.5482V97.3902L946.72 97.3997L946.71 101.04C946.71 104.966 944.16 107.355 938.8 107.349C933.42 107.343 930.85 104.948 930.85 101.022L930.86 94.6259C930.87 90.6999 933.44 88.3368 938.8 88.3428C944.18 88.3488 946.73 90.7177 946.72 94.6437V95.0857ZM956.31 107.369C952.12 107.364 949.99 105.152 949.99 101.538L950 99.3533C950 95.7393 952.14 93.5577 956.32 93.5624C960.51 93.5671 962.64 95.7535 962.63 99.3675V101.552C962.63 105.166 960.52 107.373 956.31 107.369ZM956.31 105.263C959.22 105.266 960.42 103.941 960.42 101.341V99.573C960.43 96.999 959.23 95.6717 956.32 95.6684C953.43 95.6652 952.21 96.9898 952.21 99.5638L952.2 101.332C952.2 103.932 953.4 105.259 956.31 105.263ZM974.87 93.9212L977.16 93.9238L972.26 107.049L969.24 107.045L964.37 93.9095L966.66 93.912L970.83 104.889L974.87 93.9212ZM985.03 93.5946C988.75 93.5988 991.12 95.6554 991.11 98.5934V101.168L981.07 101.156C981.07 103.964 982.37 105.474 985.18 105.477C987.39 105.479 988.9 104.571 988.9 103.011V102.855L991.11 102.858C991.1 105.77 988.76 107.379 985.23 107.375C980.91 107.37 978.86 104.872 978.86 101.258L978.87 99.6197C978.87 96.0057 981 93.5901 985.03 93.5946ZM981.1 99.2582L988.88 99.2669V98.7729C988.88 96.5889 987.61 95.4955 985.16 95.4928C982.46 95.4897 981.23 96.8404 981.1 99.2582ZM1001.33 93.7169C1001.64 93.7172 1001.96 93.7176 1002.27 93.7439L1002.26 95.7719C1001.82 95.6674 1001.33 95.6149 1000.86 95.6144C998.83 95.6121 997.06 96.4941 997.06 98.9121L997.05 107.076L994.84 107.074L994.86 93.9436L996.42 93.9454L996.86 95.3759C997.9 94.259 999.56 93.7149 1001.33 93.7169ZM1012.18 93.625C1015.66 93.6289 1017.85 95.4514 1017.84 100.002L1017.83 107.1L1015.62 107.097L1015.63 100.077C1015.64 97.0869 1014.18 95.7333 1011.71 95.7305C1009.4 95.7279 1007.76 96.8961 1007.57 99.5219L1007.56 107.088L1005.35 107.086L1005.37 93.9554L1006.93 93.9572L1007.32 95.6476C1008.36 94.2708 1010.05 93.6227 1012.18 93.625ZM1036.85 93.6527C1040.23 93.6565 1042.04 95.6345 1042.04 100.029L1042.03 107.127L1039.82 107.124L1039.83 99.948C1039.83 97.218 1038.61 95.7607 1036.61 95.7584C1034.71 95.7563 1033.36 96.9768 1033.15 99.4465V100.019L1033.14 107.117L1030.93 107.114L1030.94 99.9381C1030.94 97.2081 1029.72 95.7507 1027.72 95.7485C1025.77 95.7463 1024.39 97.0707 1024.23 99.5405L1024.22 107.107L1022.01 107.104L1022.02 93.9741L1023.58 93.9758L1023.95 95.5362C1024.86 94.2633 1026.32 93.6409 1027.98 93.6427C1030.14 93.6452 1031.64 94.4529 1032.45 96.1698C1033.33 94.4808 1034.95 93.6506 1036.85 93.6527ZM1051.79 93.6694C1055.5 93.6736 1057.87 95.7303 1057.86 98.6682V101.242L1047.83 101.231C1047.82 104.039 1049.12 105.549 1051.93 105.552C1054.14 105.554 1055.65 104.646 1055.65 103.086V102.93L1057.86 102.932C1057.86 105.844 1055.51 107.454 1051.98 107.45C1047.66 107.445 1045.61 104.947 1045.62 101.333V99.6945C1045.62 96.0805 1047.76 93.6649 1051.79 93.6694ZM1047.85 99.333L1055.63 99.3417V98.8477C1055.63 96.6637 1054.36 95.5703 1051.91 95.5676C1049.21 95.5645 1047.99 96.9152 1047.85 99.333ZM1068.42 93.6881C1071.91 93.692 1074.09 95.5144 1074.08 100.065L1074.07 107.163L1071.86 107.16L1071.87 100.14C1071.88 97.15 1070.42 95.7963 1067.95 95.7936C1065.64 95.791 1064 96.9591 1063.81 99.5849L1063.8 107.151L1061.59 107.149L1061.61 94.0184L1063.17 94.0202L1063.56 95.7106C1064.6 94.3338 1066.29 93.6857 1068.42 93.6881ZM1083.87 105.068L1085.17 105.069V107.175L1083.55 107.173C1080.33 107.17 1078.54 105.634 1078.54 102.644L1078.55 96.1174L1076.75 96.1154L1076.76 94.0354L1078.55 94.0374L1078.56 90.1894L1080.77 90.1919L1080.76 94.0399L1084.79 94.0444V96.1244L1080.76 96.1199L1080.75 102.126C1080.75 104.102 1081.87 105.065 1083.87 105.068Z" fill="#94A8FD"/>
<path d="M853.544 98.1679H866.28V102.712H853.544V115.896H848.936V102.712H836.2V98.1679H848.936V84.9199H853.544V98.1679Z" fill="#94A8FD"/>
</g>
<defs>
<clipPath id="clip0_6_3384">
<rect width="1108" height="200" fill="white"/>
</clipPath>
</defs>
</svg>
