<svg width="1108" height="200" viewBox="0 0 1108 200" fill="none" xmlns="http://www.w3.org/2000/svg">
<g clip-path="url(#clip0_6_3369)">
<path d="M170.886 80.9387L169.873 80.9376L169.865 80.3282L170.769 80.3292C170.907 80.3262 171.035 80.3045 171.154 80.264C171.273 80.2204 171.368 80.158 171.44 80.0768C171.512 79.9925 171.548 79.8894 171.548 79.7676C171.548 79.6144 171.522 79.4925 171.469 79.4019C171.419 79.3112 171.332 79.247 171.207 79.2094C171.085 79.1686 170.919 79.1482 170.71 79.148L170.086 79.1472L170.083 82.5175L169.403 82.5167L169.407 78.5418L170.711 78.5432C171.02 78.5435 171.287 78.5891 171.512 78.68C171.74 78.7678 171.915 78.9024 172.036 79.0838C172.161 79.262 172.224 79.4856 172.223 79.7544C172.223 79.9231 172.184 80.073 172.106 80.2041C172.027 80.3353 171.912 80.4492 171.758 80.5459C171.608 80.6395 171.424 80.7159 171.205 80.775C171.196 80.775 171.185 80.7859 171.172 80.8078C171.163 80.8296 171.153 80.8406 171.144 80.8406C171.091 80.8717 171.056 80.8951 171.041 80.9107C171.028 80.9232 171.014 80.931 170.998 80.9341C170.986 80.9372 170.948 80.9388 170.886 80.9387ZM170.839 80.9386L170.938 80.4747C171.426 80.4752 171.758 80.5819 171.936 80.7946C172.114 81.0041 172.203 81.2714 172.202 81.5964V81.8496C172.202 81.9652 172.207 82.0762 172.216 82.1825C172.228 82.2856 172.25 82.373 172.281 82.445V82.52L171.583 82.5193C171.551 82.438 171.533 82.3223 171.527 82.1723C171.524 82.0223 171.522 81.9129 171.522 81.8441L171.523 81.6005C171.523 81.3723 171.472 81.205 171.369 81.0986C171.266 80.9924 171.089 80.9389 170.839 80.9386ZM167.994 80.5839C167.994 80.9995 168.064 81.3871 168.204 81.7466C168.347 82.103 168.547 82.4158 168.803 82.6848C169.059 82.9507 169.354 83.1589 169.688 83.3092C170.025 83.4565 170.385 83.5303 170.766 83.5308C171.15 83.5312 171.51 83.4582 171.844 83.3117C172.179 83.162 172.473 82.9545 172.726 82.6892C172.98 82.4207 173.178 82.1086 173.323 81.7525C173.467 81.3933 173.539 81.0058 173.539 80.5902C173.54 80.1746 173.469 79.7885 173.325 79.4321C173.182 79.0756 172.984 78.7645 172.731 78.4986C172.478 78.2327 172.185 78.0261 171.85 77.8788C171.516 77.7285 171.157 77.6532 170.772 77.6527C170.391 77.6523 170.032 77.7269 169.694 77.8765C169.36 78.023 169.064 78.2288 168.807 78.4942C168.551 78.7595 168.351 79.0702 168.206 79.4263C168.065 79.7824 167.995 80.1683 167.994 80.5839ZM167.441 80.5833C167.442 80.0864 167.528 79.6256 167.7 79.2008C167.873 78.7759 168.112 78.4059 168.419 78.0906C168.725 77.7722 169.079 77.5257 169.479 77.3512C169.882 77.1735 170.314 77.085 170.773 77.0855C171.232 77.0861 171.662 77.1756 172.062 77.3542C172.465 77.5296 172.818 77.7768 173.12 78.0959C173.426 78.4119 173.665 78.7825 173.836 79.2077C174.011 79.6329 174.098 80.0939 174.097 80.5907C174.097 81.0876 174.009 81.5485 173.833 81.9733C173.661 82.3981 173.421 82.7712 173.115 83.0928C172.811 83.4112 172.458 83.6592 172.055 83.8369C171.654 84.0146 171.225 84.1031 170.765 84.1026C170.306 84.1021 169.875 84.0126 169.472 83.834C169.072 83.6554 168.719 83.4066 168.413 83.0875C168.107 82.7653 167.869 82.3916 167.697 81.9664C167.526 81.5412 167.441 81.0802 167.441 80.5833Z" fill="#94A8FD"/>
<path d="M36.007 107.493C29.351 107.486 25.515 104.41 25.52 99.5778L25.529 91.7058C25.534 86.8738 29.346 83.8061 36.002 83.8135C42.658 83.821 46.462 86.8972 46.457 91.7292L46.455 93.1372L41.175 93.1313L41.176 92.1393C41.179 89.8033 39.421 88.2973 36.029 88.2935C32.413 88.2895 30.491 89.7913 30.488 92.1273L30.48 99.1673C30.478 101.503 32.364 103.009 35.98 103.013C39.404 103.017 41.166 101.515 41.168 99.1793L41.17 98.1873L46.45 98.1932L46.448 99.6012C46.443 104.433 42.631 107.501 36.007 107.493ZM60.105 107.52C53.289 107.513 49.452 104.436 49.457 99.6046L49.466 91.7326C49.472 86.9006 53.283 83.8329 60.099 83.8405C66.915 83.8482 70.72 86.9244 70.714 91.7564L70.705 99.6284C70.7 104.46 66.889 107.528 60.105 107.52ZM60.078 103.04C63.982 103.045 65.743 101.543 65.746 99.2069L65.754 92.1669C65.756 89.8309 63.998 88.3249 60.126 88.3206C56.222 88.3162 54.428 89.8182 54.426 92.1542L54.418 99.1942C54.415 101.53 56.174 103.036 60.078 103.04ZM74.019 107.056L74.045 84.3362L79.005 84.3417L78.979 107.062L74.019 107.056ZM96.718 84.3616L101.55 84.367L101.525 107.087L96.693 107.081L87.461 93.0872L87.445 107.071L82.613 107.066L82.638 84.3458L87.47 84.3512L96.703 98.4096L96.718 84.3616ZM114.743 107.518C108.439 107.511 105.082 104.467 105.087 100.307L105.088 99.507L107.904 99.5101L107.903 100.374C107.9 102.934 110.49 104.825 114.81 104.83C118.714 104.834 121.244 103.237 121.247 100.677C121.253 94.5651 105.601 98.8995 105.61 90.4195C105.614 87.0915 108.113 84.1183 114.385 84.1254C120.689 84.1324 123.534 87.0796 123.529 91.0476L123.528 91.9436L120.712 91.9405L120.713 91.0125C120.716 88.6125 118.478 86.818 114.35 86.8133C110.542 86.8091 108.46 88.3107 108.458 90.4227C108.452 95.7667 124.008 92.0082 124.095 100.648C124.122 104.424 121.047 107.525 114.743 107.518ZM144.594 87.2312L131.41 87.2165L131.402 94.6724L143.146 94.6856L143.143 97.3736L131.399 97.3604L131.391 104.432L144.575 104.447L144.572 107.135L128.572 107.117L128.597 84.5573L144.597 84.5752L144.594 87.2312ZM158.442 107.535C151.818 107.527 148.654 104.612 148.659 99.7798L148.668 91.9078C148.673 87.0758 151.845 84.1674 158.437 84.1747C165.061 84.1822 168.193 87.0977 168.188 91.9297L168.187 92.8257L165.211 92.8223L165.212 92.2783C165.215 88.7583 163.266 86.8682 158.466 86.8628C153.506 86.8572 151.487 88.743 151.484 92.263L151.475 99.431C151.472 102.951 153.485 104.841 158.413 104.847C163.245 104.852 165.2 102.966 165.203 99.4463L165.204 98.9023L168.18 98.9057L168.179 99.8017C168.174 104.634 165.034 107.542 158.442 107.535Z" fill="#94A8FD"/>
<path d="M107.248 126H105.776L103.728 121.312H103.648H100.624V126H99.216V114.72H103.632C105.84 114.72 107.088 115.824 107.088 117.68V118.336C107.088 119.712 106.4 120.672 105.168 121.088L107.248 126ZM100.624 116.048V119.968H103.712C105.056 119.968 105.696 119.424 105.696 118.336V117.68C105.696 116.608 105.056 116.048 103.728 116.048H100.624ZM111.834 117.712C113.898 117.712 115.194 118.928 115.194 120.736V122.368H109.786V122.736C109.786 124.24 110.458 125.024 111.882 125.024C113.05 125.024 113.802 124.496 113.802 123.504V123.408H115.162C115.162 125.2 113.882 126.192 111.914 126.192C109.594 126.192 108.442 124.8 108.442 122.72V121.152C108.442 119.072 109.626 117.712 111.834 117.712ZM109.786 121.216H113.818V120.752C113.818 119.504 113.146 118.88 111.882 118.88C110.426 118.88 109.786 119.68 109.786 121.152V121.216ZM122.847 117.92H123.791V126H122.847L122.591 125.184C122.015 125.872 121.135 126.208 120.063 126.208C118.079 126.208 116.911 125.2 116.911 122.8V121.12C116.911 118.704 118.079 117.712 120.063 117.712C121.135 117.712 122.015 118.048 122.591 118.736L122.847 117.92ZM120.303 124.912C121.535 124.912 122.319 124.304 122.431 122.96V120.944C122.319 119.616 121.551 119.008 120.303 119.008C118.943 119.008 118.271 119.664 118.271 121.2V122.704C118.271 124.24 118.943 124.912 120.303 124.912ZM126.153 113.68H127.513V126H126.153V113.68ZM129.374 122.336V121.088H133.246V122.336H129.374ZM142.563 114.72V116.048H139.027V126H137.619V116.048H134.083V114.72H142.563ZM143.934 116.656V114.992H145.374V116.656H143.934ZM143.966 126V117.92H145.326V126H143.966ZM155.939 117.712C157.763 117.712 158.755 118.832 158.755 121.28V126H157.395V121.248C157.395 119.76 156.787 119.008 155.731 119.008C154.771 119.008 154.051 119.616 153.923 120.88V121.216V126H152.563V121.248C152.563 119.76 151.955 119.008 150.883 119.008C149.939 119.008 149.219 119.616 149.075 120.784V126H147.715V117.92H148.627L148.867 118.752C149.395 118.064 150.195 117.712 151.091 117.712C152.243 117.712 153.059 118.144 153.507 119.056C154.019 118.16 154.931 117.712 155.939 117.712ZM164.1 117.712C166.164 117.712 167.46 118.928 167.46 120.736V122.368H162.052V122.736C162.052 124.24 162.724 125.024 164.148 125.024C165.316 125.024 166.068 124.496 166.068 123.504V123.408H167.428C167.428 125.2 166.148 126.192 164.18 126.192C161.86 126.192 160.708 124.8 160.708 122.72V121.152C160.708 119.072 161.892 117.712 164.1 117.712ZM162.052 121.216H166.084V120.752C166.084 119.504 165.412 118.88 164.148 118.88C162.692 118.88 162.052 119.68 162.052 121.152V121.216Z" fill="#94A8FD"/>
<path d="M100 199C154.676 199 199 154.676 199 100C199 45.3238 154.676 1 100 1C45.3238 1 1 45.3238 1 100C1 154.676 45.3238 199 100 199Z" stroke="#94A8FD" stroke-width="2"/>
<path d="M409 199C463.676 199 508 154.676 508 100C508 45.3238 463.676 1 409 1C354.324 1 310 45.3238 310 100C310 154.676 354.324 199 409 199Z" stroke="#94A8FD" stroke-width="2"/>
<path d="M364.139 75.1001L364.12 92.0201L362.104 92.0179L362.12 78.3619L356.872 92.012L355.288 92.0102L350.048 78.3243L350.032 92.0043L348.04 92.0021L348.059 75.0821L350.723 75.0851L356.085 88.2191L361.475 75.0971L364.139 75.1001ZM373.322 79.5984C376.754 79.6023 378.935 81.5007 378.932 84.2127L378.93 86.5887L369.666 86.5783C369.663 89.1703 370.861 90.5637 373.453 90.5666C375.493 90.5689 376.886 89.7304 376.888 88.2904V88.1464L378.928 88.1487C378.925 90.8367 376.763 92.3223 373.499 92.3186C369.515 92.3142 367.622 90.008 367.626 86.672L367.627 85.16C367.631 81.8241 369.602 79.5943 373.322 79.5984ZM369.692 84.8264L376.868 84.8344V84.3784C376.87 82.3624 375.696 81.3531 373.44 81.3506C370.944 81.3478 369.814 82.5945 369.692 84.8264ZM388.365 79.7113C388.653 79.7116 388.941 79.7119 389.228 79.7363L389.226 81.6083C388.818 81.5118 388.363 81.4633 387.931 81.4628C386.059 81.4607 384.426 82.2749 384.423 84.5069L384.415 92.0429L382.375 92.0406L382.388 79.9206L383.828 79.9222L384.235 81.2427C385.196 80.2117 386.733 79.7095 388.365 79.7113ZM396.793 92.3447C393.025 92.3405 391.059 90.3223 391.063 86.9863L391.065 84.9703C391.069 81.6343 393.039 79.6205 396.783 79.6247C400.287 79.6287 402.397 81.527 402.393 84.575V84.623L400.329 84.6207V84.5727C400.332 82.6047 399.085 81.5713 396.805 81.5688C394.237 81.5659 393.107 82.7886 393.105 85.1646L393.103 86.7966C393.1 89.1966 394.203 90.3978 396.771 90.4007C399.051 90.4033 400.324 89.3727 400.326 87.4047V87.3567L402.39 87.359V87.407C402.387 90.455 400.273 92.3486 396.793 92.3447ZM412.138 79.6419C415.306 79.6455 417.344 81.3278 417.34 85.5278L417.332 92.0798L415.292 92.0775L415.299 85.5975C415.303 82.8375 413.936 81.588 411.704 81.5855C409.52 81.583 408.031 82.6613 407.86 85.0851L407.852 92.0691L405.812 92.0669L405.833 73.5869L407.873 73.5892L407.864 81.2211C408.826 80.1662 410.314 79.6399 412.138 79.6419ZM430.849 79.9749L432.289 79.9765L432.275 92.0965L430.835 92.0949L430.405 90.6784C429.467 91.8534 427.955 92.4037 425.987 92.4015C422.651 92.3977 420.637 90.8595 420.641 86.8755L420.643 85.1715C420.647 81.1875 422.665 79.6537 426.001 79.6575C427.969 79.6597 429.48 80.2134 430.415 81.3904L430.849 79.9749ZM426.373 90.4579C428.677 90.4605 430.07 89.358 430.241 86.9582L430.243 85.1102C430.078 82.686 428.711 81.6045 426.383 81.6019C423.935 81.5992 422.686 82.7018 422.683 85.3658L422.681 86.6858C422.678 89.3258 423.925 90.4552 426.373 90.4579ZM442.559 79.676C445.775 79.6796 447.79 81.3619 447.785 85.5619L447.777 92.1139L445.737 92.1116L445.745 85.6316C445.748 82.8716 444.405 81.6221 442.125 81.6195C439.989 81.6172 438.476 82.6955 438.305 85.1193L438.297 92.1033L436.257 92.101L436.271 79.981L437.711 79.9826L438.069 81.543C439.031 80.2721 440.591 79.6738 442.559 79.676ZM456.819 90.18L458.019 90.1814L458.016 92.1254L456.528 92.1237C453.552 92.1204 451.898 90.7025 451.901 87.9425L451.908 81.9185L450.252 81.9167L450.254 79.9967L451.91 79.9985L451.914 76.4465L453.954 76.4488L453.95 80.0008L457.67 80.005L457.668 81.925L453.948 81.9208L453.942 87.4648C453.94 89.2888 454.971 90.178 456.819 90.18ZM465.337 92.4456C461.785 92.4416 459.795 90.7114 459.797 88.2154L459.798 87.9754L461.838 87.9776L461.837 88.2176C461.836 89.7056 463.131 90.6431 465.483 90.6457C467.139 90.6476 468.579 90.0732 468.581 88.8492C468.584 85.8012 460.038 88.0476 460.043 83.5116C460.045 81.2076 462.063 79.6979 465.183 79.7014C468.567 79.7052 470.437 81.3873 470.434 83.8353V84.0753L468.418 84.073V83.809C468.42 82.393 467.293 81.4798 465.181 81.4774C463.237 81.4752 462.084 82.2659 462.083 83.3459C462.08 86.0339 470.626 83.9075 470.621 88.6835C470.618 91.2515 468.097 92.4487 465.337 92.4456ZM355.995 104.091C359.595 104.095 361.489 105.825 361.486 108.729L361.484 110.121C361.481 113.025 359.583 114.775 356.007 114.771L350.127 114.765L350.12 121.005L348.008 121.002L348.027 104.082L355.995 104.091ZM359.372 110.119L359.374 108.727C359.376 106.999 358.393 106.086 356.137 106.083L350.137 106.077L350.129 112.749L356.105 112.755C358.361 112.758 359.37 111.847 359.372 110.119ZM373.91 108.911L375.35 108.913L375.336 121.033L373.896 121.031L373.466 119.615C372.529 120.79 371.016 121.34 369.048 121.338C365.712 121.334 363.698 119.796 363.702 115.812L363.704 114.108C363.709 110.124 365.726 108.59 369.062 108.594C371.03 108.596 372.542 109.15 373.476 110.327L373.91 108.911ZM369.434 119.394C371.738 119.397 373.132 118.294 373.302 115.895L373.304 114.047C373.139 111.622 371.772 110.541 369.444 110.538C366.996 110.536 365.747 111.638 365.744 114.302L365.742 115.622C365.74 118.262 366.986 119.392 369.434 119.394ZM388.26 108.927L390.3 108.93L390.286 121.962C390.283 124.698 388.408 126.88 384.592 126.875C380.944 126.871 379.434 125.07 379.221 122.909L381.261 122.912C381.499 124.232 382.53 124.929 384.57 124.931C386.826 124.934 388.244 123.807 388.246 121.719L388.248 119.895C387.335 120.878 386.014 121.357 384.358 121.355C381.286 121.352 379.344 119.645 379.349 115.469L379.356 108.917L381.396 108.92L381.389 115.4C381.386 118.136 382.489 119.409 384.721 119.411C386.665 119.414 388.01 118.383 388.252 116.175L388.26 108.927ZM407.966 108.637C411.086 108.641 412.764 110.467 412.759 114.523L412.752 121.075L410.712 121.073L410.719 114.449C410.722 111.929 409.596 110.583 407.748 110.581C405.996 110.579 404.746 111.706 404.552 113.986L404.551 114.514L404.544 121.066L402.504 121.063L402.511 114.439C402.514 111.919 401.388 110.574 399.54 110.572C397.74 110.57 396.466 111.793 396.32 114.072L396.312 121.056L394.272 121.054L394.285 108.934L395.725 108.936L396.06 110.376C396.901 109.201 398.246 108.627 399.782 108.628C401.774 108.631 403.165 109.376 403.907 110.961C404.725 109.402 406.214 108.636 407.966 108.637ZM421.758 108.653C425.19 108.657 427.372 110.555 427.369 113.267L427.366 115.643L418.102 115.633C418.099 118.225 419.297 119.618 421.889 119.621C423.929 119.623 425.322 118.785 425.324 117.345V117.201L427.364 117.203C427.361 119.891 425.199 121.377 421.935 121.373C417.951 121.369 416.058 119.063 416.062 115.727L416.063 114.215C416.067 110.879 418.038 108.649 421.758 108.653ZM418.128 113.881L425.304 113.889V113.433C425.307 111.417 424.132 110.408 421.876 110.405C419.38 110.402 418.25 111.649 418.128 113.881ZM437.113 108.67C440.329 108.674 442.343 110.356 442.338 114.556L442.331 121.108L440.291 121.106L440.298 114.626C440.301 111.866 438.959 110.616 436.679 110.614C434.543 110.611 433.029 111.69 432.859 114.113L432.851 121.097L430.811 121.095L430.824 108.975L432.264 108.977L432.623 110.537C433.584 109.266 435.145 108.668 437.113 108.67ZM451.372 119.174L452.572 119.175L452.57 121.119L451.082 121.118C448.106 121.114 446.451 119.697 446.455 116.937L446.461 110.913L444.805 110.911L444.807 108.991L446.463 108.993L446.467 105.441L448.507 105.443L448.503 108.995L452.223 108.999L452.221 110.919L448.501 110.915L448.495 116.459C448.493 118.283 449.524 119.172 451.372 119.174ZM459.89 121.44C456.338 121.436 454.348 119.705 454.351 117.209V116.969L456.391 116.972V117.212C456.389 118.7 457.684 119.637 460.036 119.64C461.692 119.642 463.133 119.067 463.134 117.843C463.138 114.795 454.591 117.042 454.596 112.506C454.599 110.202 456.616 108.692 459.736 108.696C463.12 108.699 464.99 110.381 464.988 112.829L464.987 113.069L462.971 113.067L462.972 112.803C462.973 111.387 461.846 110.474 459.734 110.472C457.79 110.469 456.638 111.26 456.636 112.34C456.633 115.028 465.18 112.902 465.174 117.678C465.171 120.246 462.65 121.443 459.89 121.44Z" fill="#94A8FD"/>
<path d="M232.376 92.064V85.248H276.344V92.064H232.376ZM232.376 111.168V104.352H276.344V111.168H232.376Z" fill="#94A8FD"/>
<path d="M706 199C760.676 199 805 154.676 805 100C805 45.3238 760.676 1 706 1C651.324 1 607 45.3238 607 100C607 154.676 651.324 199 706 199Z" stroke="#94A8FD" stroke-width="2"/>
<path d="M637.197 92.2982C632.229 92.2927 629.856 90.106 629.86 86.482L629.866 80.578C629.87 76.954 632.249 74.7727 637.193 74.7782C642.161 74.7838 644.51 76.9704 644.506 80.5944L644.505 81.2664L642.273 81.2639L642.274 80.8559C642.277 78.2159 640.814 76.7983 637.214 76.7942C633.494 76.7901 631.981 78.2044 631.978 80.8444L631.972 86.2204C631.969 88.8604 633.479 90.2781 637.175 90.2822C640.799 90.2863 642.265 88.8719 642.268 86.2319V85.8239L644.5 85.8264V86.4984C644.496 90.1224 642.141 92.3038 637.197 92.2982ZM654.064 79.6931C654.352 79.6934 654.64 79.6938 654.928 79.7181L654.926 81.5901C654.518 81.4936 654.062 81.4451 653.63 81.4446C651.758 81.4425 650.125 82.2567 650.122 84.4887L650.114 92.0247L648.074 92.0224L648.088 79.9024L649.528 79.904L649.934 81.2245C650.895 80.1936 652.432 79.6913 654.064 79.6931ZM662.588 92.3507C658.724 92.3464 656.758 90.3041 656.762 86.9681L656.764 84.9521C656.768 81.6162 658.738 79.6024 662.602 79.6067C666.466 79.611 668.432 81.6292 668.428 84.9652L668.426 86.9812C668.422 90.3172 666.476 92.355 662.588 92.3507ZM662.59 90.4067C665.278 90.4097 666.383 89.1869 666.386 86.7869L666.388 85.1549C666.391 82.7789 665.288 81.5537 662.6 81.5507C659.936 81.5477 658.807 82.7704 658.804 85.1464L658.802 86.7784C658.799 89.1784 659.902 90.4037 662.59 90.4067ZM676.591 92.3664C673.039 92.3624 671.049 90.6322 671.051 88.1362L671.052 87.8962L673.092 87.8985L673.091 88.1385C673.09 89.6265 674.385 90.5639 676.737 90.5665C678.393 90.5684 679.833 89.994 679.835 88.77C679.838 85.722 671.292 87.9684 671.297 83.4324C671.299 81.1284 673.317 79.6187 676.437 79.6222C679.821 79.626 681.691 81.3081 681.688 83.7561V83.9961L679.672 83.9938V83.7298C679.674 82.3138 678.547 81.4006 676.435 81.3982C674.491 81.396 673.338 82.1867 673.337 83.2667C673.334 85.9547 681.88 83.8283 681.875 88.6043C681.872 91.1723 679.351 92.3695 676.591 92.3664ZM689.692 92.3811C686.14 92.3771 684.15 90.6468 684.153 88.1509V87.9109L686.193 87.9131V88.1531C686.191 89.6411 687.486 90.5786 689.838 90.5812C691.494 90.5831 692.935 90.0087 692.936 88.7847C692.94 85.7367 684.393 87.9831 684.398 83.4471C684.401 81.1431 686.418 79.6334 689.538 79.6369C692.922 79.6407 694.793 81.3228 694.79 83.7708V84.0108L692.774 84.0085V83.7445C692.775 82.3285 691.648 81.4152 689.536 81.4129C687.592 81.4107 686.44 82.2014 686.438 83.2814C686.435 85.9694 694.982 83.843 694.976 88.619C694.974 91.187 692.452 92.3842 689.692 92.3811ZM697.04 86.5813L697.042 84.7093L702.85 84.7158L702.848 86.5878L697.04 86.5813ZM717.282 83.124C718.674 83.7975 719.464 85.0704 719.463 86.5584L719.461 87.8304C719.458 90.4224 717.488 92.1002 714.584 92.097L705.872 92.0872L705.891 75.1672L714.003 75.1763C716.883 75.1795 718.874 76.5498 718.871 79.0458L718.87 80.1738C718.868 81.4458 718.315 82.4771 717.282 83.124ZM714.001 77.1203L708.001 77.1136L707.995 82.3696L713.995 82.3763C715.651 82.3782 716.756 81.7554 716.758 80.1474L716.759 79.1154C716.761 77.6994 715.633 77.1221 714.001 77.1203ZM717.349 87.8281L717.351 86.6041C717.352 85.1161 716.345 84.2989 714.593 84.297L707.993 84.2896L707.987 90.1456L714.587 90.153C716.339 90.1549 717.348 89.3161 717.349 87.8281ZM728.213 92.4242C724.349 92.4199 722.383 90.3777 722.387 87.0417L722.389 85.0257C722.393 81.6897 724.363 79.6759 728.227 79.6802C732.091 79.6846 734.057 81.7028 734.053 85.0388L734.051 87.0548C734.047 90.3908 732.101 92.4286 728.213 92.4242ZM728.215 90.4802C730.903 90.4833 732.008 89.2605 732.011 86.8605L732.013 85.2285C732.016 82.8525 730.913 81.6273 728.225 81.6242C725.561 81.6213 724.432 82.844 724.429 85.22L724.427 86.852C724.424 89.252 725.527 90.4772 728.215 90.4802ZM743.478 79.7933C743.766 79.7937 744.054 79.794 744.342 79.8183L744.34 81.6903C743.932 81.5939 743.476 81.5453 743.044 81.5449C741.172 81.5428 739.539 82.3569 739.536 84.5889L739.528 92.1249L737.488 92.1226L737.502 80.0026L738.942 80.0043L739.348 81.3247C740.309 80.2938 741.846 79.7915 743.478 79.7933ZM755.767 73.6631L757.807 73.6654L757.786 92.1454L756.37 92.1438L755.916 90.7513C754.979 91.9022 753.49 92.4526 751.546 92.4504C748.186 92.4466 746.172 90.9324 746.176 86.9244L746.178 85.2204C746.183 81.2124 748.2 79.7026 751.56 79.7064C753.384 79.7084 754.824 80.2141 755.759 81.2231L755.767 73.6631ZM751.908 90.5068C754.116 90.5093 755.509 89.4788 755.752 87.2711L755.754 84.8951C755.517 82.6628 754.15 81.6533 751.918 81.6508C749.47 81.6481 748.221 82.7507 748.218 85.4147L748.216 86.7347C748.213 89.3987 749.46 90.5041 751.908 90.5068ZM766.919 79.7236C770.351 79.7275 772.533 81.6259 772.53 84.3379L772.527 86.7139L763.263 86.7035C763.26 89.2955 764.459 90.6889 767.051 90.6918C769.091 90.6941 770.484 89.8556 770.485 88.4156L770.486 88.2716L772.526 88.2739C772.522 90.9619 770.361 92.4475 767.097 92.4438C763.113 92.4394 761.219 90.1332 761.223 86.7972L761.225 85.2852C761.229 81.9492 763.199 79.7194 766.919 79.7236ZM763.289 84.9515L770.465 84.9596L770.466 84.5036C770.468 82.4876 769.293 81.4783 767.037 81.4757C764.541 81.473 763.412 82.7197 763.289 84.9515ZM781.962 79.8365C782.25 79.8368 782.538 79.8371 782.826 79.8614L782.824 81.7334C782.416 81.637 781.96 81.5885 781.528 81.588C779.656 81.5859 778.023 82.4001 778.021 84.6321L778.012 92.1681L775.972 92.1658L775.986 80.0458L777.426 80.0474L777.832 81.3678C778.794 80.3369 780.33 79.8346 781.962 79.8365ZM655.831 104.111C659.431 104.115 661.325 105.845 661.322 108.749L661.32 110.141C661.317 113.045 659.419 114.795 655.843 114.791L649.963 114.785L649.956 121.025L647.844 121.022L647.863 104.102L655.831 104.111ZM659.208 110.139L659.21 108.747C659.212 107.019 658.229 106.106 655.973 106.103L649.973 106.097L649.965 112.769L655.941 112.775C658.197 112.778 659.206 111.867 659.208 110.139ZM673.746 108.931L675.186 108.933L675.172 121.053L673.732 121.051L673.302 119.635C672.365 120.81 670.852 121.36 668.884 121.358C665.548 121.354 663.534 119.816 663.538 115.832L663.54 114.128C663.545 110.144 665.562 108.61 668.898 108.614C670.866 108.616 672.378 109.17 673.312 110.347L673.746 108.931ZM669.27 119.414C671.574 119.417 672.967 118.314 673.138 115.915L673.14 114.067C672.975 111.642 671.608 110.561 669.28 110.558C666.832 110.556 665.583 111.658 665.58 114.322L665.578 115.642C665.575 118.282 666.822 119.412 669.27 119.414ZM688.096 108.947L690.136 108.95L690.122 121.982C690.119 124.718 688.244 126.9 684.428 126.895C680.78 126.891 679.27 125.089 679.057 122.929L681.097 122.932C681.335 124.252 682.366 124.949 684.406 124.951C686.662 124.954 688.08 123.827 688.082 121.739L688.084 119.915C687.171 120.898 685.85 121.377 684.194 121.375C681.122 121.372 679.18 119.665 679.185 115.489L679.192 108.937L681.232 108.94L681.225 115.42C681.222 118.156 682.325 119.429 684.556 119.431C686.5 119.434 687.846 118.403 688.088 116.195L688.096 108.947ZM707.802 108.657C710.922 108.661 712.6 110.487 712.595 114.543L712.588 121.095L710.548 121.093L710.555 114.469C710.558 111.949 709.432 110.603 707.584 110.601C705.832 110.599 704.582 111.726 704.388 114.006L704.387 114.534L704.38 121.086L702.34 121.083L702.347 114.459C702.35 111.939 701.224 110.594 699.376 110.592C697.576 110.59 696.302 111.813 696.156 114.092L696.148 121.076L694.108 121.074L694.121 108.954L695.561 108.956L695.896 110.396C696.737 109.221 698.082 108.647 699.618 108.648C701.61 108.651 703.001 109.396 703.743 110.981C704.561 109.422 706.05 108.656 707.802 108.657ZM721.594 108.673C725.026 108.677 727.208 110.575 727.204 113.287L727.202 115.663L717.938 115.653C717.935 118.245 719.133 119.638 721.725 119.641C723.765 119.643 725.158 118.805 725.16 117.365V117.221L727.2 117.223C727.197 119.911 725.035 121.397 721.771 121.393C717.787 121.389 715.894 119.083 715.898 115.747L715.899 114.235C715.903 110.899 717.874 108.669 721.594 108.673ZM717.964 113.901L725.14 113.909V113.453C725.143 111.437 723.968 110.428 721.712 110.425C719.216 110.422 718.086 111.669 717.964 113.901ZM736.949 108.69C740.165 108.694 742.179 110.376 742.174 114.576L742.167 121.128L740.127 121.126L740.134 114.646C740.137 111.886 738.795 110.636 736.515 110.634C734.379 110.631 732.865 111.71 732.695 114.133L732.687 121.117L730.647 121.115L730.66 108.995L732.1 108.997L732.459 110.557C733.42 109.286 734.981 108.688 736.949 108.69ZM751.208 119.194L752.408 119.195L752.406 121.139L750.918 121.138C747.942 121.134 746.287 119.717 746.29 116.957L746.297 110.933L744.641 110.931L744.643 109.011L746.299 109.013L746.303 105.461L748.343 105.463L748.339 109.015L752.059 109.019L752.057 110.939L748.337 110.935L748.331 116.479C748.329 118.303 749.36 119.192 751.208 119.194ZM759.726 121.46C756.174 121.456 754.184 119.725 754.187 117.229V116.989L756.227 116.992V117.232C756.225 118.72 757.52 119.657 759.872 119.66C761.528 119.662 762.969 119.087 762.97 117.863C762.973 114.815 754.427 117.062 754.432 112.526C754.435 110.222 756.452 108.712 759.572 108.715C762.956 108.719 764.826 110.401 764.824 112.849L764.823 113.089L762.807 113.087L762.808 112.823C762.809 111.407 761.682 110.494 759.57 110.491C757.626 110.489 756.473 111.28 756.472 112.36C756.469 115.048 765.016 112.922 765.01 117.698C765.007 120.266 762.486 121.463 759.726 121.46Z" fill="#94A8FD"/>
<path d="M566.816 95.7519H585.92V102.568H566.816V122.344H559.904V102.568H540.8V95.7519H559.904V75.8799H566.816V95.7519Z" fill="#94A8FD"/>
<path d="M1008 199C1062.68 199 1107 154.676 1107 100C1107 45.3238 1062.68 1 1008 1C953.324 1 909 45.3238 909 100C909 154.676 953.324 199 1008 199Z" stroke="#94A8FD" stroke-width="2"/>
<path d="M942.2 75.0919C945.8 75.096 947.69 76.8261 947.69 79.7301V81.1221C947.69 84.0261 945.79 85.776 942.21 85.7719L936.33 85.7654L936.32 92.0053L934.21 92.003L934.23 75.083L942.2 75.0919ZM945.58 81.1197V79.7277C945.58 77.9997 944.6 77.0866 942.34 77.0841L936.34 77.0774L936.33 83.7494L942.31 83.7561C944.57 83.7586 945.57 82.8477 945.58 81.1197ZM955.6 79.5949C959.03 79.5988 961.22 81.4972 961.21 84.2092V86.5852L951.95 86.5749C951.94 89.1669 953.14 90.5602 955.73 90.5631C957.77 90.5654 959.17 89.727 959.17 88.287V88.143L961.21 88.1452C961.21 90.8332 959.04 92.3188 955.78 92.3152C951.8 92.3107 949.9 90.0046 949.91 86.6686V85.1566C949.91 81.8206 951.88 79.5908 955.6 79.5949ZM951.97 84.8229L959.15 84.8309V84.3749C959.15 82.3589 957.98 81.3496 955.72 81.3471C953.22 81.3443 952.1 82.591 951.97 84.8229ZM969.81 79.6109C973.24 79.6147 975.42 81.5132 975.42 84.2252L975.41 86.6012L966.15 86.5908C966.15 89.1828 967.35 90.5761 969.94 90.579C971.98 90.5813 973.37 89.7429 973.37 88.3029V88.1589L975.41 88.1612C975.41 90.8492 973.25 92.3347 969.98 92.3311C966 92.3266 964.11 90.0205 964.11 86.6845V85.1725C964.12 81.8365 966.09 79.6067 969.81 79.6109ZM966.18 84.8388L973.35 84.8468V84.3908C973.35 82.3748 972.18 81.3655 969.92 81.363C967.43 81.3602 966.3 82.6069 966.18 84.8388ZM984.85 79.7237C985.14 79.7241 985.42 79.7244 985.71 79.7487V81.6207C985.3 81.5242 984.85 81.4757 984.41 81.4752C982.54 81.4731 980.91 82.2873 980.91 84.5193L980.9 92.0553L978.86 92.053L978.87 79.933L980.31 79.9346L980.72 81.2551C981.68 80.2242 983.22 79.7219 984.85 79.7237ZM987.54 86.5667V84.6947L993.35 84.7013L993.34 86.5733L987.54 86.5667ZM1009.3 75.1671V77.1591L1003.08 77.1522L1003.06 92.0802L1000.95 92.0778L1000.97 77.1498L994.71 77.1428V75.1508L1009.3 75.1671ZM1013.37 92.4037C1009.5 92.3994 1007.54 90.3572 1007.54 87.0212V85.0052C1007.55 81.6692 1009.52 79.6554 1013.38 79.6597C1017.24 79.664 1019.21 81.6822 1019.21 85.0182L1019.2 87.0342C1019.2 90.3702 1017.25 92.4081 1013.37 92.4037ZM1013.37 90.4597C1016.06 90.4627 1017.16 89.24 1017.16 86.84L1017.17 85.208C1017.17 82.832 1016.07 81.6067 1013.38 81.6037C1010.71 81.6007 1009.58 82.8235 1009.58 85.1995V86.8315C1009.58 89.2315 1010.68 90.4567 1013.37 90.4597ZM1021.61 86.6049L1021.62 84.7329L1027.42 84.7395V86.6115L1021.61 86.6049ZM1038.43 75.1998C1042.03 75.2038 1043.93 76.9339 1043.92 79.8379V81.2299C1043.92 84.1339 1042.02 85.8838 1038.45 85.8798L1032.57 85.8732L1032.56 92.1132L1030.45 92.1108L1030.47 75.1909L1038.43 75.1998ZM1041.81 81.2276V79.8356C1041.81 78.1076 1040.83 77.1945 1038.58 77.1919L1032.58 77.1852L1032.57 83.8572L1038.54 83.8639C1040.8 83.8664 1041.81 82.9556 1041.81 81.2276ZM1051.84 79.7028C1055.27 79.7067 1057.45 81.6051 1057.45 84.3171V86.6931L1048.18 86.6827C1048.18 89.2747 1049.38 90.6681 1051.97 90.671C1054.01 90.6733 1055.4 89.8348 1055.4 88.3948V88.2508L1057.44 88.2531C1057.44 90.9411 1055.28 92.4267 1052.01 92.423C1048.03 92.4186 1046.14 90.1124 1046.14 86.7764V85.2644C1046.15 81.9284 1048.12 79.6986 1051.84 79.7028ZM1048.21 84.9307L1055.38 84.9388V84.4828C1055.39 82.4668 1054.21 81.4575 1051.96 81.4549C1049.46 81.4522 1048.33 82.6989 1048.21 84.9307ZM1066.04 79.7187C1069.47 79.7226 1071.65 81.621 1071.65 84.333V86.709L1062.38 86.6986C1062.38 89.2906 1063.58 90.684 1066.17 90.6869C1068.21 90.6892 1069.6 89.8507 1069.61 88.4107V88.2667L1071.65 88.269C1071.64 90.957 1069.48 92.4426 1066.22 92.4389C1062.23 92.4345 1060.34 90.1284 1060.34 86.7924L1060.35 85.2804C1060.35 81.9444 1062.32 79.7146 1066.04 79.7187ZM1062.41 84.9467L1069.59 84.9547V84.4987C1069.59 82.4827 1068.41 81.4734 1066.16 81.4709C1063.66 81.4681 1062.53 82.7148 1062.41 84.9467ZM1081.08 79.8316C1081.37 79.8319 1081.66 79.8322 1081.95 79.8566V81.7286C1081.54 81.6321 1081.08 81.5836 1080.65 81.5831C1078.78 81.581 1077.14 82.3952 1077.14 84.6272L1077.13 92.1632L1075.09 92.1609L1075.11 80.0409L1076.55 80.0425L1076.95 81.363C1077.91 80.332 1079.45 79.8298 1081.08 79.8316ZM957.33 104.109C960.93 104.113 962.82 105.843 962.82 108.747V110.139C962.82 113.043 960.92 114.793 957.34 114.789L951.46 114.782V121.022L949.34 121.02L949.36 104.1L957.33 104.109ZM960.71 110.137V108.745C960.71 107.017 959.73 106.104 957.47 106.101L951.47 106.094V112.766L957.44 112.773C959.7 112.776 960.71 111.865 960.71 110.137ZM975.25 108.929L976.69 108.931L976.67 121.051L975.23 121.049L974.8 119.632C973.86 120.807 972.35 121.358 970.38 121.356C967.05 121.352 965.03 119.814 965.04 115.83V114.126C965.04 110.142 967.06 108.608 970.4 108.612C972.37 108.614 973.88 109.167 974.81 110.344L975.25 108.929ZM970.77 119.412C973.07 119.415 974.47 118.312 974.64 115.912V114.064C974.47 111.64 973.11 110.559 970.78 110.556C968.33 110.553 967.08 111.656 967.08 114.32V115.64C967.08 118.28 968.32 119.409 970.77 119.412ZM989.6 108.945L991.64 108.947L991.62 121.979C991.62 124.715 989.74 126.897 985.93 126.893C982.28 126.889 980.77 125.087 980.56 122.927L982.6 122.929C982.84 124.249 983.87 124.947 985.91 124.949C988.16 124.951 989.58 123.825 989.58 121.737V119.913C988.67 120.896 987.35 121.375 985.69 121.373C982.62 121.369 980.68 119.663 980.68 115.487L980.69 108.935L982.73 108.937L982.72 115.417C982.72 118.153 983.82 119.427 986.06 119.429C988 119.431 989.35 118.401 989.59 116.193L989.6 108.945ZM1009.3 108.655C1012.42 108.659 1014.1 110.485 1014.1 114.541L1014.09 121.093L1012.05 121.09L1012.06 114.466C1012.06 111.946 1010.93 110.601 1009.08 110.599C1007.33 110.597 1006.08 111.724 1005.89 114.003V114.531L1005.88 121.083L1003.84 121.081L1003.85 114.457C1003.85 111.937 1002.72 110.592 1000.88 110.59C999.08 110.588 997.8 111.81 997.66 114.09L997.65 121.074L995.61 121.072L995.62 108.952L997.06 108.953L997.4 110.394C998.24 109.219 999.58 108.644 1001.12 108.646C1003.11 108.648 1004.5 109.394 1005.24 110.979C1006.06 109.42 1007.55 108.653 1009.3 108.655ZM1023.09 108.671C1026.53 108.674 1028.71 110.573 1028.7 113.285V115.661L1019.44 115.651C1019.43 118.243 1020.63 119.636 1023.23 119.639C1025.27 119.641 1026.66 118.803 1026.66 117.363V117.219L1028.7 117.221C1028.7 119.909 1026.54 121.394 1023.27 121.391C1019.29 121.386 1017.39 119.08 1017.4 115.744V114.232C1017.4 110.896 1019.37 108.666 1023.09 108.671ZM1019.46 113.899L1026.64 113.907V113.451C1026.64 111.435 1025.47 110.425 1023.21 110.423C1020.72 110.42 1019.59 111.667 1019.46 113.899ZM1038.45 108.688C1041.66 108.691 1043.68 110.374 1043.67 114.574V121.126L1041.63 121.123V114.643C1041.64 111.883 1040.29 110.634 1038.01 110.631C1035.88 110.629 1034.37 111.707 1034.19 114.131V121.115L1032.15 121.113L1032.16 108.993L1033.6 108.994L1033.96 110.555C1034.92 109.284 1036.48 108.686 1038.45 108.688ZM1052.71 119.192L1053.91 119.193V121.137L1052.42 121.135C1049.44 121.132 1047.79 119.714 1047.79 116.954L1047.8 110.93L1046.14 110.928V109.008L1047.8 109.01V105.458L1049.84 105.461V109.013L1053.56 109.017V110.937L1049.84 110.933L1049.83 116.477C1049.83 118.301 1050.86 119.19 1052.71 119.192ZM1061.23 121.457C1057.67 121.453 1055.68 119.723 1055.69 117.227V116.987L1057.73 116.989V117.229C1057.73 118.717 1059.02 119.655 1061.37 119.658C1063.03 119.659 1064.47 119.085 1064.47 117.861C1064.47 114.813 1055.93 117.059 1055.93 112.523C1055.93 110.219 1057.95 108.71 1061.07 108.713C1064.46 108.717 1066.33 110.399 1066.32 112.847V113.087L1064.31 113.085V112.821C1064.31 111.405 1063.18 110.492 1061.07 110.489C1059.13 110.487 1057.97 111.278 1057.97 112.358C1057.97 115.046 1066.52 112.919 1066.51 117.695C1066.51 120.263 1063.99 121.46 1061.23 121.457Z" fill="#94A8FD"/>
<path d="M863.816 93.7519H882.92V100.568H863.816V120.344H856.904V100.568H837.8V93.7519H856.904V73.8799H863.816V93.7519Z" fill="#94A8FD"/>
</g>
<defs>
<clipPath id="clip0_6_3369">
<rect width="1108" height="200" fill="white"/>
</clipPath>
</defs>
</svg>
