<svg width="845" height="705" viewBox="0 0 845 705" fill="none" xmlns="http://www.w3.org/2000/svg">
<circle cx="421" cy="343" r="99" stroke="#94A8FD" stroke-width="2"/>
<path d="M388.04 347.643C378.584 347.633 373.549 343.067 373.556 336.827L373.558 335.627L377.782 335.632L377.78 336.928C377.776 340.768 381.661 343.604 388.141 343.611C393.997 343.618 397.791 341.222 397.796 337.382C397.806 328.214 374.327 334.716 374.341 321.996C374.347 317.004 378.096 312.544 387.504 312.555C396.96 312.565 401.227 316.986 401.22 322.938L401.218 324.282L396.994 324.277L396.996 322.885C397 319.285 393.643 316.593 387.451 316.586C381.739 316.58 378.617 318.833 378.613 322.001C378.604 330.017 401.938 324.379 402.068 337.339C402.109 343.003 397.496 347.654 388.04 347.643ZM432.817 317.213L413.041 317.191L413.029 328.375L430.645 328.395L430.64 332.427L413.024 332.407L413.013 343.015L432.789 343.037L432.784 347.069L408.784 347.042L408.822 313.202L432.822 313.229L432.817 317.213ZM453.589 347.669C443.653 347.657 438.906 343.284 438.915 336.036L438.928 324.228C438.936 316.98 443.693 312.617 453.581 312.629C463.517 312.64 468.216 317.013 468.208 324.261L468.206 325.605L463.742 325.6L463.743 324.784C463.749 319.504 460.824 316.669 453.624 316.661C446.184 316.652 443.157 319.481 443.151 324.761L443.139 335.513C443.133 340.793 446.154 343.628 453.546 343.637C460.794 343.645 463.725 340.816 463.731 335.536L463.732 334.72L468.196 334.725L468.194 336.069C468.186 343.317 463.477 347.68 453.589 347.669Z" fill="#94A8FD"/>
<path d="M352.647 362.245C354.484 362.245 355.485 363.169 355.485 364.676V367.569C355.485 369.076 354.484 370 352.658 370H349.875V362.245H352.647ZM354.517 367.481V364.753C354.517 363.719 353.945 363.158 352.713 363.158H350.843V369.076H352.702C353.945 369.076 354.517 368.526 354.517 367.481ZM359.054 364.302C360.473 364.302 361.364 365.138 361.364 366.381V367.503H357.646V367.756C357.646 368.79 358.108 369.329 359.087 369.329C359.89 369.329 360.407 368.966 360.407 368.284V368.218H361.342C361.342 369.45 360.462 370.132 359.109 370.132C357.514 370.132 356.722 369.175 356.722 367.745V366.667C356.722 365.237 357.536 364.302 359.054 364.302ZM357.646 366.711H360.418V366.392C360.418 365.534 359.956 365.105 359.087 365.105C358.086 365.105 357.646 365.655 357.646 366.667V366.711ZM364.877 370.132C363.37 370.132 362.545 369.263 362.545 367.833V366.601C362.545 365.171 363.359 364.302 364.877 364.302C366.307 364.302 367.165 365.138 367.165 366.48V366.59H366.23V366.458C366.23 365.622 365.746 365.193 364.877 365.193C363.92 365.193 363.48 365.677 363.48 366.656V367.778C363.48 368.757 363.909 369.241 364.877 369.241C365.735 369.241 366.23 368.812 366.23 367.976V367.844H367.165V367.954C367.165 369.296 366.318 370.132 364.877 370.132ZM370.688 364.302C372.107 364.302 372.998 365.138 372.998 366.381V367.503H369.28V367.756C369.28 368.79 369.742 369.329 370.721 369.329C371.524 369.329 372.041 368.966 372.041 368.284V368.218H372.976C372.976 369.45 372.096 370.132 370.743 370.132C369.148 370.132 368.356 369.175 368.356 367.745V366.667C368.356 365.237 369.17 364.302 370.688 364.302ZM369.28 366.711H372.052V366.392C372.052 365.534 371.59 365.105 370.721 365.105C369.72 365.105 369.28 365.655 369.28 366.667V366.711ZM376.961 364.302C378.27 364.302 379.073 365.028 379.073 366.755V370H378.149V366.777C378.149 365.688 377.654 365.193 376.774 365.193C375.982 365.193 375.432 365.578 375.322 366.425V370H374.387V364.445H375.014L375.179 365.05C375.586 364.544 376.213 364.302 376.961 364.302ZM382.85 369.109H383.334V370H382.652C381.409 370 380.782 369.406 380.782 368.075V365.325H380.034V364.445H380.782V362.817H381.717V364.445H383.235V365.325H381.717V367.866C381.717 368.757 382.091 369.109 382.85 369.109ZM386.908 364.346C387.007 364.346 387.117 364.346 387.227 364.357V365.215C387.073 365.182 386.908 365.16 386.754 365.16C385.962 365.16 385.291 365.589 385.291 366.502V370H384.356V364.445H385.005L385.192 365.017C385.599 364.577 386.248 364.346 386.908 364.346ZM392.042 364.445H392.691V370H392.042L391.866 369.439C391.47 369.912 390.865 370.143 390.128 370.143C388.764 370.143 387.961 369.45 387.961 367.8V366.645C387.961 364.984 388.764 364.302 390.128 364.302C390.865 364.302 391.47 364.533 391.866 365.006L392.042 364.445ZM390.293 369.252C391.14 369.252 391.679 368.834 391.756 367.91V366.524C391.679 365.611 391.151 365.193 390.293 365.193C389.358 365.193 388.896 365.644 388.896 366.7V367.734C388.896 368.79 389.358 369.252 390.293 369.252ZM394.315 361.53H395.25V370H394.315V361.53ZM396.892 363.576V362.432H397.882V363.576H396.892ZM396.914 370V364.445H397.849V370H396.914ZM403.562 364.445V365.182L400.449 369.109H403.562V370H399.173V369.263L402.308 365.325H399.327V364.445H403.562ZM406.986 364.302C408.405 364.302 409.296 365.138 409.296 366.381V367.503H405.578V367.756C405.578 368.79 406.04 369.329 407.019 369.329C407.822 369.329 408.339 368.966 408.339 368.284V368.218H409.274C409.274 369.45 408.394 370.132 407.041 370.132C405.446 370.132 404.654 369.175 404.654 367.745V366.667C404.654 365.237 405.468 364.302 406.986 364.302ZM405.578 366.711H408.35V366.392C408.35 365.534 407.888 365.105 407.019 365.105C406.018 365.105 405.578 365.655 405.578 366.667V366.711ZM414.271 361.53H415.195V370H414.546L414.37 369.439C413.985 369.912 413.38 370.143 412.643 370.143C411.279 370.143 410.476 369.461 410.476 367.8V366.645C410.476 364.984 411.279 364.302 412.643 364.302C413.314 364.302 413.886 364.489 414.271 364.885V361.53ZM412.808 369.252C413.655 369.252 414.194 368.834 414.271 367.91V366.524C414.194 365.611 413.666 365.193 412.808 365.193C411.873 365.193 411.411 365.644 411.411 366.7V367.734C411.411 368.801 411.873 369.252 412.808 369.252ZM422.509 362.245C424.027 362.245 424.885 363.015 424.885 364.291V365.138C424.885 366.403 424.027 367.184 422.52 367.184H420.441V370H419.473V362.245H422.509ZM423.928 365.138V364.291C423.928 363.554 423.488 363.158 422.575 363.158H420.441V366.26H422.564C423.488 366.26 423.928 365.875 423.928 365.138ZM428.148 364.302C429.567 364.302 430.458 365.138 430.458 366.381V367.503H426.74V367.756C426.74 368.79 427.202 369.329 428.181 369.329C428.984 369.329 429.501 368.966 429.501 368.284V368.218H430.436C430.436 369.45 429.556 370.132 428.203 370.132C426.608 370.132 425.816 369.175 425.816 367.745V366.667C425.816 365.237 426.63 364.302 428.148 364.302ZM426.74 366.711H429.512V366.392C429.512 365.534 429.05 365.105 428.181 365.105C427.18 365.105 426.74 365.655 426.74 366.667V366.711ZM434.399 364.346C434.498 364.346 434.608 364.346 434.718 364.357V365.215C434.564 365.182 434.399 365.16 434.245 365.16C433.453 365.16 432.782 365.589 432.782 366.502V370H431.847V364.445H432.496L432.683 365.017C433.09 364.577 433.739 364.346 434.399 364.346ZM441.476 364.302C442.73 364.302 443.412 365.072 443.412 366.755V370H442.477V366.733C442.477 365.71 442.059 365.193 441.333 365.193C440.673 365.193 440.178 365.611 440.09 366.48V366.711V370H439.155V366.733C439.155 365.71 438.737 365.193 438 365.193C437.351 365.193 436.856 365.611 436.757 366.414V370H435.822V364.445H436.449L436.614 365.017C436.977 364.544 437.527 364.302 438.143 364.302C438.935 364.302 439.496 364.599 439.804 365.226C440.156 364.61 440.783 364.302 441.476 364.302ZM444.964 363.576V362.432H445.954V363.576H444.964ZM444.986 370V364.445H445.921V370H444.986ZM449.477 370.132C448.047 370.132 447.211 369.395 447.211 368.284V368.174H448.135V368.273C448.135 368.911 448.641 369.296 449.521 369.296C450.203 369.296 450.742 369.021 450.742 368.504C450.742 367.195 447.343 367.998 447.343 365.985C447.343 364.962 448.168 364.302 449.444 364.302C450.808 364.302 451.6 365.028 451.6 366.106V366.216H450.676V366.106C450.676 365.512 450.247 365.138 449.455 365.138C448.707 365.138 448.267 365.468 448.267 365.919C448.267 367.118 451.666 366.359 451.666 368.438C451.666 369.571 450.654 370.132 449.477 370.132ZM454.816 370.132C453.386 370.132 452.55 369.395 452.55 368.284V368.174H453.474V368.273C453.474 368.911 453.98 369.296 454.86 369.296C455.542 369.296 456.081 369.021 456.081 368.504C456.081 367.195 452.682 367.998 452.682 365.985C452.682 364.962 453.507 364.302 454.783 364.302C456.147 364.302 456.939 365.028 456.939 366.106V366.216H456.015V366.106C456.015 365.512 455.586 365.138 454.794 365.138C454.046 365.138 453.606 365.468 453.606 365.919C453.606 367.118 457.005 366.359 457.005 368.438C457.005 369.571 455.993 370.132 454.816 370.132ZM458.241 363.576V362.432H459.231V363.576H458.241ZM458.263 370V364.445H459.198V370H458.263ZM463.008 370.143C461.446 370.143 460.632 369.263 460.632 367.833V366.601C460.632 365.171 461.446 364.302 462.997 364.302C464.559 364.302 465.373 365.171 465.373 366.601V367.833C465.373 369.263 464.559 370.143 463.008 370.143ZM462.997 369.252C463.998 369.252 464.438 368.757 464.438 367.778V366.656C464.438 365.677 464.009 365.193 463.008 365.193C462.007 365.193 461.567 365.677 461.567 366.656V367.778C461.567 368.757 461.996 369.252 462.997 369.252ZM469.344 364.302C470.653 364.302 471.456 365.028 471.456 366.755V370H470.532V366.777C470.532 365.688 470.037 365.193 469.157 365.193C468.365 365.193 467.815 365.578 467.705 366.425V370H466.77V364.445H467.397L467.562 365.05C467.969 364.544 468.596 364.302 469.344 364.302ZM473.044 361.53H473.979V370H473.044V361.53ZM477.745 364.302C479.164 364.302 480.055 365.138 480.055 366.381V367.503H476.337V367.756C476.337 368.79 476.799 369.329 477.778 369.329C478.581 369.329 479.098 368.966 479.098 368.284V368.218H480.033C480.033 369.45 479.153 370.132 477.8 370.132C476.205 370.132 475.413 369.175 475.413 367.745V366.667C475.413 365.237 476.227 364.302 477.745 364.302ZM476.337 366.711H479.109V366.392C479.109 365.534 478.647 365.105 477.778 365.105C476.777 365.105 476.337 365.655 476.337 366.667V366.711ZM483.358 370.132C481.928 370.132 481.092 369.395 481.092 368.284V368.174H482.016V368.273C482.016 368.911 482.522 369.296 483.402 369.296C484.084 369.296 484.623 369.021 484.623 368.504C484.623 367.195 481.224 367.998 481.224 365.985C481.224 364.962 482.049 364.302 483.325 364.302C484.689 364.302 485.481 365.028 485.481 366.106V366.216H484.557V366.106C484.557 365.512 484.128 365.138 483.336 365.138C482.588 365.138 482.148 365.468 482.148 365.919C482.148 367.118 485.547 366.359 485.547 368.438C485.547 369.571 484.535 370.132 483.358 370.132ZM488.697 370.132C487.267 370.132 486.431 369.395 486.431 368.284V368.174H487.355V368.273C487.355 368.911 487.861 369.296 488.741 369.296C489.423 369.296 489.962 369.021 489.962 368.504C489.962 367.195 486.563 367.998 486.563 365.985C486.563 364.962 487.388 364.302 488.664 364.302C490.028 364.302 490.82 365.028 490.82 366.106V366.216H489.896V366.106C489.896 365.512 489.467 365.138 488.675 365.138C487.927 365.138 487.487 365.468 487.487 365.919C487.487 367.118 490.886 366.359 490.886 368.438C490.886 369.571 489.874 370.132 488.697 370.132ZM361.007 377.951H360.039V377.632C360.039 376.598 359.412 376.026 358.092 376.026C356.761 376.026 356.134 376.598 356.134 377.632V380.602C356.134 381.636 356.761 382.219 358.081 382.219C359.412 382.219 360.039 381.636 360.039 380.602V379.843H357.971V378.93H361.007V380.679C361.007 382.186 360.006 383.143 358.092 383.143C356.178 383.143 355.166 382.186 355.166 380.679V377.555C355.166 376.048 356.167 375.102 358.081 375.102C359.995 375.102 361.007 376.048 361.007 377.555V377.951ZM362.486 374.53H363.421V383H362.486V374.53ZM367.23 383.143C365.668 383.143 364.854 382.263 364.854 380.833V379.601C364.854 378.171 365.668 377.302 367.219 377.302C368.781 377.302 369.595 378.171 369.595 379.601V380.833C369.595 382.263 368.781 383.143 367.23 383.143ZM367.219 382.252C368.22 382.252 368.66 381.757 368.66 380.778V379.656C368.66 378.677 368.231 378.193 367.23 378.193C366.229 378.193 365.789 378.677 365.789 379.656V380.778C365.789 381.757 366.218 382.252 367.219 382.252ZM373.545 377.302C374.909 377.302 375.712 377.984 375.712 379.645V380.8C375.712 382.461 374.909 383.143 373.545 383.143C372.808 383.143 372.203 382.912 371.818 382.45L371.642 383H370.993V374.53H371.928V377.885C372.313 377.489 372.874 377.302 373.545 377.302ZM374.788 380.734V379.7C374.788 378.644 374.315 378.193 373.38 378.193C372.555 378.193 372.038 378.578 371.928 379.425V381.02C372.038 381.867 372.566 382.252 373.38 382.252C374.315 382.252 374.788 381.801 374.788 380.734ZM380.977 377.445H381.626V383H380.977L380.801 382.439C380.405 382.912 379.8 383.143 379.063 383.143C377.699 383.143 376.896 382.45 376.896 380.8V379.645C376.896 377.984 377.699 377.302 379.063 377.302C379.8 377.302 380.405 377.533 380.801 378.006L380.977 377.445ZM379.228 382.252C380.075 382.252 380.614 381.834 380.691 380.91V379.524C380.614 378.611 380.086 378.193 379.228 378.193C378.293 378.193 377.831 378.644 377.831 379.7V380.734C377.831 381.79 378.293 382.252 379.228 382.252ZM383.25 374.53H384.185V383H383.25V374.53ZM391.088 383.143C389.24 383.143 388.206 382.164 388.206 380.789V380.492H389.174V380.844C389.174 381.669 389.922 382.23 391.11 382.23C392.221 382.23 392.947 381.724 392.947 380.888C392.947 378.864 388.382 379.964 388.382 377.225C388.382 376.048 389.196 375.102 391.022 375.102C392.848 375.102 393.75 376.026 393.75 377.335V377.676H392.793V377.302C392.793 376.554 392.144 376.026 391.022 376.026C389.955 376.026 389.35 376.488 389.35 377.203C389.35 378.963 393.904 378.006 393.915 380.844C393.926 382.142 392.958 383.143 391.088 383.143ZM397.393 377.302C398.812 377.302 399.703 378.138 399.703 379.381V380.503H395.985V380.756C395.985 381.79 396.447 382.329 397.426 382.329C398.229 382.329 398.746 381.966 398.746 381.284V381.218H399.681C399.681 382.45 398.801 383.132 397.448 383.132C395.853 383.132 395.061 382.175 395.061 380.745V379.667C395.061 378.237 395.875 377.302 397.393 377.302ZM395.985 379.711H398.757V379.392C398.757 378.534 398.295 378.105 397.426 378.105C396.425 378.105 395.985 378.655 395.985 379.667V379.711ZM403.304 382.109H403.788V383H403.106C401.863 383 401.236 382.406 401.236 381.075V378.325H400.488V377.445H401.236V375.817H402.171V377.445H403.689V378.325H402.171V380.866C402.171 381.757 402.545 382.109 403.304 382.109ZM407.02 382.109H407.504V383H406.822C405.579 383 404.952 382.406 404.952 381.075V378.325H404.204V377.445H404.952V375.817H405.887V377.445H407.405V378.325H405.887V380.866C405.887 381.757 406.261 382.109 407.02 382.109ZM408.548 374.53H409.483V383H408.548V374.53ZM413.249 377.302C414.668 377.302 415.559 378.138 415.559 379.381V380.503H411.841V380.756C411.841 381.79 412.303 382.329 413.282 382.329C414.085 382.329 414.602 381.966 414.602 381.284V381.218H415.537C415.537 382.45 414.657 383.132 413.304 383.132C411.709 383.132 410.917 382.175 410.917 380.745V379.667C410.917 378.237 411.731 377.302 413.249 377.302ZM411.841 379.711H414.613V379.392C414.613 378.534 414.151 378.105 413.282 378.105C412.281 378.105 411.841 378.655 411.841 379.667V379.711ZM422.602 377.302C423.856 377.302 424.538 378.072 424.538 379.755V383H423.603V379.733C423.603 378.71 423.185 378.193 422.459 378.193C421.799 378.193 421.304 378.611 421.216 379.48V379.711V383H420.281V379.733C420.281 378.71 419.863 378.193 419.126 378.193C418.477 378.193 417.982 378.611 417.883 379.414V383H416.948V377.445H417.575L417.74 378.017C418.103 377.544 418.653 377.302 419.269 377.302C420.061 377.302 420.622 377.599 420.93 378.226C421.282 377.61 421.909 377.302 422.602 377.302ZM428.213 377.302C429.632 377.302 430.523 378.138 430.523 379.381V380.503H426.805V380.756C426.805 381.79 427.267 382.329 428.246 382.329C429.049 382.329 429.566 381.966 429.566 381.284V381.218H430.501C430.501 382.45 429.621 383.132 428.268 383.132C426.673 383.132 425.881 382.175 425.881 380.745V379.667C425.881 378.237 426.695 377.302 428.213 377.302ZM426.805 379.711H429.577V379.392C429.577 378.534 429.115 378.105 428.246 378.105C427.245 378.105 426.805 378.655 426.805 379.667V379.711ZM434.486 377.302C435.795 377.302 436.598 378.028 436.598 379.755V383H435.674V379.777C435.674 378.688 435.179 378.193 434.299 378.193C433.507 378.193 432.957 378.578 432.847 379.425V383H431.912V377.445H432.539L432.704 378.05C433.111 377.544 433.738 377.302 434.486 377.302ZM440.375 382.109H440.859V383H440.177C438.934 383 438.307 382.406 438.307 381.075V378.325H437.559V377.445H438.307V375.817H439.242V377.445H440.76V378.325H439.242V380.866C439.242 381.757 439.616 382.109 440.375 382.109ZM443.795 383.132C442.365 383.132 441.529 382.395 441.529 381.284V381.174H442.453V381.273C442.453 381.911 442.959 382.296 443.839 382.296C444.521 382.296 445.06 382.021 445.06 381.504C445.06 380.195 441.661 380.998 441.661 378.985C441.661 377.962 442.486 377.302 443.762 377.302C445.126 377.302 445.918 378.028 445.918 379.106V379.216H444.994V379.106C444.994 378.512 444.565 378.138 443.773 378.138C443.025 378.138 442.585 378.468 442.585 378.919C442.585 380.118 445.984 379.359 445.984 381.438C445.984 382.571 444.972 383.132 443.795 383.132ZM454.306 375.245H455.208V383H454.306L450.797 377.027V383H449.895V375.245H450.797L454.306 381.229V375.245ZM458.968 377.302C460.387 377.302 461.278 378.138 461.278 379.381V380.503H457.56V380.756C457.56 381.79 458.022 382.329 459.001 382.329C459.804 382.329 460.321 381.966 460.321 381.284V381.218H461.256C461.256 382.45 460.376 383.132 459.023 383.132C457.428 383.132 456.636 382.175 456.636 380.745V379.667C456.636 378.237 457.45 377.302 458.968 377.302ZM457.56 379.711H460.332V379.392C460.332 378.534 459.87 378.105 459.001 378.105C458 378.105 457.56 378.655 457.56 379.667V379.711ZM464.878 382.109H465.362V383H464.68C463.437 383 462.81 382.406 462.81 381.075V378.325H462.062V377.445H462.81V375.817H463.745V377.445H465.263V378.325H463.745V380.866C463.745 381.757 464.119 382.109 464.878 382.109ZM471.884 377.445H472.841L471.422 383H470.465L469.277 379.271L468.089 383H467.132L465.713 377.445H466.659L467.693 381.977L468.892 377.445H469.651L470.85 381.999L471.884 377.445ZM475.898 383.143C474.336 383.143 473.522 382.263 473.522 380.833V379.601C473.522 378.171 474.336 377.302 475.887 377.302C477.449 377.302 478.263 378.171 478.263 379.601V380.833C478.263 382.263 477.449 383.143 475.898 383.143ZM475.887 382.252C476.888 382.252 477.328 381.757 477.328 380.778V379.656C477.328 378.677 476.899 378.193 475.898 378.193C474.897 378.193 474.457 378.677 474.457 379.656V380.778C474.457 381.757 474.886 382.252 475.887 382.252ZM482.213 377.346C482.312 377.346 482.422 377.346 482.532 377.357V378.215C482.378 378.182 482.213 378.16 482.059 378.16C481.267 378.16 480.596 378.589 480.596 379.502V383H479.661V377.445H480.31L480.497 378.017C480.904 377.577 481.553 377.346 482.213 377.346ZM488.289 377.445L485.572 379.964L488.289 383H487.156L484.593 380.184V383H483.658V374.53H484.593V379.744L487.112 377.445H488.289Z" fill="#94A8FD"/>
<line x1="331.316" y1="433.387" x2="216.316" y2="527.387" stroke="#94A8FD" stroke-opacity="0.25"/>
<circle cx="132" cy="111" r="74" stroke="#94A8FD" stroke-opacity="0.75" stroke-width="2"/>
<path d="M108.82 81.8317L101.404 81.8234L101.399 86.3954L108.185 86.403L108.183 87.915L101.397 87.9074L101.391 93.0194L99.8074 93.0176L99.8216 80.3277L108.822 80.3377L108.82 81.8317ZM117.705 83.9477L118.785 83.9489L118.774 93.0389L117.694 93.0377L117.372 91.9753C116.669 92.8565 115.534 93.2693 114.058 93.2676C111.556 93.2648 110.045 92.1111 110.049 89.1231L110.05 87.8451C110.054 84.8571 111.567 83.7068 114.069 83.7096C115.545 83.7113 116.678 84.1265 117.379 85.0093L117.705 83.9477ZM114.348 91.8099C116.076 91.8119 117.121 90.985 117.249 89.1852L117.25 87.7992C117.126 85.9811 116.101 85.1699 114.355 85.1679C112.519 85.1659 111.582 85.9928 111.58 87.9908L111.579 88.9808C111.577 90.9608 112.512 91.8079 114.348 91.8099ZM125.307 93.2802C122.643 93.2772 121.15 91.9796 121.152 90.1076L121.153 89.9276L122.683 89.9293L122.682 90.1093C122.681 91.2253 123.652 91.9284 125.416 91.9303C126.658 91.9317 127.739 91.501 127.74 90.583C127.743 88.297 121.333 89.9818 121.336 86.5798C121.338 84.8518 122.852 83.7195 125.192 83.7221C127.73 83.7249 129.132 84.9865 129.13 86.8225L129.13 87.0025L127.618 87.0008L127.618 86.8028C127.619 85.7408 126.774 85.0559 125.19 85.0541C123.732 85.0525 122.867 85.6455 122.867 86.4555C122.864 88.4715 129.274 86.8767 129.27 90.4587C129.268 92.3847 127.377 93.2825 125.307 93.2802ZM135.477 91.5996L136.377 91.6006L136.375 93.0586L135.259 93.0574C133.027 93.0549 131.787 91.9915 131.789 89.9215L131.794 85.4035L130.552 85.4021L130.554 83.9621L131.796 83.9635L131.799 81.2995L133.329 81.3012L133.326 83.9652L136.116 83.9683L136.114 85.4083L133.324 85.4052L133.319 89.5632C133.318 90.9312 134.091 91.5981 135.477 91.5996ZM142.182 83.7411C144.756 83.744 146.393 85.1679 146.39 87.2019L146.388 88.9839L139.44 88.9761C139.438 90.9201 140.337 91.9651 142.281 91.9673C143.811 91.969 144.856 91.3401 144.857 90.2601L144.857 90.1521L146.387 90.1539C146.385 92.1699 144.764 93.284 142.316 93.2813C139.328 93.2779 137.907 91.5483 137.91 89.0464L137.912 87.9124C137.914 85.4104 139.392 83.738 142.182 83.7411ZM139.46 87.6621L144.842 87.6681L144.842 87.3261C144.844 85.8141 143.963 85.0571 142.271 85.0552C140.399 85.0531 139.552 85.9882 139.46 87.6621ZM152.518 93.3107C149.854 93.3077 148.361 92.0101 148.363 90.1381L148.364 89.9581L149.894 89.9598L149.893 90.1398C149.892 91.2558 150.863 91.9589 152.627 91.9608C153.869 91.9622 154.95 91.5315 154.951 90.6135C154.953 88.3275 148.544 90.0123 148.547 86.6103C148.549 84.8823 150.063 83.75 152.403 83.7526C154.941 83.7554 156.343 85.017 156.341 86.853L156.341 87.033L154.829 87.0313L154.829 86.8333C154.83 85.7713 153.985 85.0864 152.401 85.0846C150.943 85.083 150.078 85.676 150.078 86.486C150.075 88.502 156.485 86.9072 156.481 90.4892C156.479 92.4152 154.588 93.313 152.518 93.3107ZM162.688 91.6301L163.588 91.6311L163.586 93.0891L162.47 93.0879C160.238 93.0854 158.997 92.022 159 89.952L159.005 85.434L157.763 85.4326L157.764 83.9926L159.006 83.994L159.009 81.33L160.539 81.3317L160.536 83.9957L163.326 83.9988L163.325 85.4388L160.535 85.4357L160.53 89.5937C160.529 90.9617 161.302 91.6286 162.688 91.6301ZM101.333 113.507L108.839 113.516L108.838 115.028L99.7476 115.018L99.7618 102.328L101.346 102.329L101.333 113.507ZM118.137 105.948L119.217 105.949L119.207 115.039L118.127 115.038L117.804 113.976C117.101 114.857 115.967 115.27 114.491 115.268C111.989 115.265 110.478 114.112 110.481 111.124L110.483 109.846C110.486 106.858 111.999 105.707 114.501 105.71C115.977 105.712 117.111 106.127 117.812 107.01L118.137 105.948ZM114.78 113.81C116.508 113.812 117.553 112.986 117.681 111.186L117.683 109.8C117.559 107.982 116.534 107.17 114.788 107.168C112.952 107.166 112.015 107.993 112.012 109.991L112.011 110.981C112.009 112.961 112.944 113.808 114.78 113.81ZM128.9 105.96L130.43 105.962L130.419 115.736C130.416 117.788 129.011 119.424 126.149 119.421C123.413 119.418 122.28 118.067 122.12 116.447L123.65 116.448C123.829 117.439 124.602 117.961 126.132 117.963C127.824 117.965 128.887 117.12 128.889 115.554L128.891 114.186C128.206 114.923 127.215 115.282 125.973 115.281C123.669 115.278 122.213 113.999 122.216 110.867L122.222 105.953L123.752 105.954L123.746 110.814C123.744 112.866 124.571 113.821 126.245 113.823C127.703 113.825 128.712 113.052 128.894 111.396L128.9 105.96ZM137.271 105.736C139.845 105.739 141.481 107.162 141.479 109.196L141.477 110.978L134.529 110.971C134.527 112.915 135.426 113.96 137.37 113.962C138.9 113.963 139.944 113.335 139.946 112.255L139.946 112.147L141.476 112.148C141.473 114.164 139.852 115.279 137.404 115.276C134.416 115.272 132.996 113.543 132.999 111.041L133 109.907C133.003 107.405 134.481 105.733 137.271 105.736ZM134.548 109.657L139.93 109.663L139.931 109.321C139.933 107.809 139.051 107.052 137.359 107.05C135.487 107.048 134.64 107.983 134.548 109.657ZM148.553 105.82C148.769 105.821 148.985 105.821 149.201 105.839L149.2 107.243C148.894 107.171 148.552 107.134 148.228 107.134C146.824 107.132 145.599 107.743 145.597 109.417L145.591 115.069L144.061 115.067L144.071 105.977L145.151 105.978L145.456 106.969C146.177 106.196 147.329 105.819 148.553 105.82ZM160.314 113.573L163.536 113.577L163.534 115.089L155.506 115.08L155.508 113.568L158.73 113.572L158.741 103.888L155.519 103.884L155.521 102.39L160.327 102.395L160.314 113.573ZM94.1389 130.279C95.1823 130.784 95.7752 131.739 95.774 132.855L95.7729 133.809C95.7707 135.753 94.2933 137.011 92.1153 137.009L85.5813 137.002L85.5956 124.312L91.6796 124.319C93.8396 124.321 95.3324 125.349 95.3303 127.221L95.3294 128.067C95.3283 129.021 94.9134 129.794 94.1389 130.279ZM91.6779 125.777L87.1779 125.772L87.1735 129.714L91.6735 129.719C92.9155 129.72 93.744 129.253 93.7454 128.047L93.7462 127.273C93.7474 126.211 92.9019 125.778 91.6779 125.777ZM94.1889 133.807L94.1899 132.889C94.1912 131.773 93.4359 131.161 92.1219 131.159L87.1719 131.154L87.167 135.546L92.117 135.551C93.431 135.553 94.1877 134.923 94.1889 133.807ZM98.4645 123.156L99.9945 123.158L99.9789 137.018L98.4489 137.016L98.4645 123.156ZM107.012 137.26C104.114 137.256 102.64 135.725 102.643 133.223L102.645 131.711C102.647 129.209 104.125 127.699 107.023 127.702C109.921 127.705 111.395 129.219 111.393 131.721L111.391 133.233C111.388 135.735 109.928 137.263 107.012 137.26ZM107.014 135.802C109.03 135.804 109.859 134.887 109.861 133.087L109.862 131.863C109.864 130.081 109.038 129.162 107.022 129.16C105.024 129.158 104.176 130.075 104.175 131.857L104.173 133.081C104.171 134.881 104.998 135.799 107.014 135.802ZM117.856 137.254C115.03 137.251 113.556 135.737 113.559 133.235L113.561 131.723C113.563 129.221 115.041 127.711 117.849 127.714C120.477 127.717 122.06 129.141 122.057 131.427L122.057 131.463L120.509 131.461L120.509 131.425C120.511 129.949 119.576 129.174 117.866 129.172C115.94 129.17 115.093 130.087 115.091 131.869L115.089 133.093C115.087 134.893 115.914 135.794 117.84 135.796C119.55 135.798 120.505 135.025 120.507 133.549L120.507 133.513L122.055 133.515L122.055 133.551C122.052 135.837 120.466 137.257 117.856 137.254ZM133.199 127.965L127.993 132.081L133.189 137.055L131.209 137.053L126.228 132.385L126.223 137.047L124.693 137.046L124.709 123.186L126.239 123.187L126.229 131.773L131.147 127.963L133.199 127.965ZM138.669 137.277C135.843 137.274 134.369 135.76 134.371 133.258L134.373 131.746C134.376 129.244 135.854 127.734 138.662 127.737C141.29 127.74 142.872 129.164 142.869 131.45L142.869 131.486L141.321 131.484L141.321 131.448C141.323 129.972 140.388 129.197 138.678 129.195C136.752 129.193 135.905 130.11 135.903 131.892L135.902 133.116C135.9 134.916 136.727 135.817 138.653 135.819C140.363 135.821 141.317 135.048 141.319 133.572L141.319 133.536L142.867 133.538L142.867 133.574C142.865 135.86 141.279 137.28 138.669 137.277ZM150.178 127.75C152.554 127.753 154.083 129.015 154.079 132.164L154.074 137.078L152.544 137.077L152.549 132.217C152.551 130.147 151.526 129.21 149.852 129.208C148.214 129.206 147.097 130.015 146.969 131.833L146.964 137.071L145.434 137.069L145.449 123.209L146.979 123.211L146.973 128.935C147.694 128.143 148.81 127.749 150.178 127.75ZM164.211 128L165.291 128.001L165.281 137.091L164.201 137.09L163.878 136.027C163.175 136.909 162.041 137.321 160.565 137.32C158.063 137.317 156.552 136.163 156.555 133.175L156.557 131.897C156.56 128.909 158.073 127.759 160.575 127.762C162.051 127.763 163.185 128.179 163.886 129.061L164.211 128ZM160.854 135.862C162.582 135.864 163.627 135.037 163.755 133.237L163.757 131.851C163.633 130.033 162.608 129.222 160.862 129.22C159.026 129.218 158.089 130.045 158.086 132.043L158.085 133.033C158.083 135.013 159.018 135.86 160.854 135.862ZM168.315 126.582L168.317 124.71L169.937 124.712L169.935 126.584L168.315 126.582ZM168.34 137.094L168.35 128.004L169.88 128.006L169.87 137.096L168.34 137.094ZM177.67 127.781C180.082 127.784 181.592 129.045 181.589 132.195L181.583 137.109L180.053 137.108L180.059 132.248C180.061 130.178 179.054 129.24 177.344 129.239C175.742 129.237 174.607 130.046 174.479 131.863L174.473 137.101L172.943 137.1L172.953 128.01L174.033 128.011L174.302 129.181C175.023 128.228 176.194 127.779 177.67 127.781Z" fill="#94A8FD"/>
<circle cx="422" cy="75.9932" r="74" stroke="#94A8FD" stroke-opacity="0.75" stroke-width="2"/>
<path d="M386.006 60.2892C387.049 60.7944 387.642 61.7491 387.641 62.8651L387.64 63.8191C387.637 65.7631 386.16 67.0214 383.982 67.019L377.448 67.0116L377.462 54.3216L383.546 54.3285C385.706 54.3309 387.199 55.3586 387.197 57.2306L387.196 58.0766C387.195 59.0306 386.78 59.8041 386.006 60.2892ZM383.545 55.7865L379.045 55.7814L379.04 59.7234L383.54 59.7285C384.782 59.7298 385.611 59.2628 385.612 58.0568L385.613 57.2828C385.614 56.2208 384.769 55.7878 383.545 55.7865ZM386.056 63.8173L386.057 62.8993C386.058 61.7833 385.303 61.1704 383.989 61.169L379.039 61.1634L379.034 65.5554L383.984 65.561C385.298 65.5624 386.054 64.9333 386.056 63.8173ZM390.331 53.1661L391.861 53.1678L391.846 67.0278L390.316 67.0261L390.331 53.1661ZM398.879 67.2697C395.981 67.2664 394.507 65.7348 394.51 63.2328L394.511 61.7208C394.514 59.2188 395.992 57.7084 398.89 57.7117C401.788 57.7149 403.262 59.2286 403.259 61.7306L403.258 63.2426C403.255 65.7446 401.795 67.2729 398.879 67.2697ZM398.881 65.8117C400.897 65.8139 401.726 64.8968 401.728 63.0968L401.729 61.8728C401.731 60.0908 400.904 59.1719 398.888 59.1697C396.89 59.1674 396.043 60.0845 396.041 61.8665L396.04 63.0905C396.038 64.8905 396.865 65.8094 398.881 65.8117ZM409.723 67.2638C406.897 67.2606 405.423 65.747 405.426 63.245L405.427 61.733C405.43 59.231 406.908 57.7206 409.716 57.7238C412.344 57.7267 413.926 59.1505 413.924 61.4365L413.924 61.4725L412.376 61.4708L412.376 61.4348C412.377 59.9588 411.442 59.1837 409.732 59.1818C407.806 59.1797 406.959 60.0967 406.957 61.8787L406.956 63.1027C406.954 64.9027 407.781 65.8036 409.707 65.8058C411.417 65.8077 412.372 65.0348 412.373 63.5588L412.373 63.5228L413.921 63.5245L413.921 63.5605C413.919 65.8465 412.333 67.2667 409.723 67.2638ZM425.066 57.975L419.859 62.0912L425.056 67.065L423.076 67.0628L418.095 62.3952L418.09 67.0572L416.56 67.0555L416.575 53.1955L418.105 53.1972L418.096 61.7832L423.014 57.9727L425.066 57.975ZM432.236 54.383C435.728 54.3869 437.49 56.0269 437.487 58.7449L437.483 62.7229C437.48 65.4409 435.714 67.0769 432.222 67.073L426.948 67.0671L426.962 54.3771L432.236 54.383ZM435.899 62.5231L435.903 58.9231C435.905 56.9611 434.827 55.8799 432.343 55.8772L428.545 55.8729L428.534 65.5569L432.314 65.5611C434.816 65.5639 435.897 64.5031 435.899 62.5231ZM449.097 67.0919L447.787 63.7785L441.757 63.7717L440.457 67.0823L438.891 67.0805L443.621 54.3958L445.961 54.3984L450.663 67.0937L449.097 67.0919ZM444.79 55.8731L442.335 62.2604L447.213 62.2658L444.79 55.8731ZM463.066 58.8456L461.482 58.8438L461.482 58.7358C461.484 56.7558 460.297 55.6925 457.597 55.6895C454.861 55.6864 453.672 56.7471 453.67 58.7271L453.665 62.7591C453.663 64.7391 454.85 65.8204 457.568 65.8234C460.286 65.8265 461.475 64.7478 461.477 62.7678L461.478 61.9398L457.194 61.935L457.196 60.441L463.064 60.4476L463.061 62.9676C463.058 65.6856 461.292 67.3396 457.584 67.3355C453.858 67.3313 452.078 65.6733 452.081 62.9553L452.086 58.5273C452.089 55.8093 453.873 54.1733 457.581 54.1774C461.307 54.1816 463.069 55.8216 463.066 58.5396L463.066 58.8456ZM382.586 76.3274L382.585 77.8214L377.923 77.8162L377.91 89.0122L376.326 89.0104L376.339 77.8144L371.641 77.8091L371.642 76.3151L382.586 76.3274ZM385.538 79.6967C388.112 79.6996 389.749 81.1234 389.747 83.1574L389.745 84.9394L382.797 84.9316C382.794 86.8756 383.693 87.9206 385.637 87.9228C387.167 87.9245 388.212 87.2957 388.213 86.2157L388.213 86.1077L389.743 86.1094C389.741 88.1254 388.12 89.2396 385.672 89.2369C382.684 89.2335 381.264 87.5039 381.267 85.0019L381.268 83.8679C381.271 81.3659 382.748 79.6936 385.538 79.6967ZM382.816 83.6177L388.198 83.6237L388.198 83.2817C388.2 81.7697 387.319 81.0127 385.627 81.0108C383.755 81.0087 382.908 81.9438 382.816 83.6177ZM396.216 89.2487C393.39 89.2455 391.916 87.7319 391.919 85.2299L391.92 83.7179C391.923 81.2159 393.401 79.7055 396.209 79.7087C398.837 79.7116 400.419 81.1354 400.417 83.4214L400.417 83.4574L398.869 83.4557L398.869 83.4197C398.87 81.9437 397.935 81.1686 396.225 81.1667C394.299 81.1645 393.452 82.0816 393.45 83.8636L393.449 85.0876C393.447 86.8876 394.274 87.7885 396.2 87.7907C397.91 87.7926 398.865 87.0196 398.866 85.5436L398.866 85.5076L400.414 85.5094L400.414 85.5454C400.412 87.8314 398.826 89.2516 396.216 89.2487ZM407.725 79.7216C410.101 79.7242 411.63 80.986 411.626 84.136L411.621 89.0499L410.091 89.0482L410.096 84.1882C410.098 82.1182 409.073 81.1811 407.399 81.1792C405.761 81.1774 404.645 81.9861 404.517 83.804L404.511 89.042L402.981 89.0403L402.996 75.1803L404.526 75.182L404.52 80.906C405.241 80.1148 406.357 79.72 407.725 79.7216ZM419.238 79.7345C421.65 79.7372 423.161 80.9989 423.157 84.1489L423.152 89.0629L421.622 89.0612L421.627 84.2012C421.63 82.1312 420.623 81.194 418.913 81.1921C417.311 81.1903 416.176 81.999 416.048 83.8169L416.042 89.0549L414.512 89.0532L414.522 79.9632L415.602 79.9644L415.871 81.1347C416.592 80.1815 417.762 79.7328 419.238 79.7345ZM430.003 89.3046C427.105 89.3013 425.631 87.7697 425.633 85.2677L425.635 83.7557C425.638 81.2537 427.116 79.7433 430.014 79.7466C432.912 79.7498 434.386 81.2635 434.383 83.7655L434.381 85.2775C434.379 87.7795 432.919 89.3078 430.003 89.3046ZM430.005 87.8466C432.021 87.8488 432.85 86.9317 432.852 85.1317L432.853 83.9077C432.855 82.1257 432.028 81.2068 430.012 81.2046C428.014 81.2023 427.167 82.1194 427.165 83.9014L427.164 85.1254C427.162 86.9254 427.989 87.8443 430.005 87.8466ZM437.047 75.2184L438.577 75.2202L438.561 89.0801L437.031 89.0784L437.047 75.2184ZM445.595 89.322C442.697 89.3188 441.222 87.7871 441.225 85.2851L441.227 83.7731C441.23 81.2711 442.707 79.7608 445.605 79.764C448.503 79.7673 449.978 81.2809 449.975 83.7829L449.973 85.2949C449.97 87.7969 448.511 89.3253 445.595 89.322ZM445.596 87.864C447.612 87.8663 448.441 86.9492 448.443 85.1492L448.445 83.9252C448.447 82.1432 447.62 81.2243 445.604 81.222C443.606 81.2198 442.759 82.1368 442.757 83.9188L442.755 85.1428C442.753 86.9428 443.58 87.8618 445.596 87.864ZM459.797 80.0139L460.877 80.0152L460.866 89.7891C460.864 91.8411 459.422 93.4775 456.506 93.4743C453.608 93.471 452.458 92.1197 452.279 90.4995L453.827 90.5013C453.988 91.4914 454.816 92.0144 456.472 92.0162C458.218 92.0182 459.335 91.1734 459.336 89.6074L459.338 88.1854C458.635 88.9586 457.555 89.3354 456.151 89.3339C453.649 89.3311 452.138 88.1774 452.141 85.1894L452.143 83.9114C452.146 80.9234 453.659 79.7731 456.161 79.7759C457.637 79.7775 458.771 80.1928 459.472 81.0756L459.797 80.0139ZM456.44 87.8762C458.168 87.8781 459.213 87.0513 459.341 85.2514L459.343 83.8654C459.219 82.0473 458.194 81.2361 456.448 81.2342C454.612 81.2321 453.675 82.0591 453.673 84.0571L453.672 85.0471C453.669 87.0451 454.604 87.8741 456.44 87.8762ZM470.56 80.026L472.09 80.0277L472.079 89.8017C472.077 91.8537 470.671 93.4901 467.809 93.4869C465.073 93.4839 463.94 92.1326 463.78 90.5124L465.31 90.5141C465.489 91.5043 466.262 92.0272 467.792 92.0289C469.484 92.0308 470.547 91.186 470.549 89.62L470.551 88.252C469.866 88.9892 468.875 89.3481 467.633 89.3467C465.329 89.3441 463.873 88.0645 463.876 84.9325L463.882 80.0185L465.412 80.0202L465.406 84.8802C465.404 86.9322 466.231 87.8872 467.905 87.889C469.363 87.8907 470.372 87.1178 470.554 85.462L470.56 80.026Z" fill="#94A8FD"/>
<circle cx="710" cy="111" r="74" stroke="#94A8FD" stroke-opacity="0.75" stroke-width="2"/>
<path d="M653.835 105.002L653.849 92.312L655.433 92.3138L655.419 105.004L653.835 105.002ZM663.183 95.6885C665.595 95.6912 667.106 96.9529 667.103 100.103L667.097 105.017L665.567 105.015L665.572 100.155C665.575 98.0852 664.568 97.148 662.858 97.1461C661.256 97.1443 660.121 97.9531 659.993 99.7709L659.987 105.009L658.457 105.007L658.467 95.9172L659.547 95.9184L659.816 97.0887C660.537 96.1355 661.707 95.6868 663.183 95.6885ZM673.534 105.258C670.87 105.255 669.377 103.957 669.38 102.085L669.38 101.905L670.91 101.907L670.91 102.087C670.908 103.203 671.88 103.906 673.644 103.908C674.886 103.91 675.966 103.479 675.967 102.561C675.97 100.275 669.56 101.96 669.564 98.5576C669.565 96.8296 671.079 95.6973 673.419 95.7C675.957 95.7028 677.359 96.9644 677.357 98.8004L677.357 98.9804L675.845 98.9787L675.845 98.7807C675.846 97.7187 675.001 97.0337 673.417 97.032C671.959 97.0303 671.095 97.6234 671.094 98.4334C671.091 100.449 677.501 98.8545 677.497 102.437C677.495 104.363 675.604 105.26 673.534 105.258ZM683.704 103.577L684.604 103.578L684.602 105.036L683.486 105.035C681.254 105.033 680.014 103.969 680.016 101.899L680.021 97.3814L678.779 97.38L678.781 95.94L680.023 95.9414L680.026 93.2774L681.556 93.2791L681.553 95.9431L684.343 95.9462L684.341 97.3862L681.551 97.3831L681.546 101.541C681.545 102.909 682.318 103.576 683.704 103.577ZM693.793 95.9568L694.873 95.958L694.863 105.048L693.783 105.047L693.46 103.984C692.757 104.866 691.623 105.278 690.147 105.277C687.645 105.274 686.134 104.12 686.137 101.132L686.139 99.8542C686.142 96.8662 687.655 95.7159 690.157 95.7187C691.633 95.7204 692.767 96.1356 693.468 97.0184L693.793 95.9568ZM690.436 103.819C692.164 103.821 693.209 102.994 693.337 101.194L693.339 99.8083C693.215 97.9901 692.19 97.179 690.444 97.177C688.608 97.175 687.671 98.0019 687.668 99.9999L687.667 100.99C687.665 102.97 688.6 103.817 690.436 103.819ZM702.576 95.7326C704.988 95.7353 706.499 96.997 706.495 100.147L706.49 105.061L704.96 105.059L704.965 100.199C704.967 98.1293 703.96 97.1922 702.25 97.1903C700.648 97.1885 699.513 97.9972 699.385 99.8151L699.38 105.053L697.85 105.051L697.86 95.9614L698.94 95.9626L699.208 97.1329C699.93 96.1797 701.1 95.731 702.576 95.7326ZM713.27 103.611L714.17 103.612L714.169 105.07L713.053 105.068C710.821 105.066 709.58 104.002 709.582 101.932L709.587 97.4145L708.345 97.4131L708.347 95.9731L709.589 95.9745L709.592 93.3105L711.122 93.3122L711.119 95.9762L713.909 95.9793L713.907 97.4193L711.117 97.4162L711.113 101.574C711.111 102.942 711.884 103.609 713.27 103.611ZM729.996 93.8914L722.58 93.8831L722.575 98.4551L729.361 98.4627L729.359 99.9747L722.573 99.9671L722.568 105.079L720.984 105.077L720.998 92.3873L729.998 92.3974L729.996 93.8914ZM732.315 94.578L732.317 92.706L733.937 92.7078L733.935 94.5798L732.315 94.578ZM732.34 105.09L732.35 96L733.88 96.0017L733.87 105.092L732.34 105.09ZM741.67 95.7765C744.082 95.7792 745.592 97.0409 745.589 100.191L745.583 105.105L744.053 105.103L744.059 100.243C744.061 98.1731 743.054 97.236 741.344 97.2341C739.742 97.2323 738.607 98.041 738.479 99.8589L738.473 105.097L736.943 105.095L736.953 96.0052L738.033 96.0064L738.302 97.1767C739.023 96.2235 740.194 95.7748 741.67 95.7765ZM755.721 96.0262L756.801 96.0274L756.791 105.117L755.711 105.116L755.388 104.054C754.685 104.935 753.55 105.348 752.074 105.346C749.572 105.343 748.062 104.19 748.065 101.202L748.066 99.9236C748.07 96.9356 749.583 95.7853 752.085 95.7881C753.561 95.7898 754.695 96.2051 755.396 97.0878L755.721 96.0262ZM752.364 103.888C754.092 103.89 755.137 103.064 755.265 101.264L755.266 99.8777C755.142 98.0596 754.117 97.2484 752.371 97.2465C750.535 97.2444 749.598 98.0713 749.596 100.069L749.595 101.059C749.593 103.039 750.528 103.886 752.364 103.888ZM759.865 91.2608L761.395 91.2626L761.379 105.123L759.849 105.121L759.865 91.2608ZM667.538 127.251C663.992 127.247 662.104 125.535 662.107 123.195L662.108 122.745L663.692 122.747L663.691 123.233C663.689 124.673 665.146 125.737 667.576 125.739C669.772 125.742 671.195 124.843 671.197 123.403C671.201 119.965 662.396 122.404 662.401 117.634C662.403 115.762 663.809 114.089 667.337 114.093C670.883 114.097 672.483 115.755 672.481 117.987L672.48 118.491L670.896 118.489L670.897 117.967C670.898 116.617 669.64 115.608 667.318 115.605C665.176 115.603 664.005 116.447 664.003 117.635C664 120.641 672.75 118.527 672.799 123.387C672.814 125.511 671.084 127.255 667.538 127.251ZM679.126 117.706C681.7 117.709 683.336 119.133 683.334 121.167L683.332 122.949L676.384 122.941C676.382 124.885 677.281 125.93 679.225 125.932C680.755 125.934 681.799 125.305 681.801 124.225L681.801 124.117L683.331 124.119C683.328 126.135 681.707 127.249 679.259 127.247C676.271 127.243 674.851 125.514 674.854 123.012L674.855 121.878C674.858 119.376 676.336 117.703 679.126 117.706ZM676.403 121.627L681.785 121.633L681.786 121.291C681.788 119.779 680.906 119.022 679.214 119.02C677.342 119.018 676.495 119.953 676.403 121.627ZM689.805 125.584L690.705 125.585L690.704 127.043L689.588 127.042C687.356 127.04 686.115 125.976 686.117 123.906L686.122 119.388L684.88 119.387L684.882 117.947L686.124 117.948L686.127 115.284L687.657 115.286L687.654 117.95L690.444 117.953L690.442 119.393L687.652 119.39L687.648 123.548C687.646 124.916 688.419 125.583 689.805 125.584ZM696.538 125.592L697.438 125.593L697.436 127.051L696.32 127.05C694.088 127.047 692.847 125.984 692.85 123.914L692.855 119.396L691.613 119.394L691.614 117.954L692.856 117.956L692.859 115.292L694.389 115.293L694.386 117.957L697.176 117.961L697.175 119.401L694.385 119.397L694.38 123.555C694.379 124.923 695.152 125.59 696.538 125.592ZM699.468 113.193L700.998 113.195L700.983 127.055L699.453 127.053L699.468 113.193ZM707.919 117.739C710.493 117.742 712.129 119.165 712.127 121.199L712.125 122.981L705.177 122.974C705.175 124.918 706.074 125.963 708.018 125.965C709.548 125.966 710.592 125.338 710.593 124.258L710.594 124.15L712.124 124.151C712.121 126.167 710.5 127.282 708.052 127.279C705.064 127.275 703.644 125.546 703.647 123.044L703.648 121.91C703.651 119.408 705.129 117.736 707.919 117.739ZM705.196 121.66L710.578 121.666L710.579 121.324C710.58 119.812 709.699 119.055 708.007 119.053C706.135 119.051 705.288 119.986 705.196 121.66ZM724.979 117.758C727.319 117.76 728.578 119.13 728.574 122.172L728.569 127.086L727.039 127.084L727.044 122.116C727.046 120.226 726.201 119.217 724.816 119.216C723.502 119.214 722.565 120.059 722.419 121.769L722.418 122.165L722.413 127.079L720.883 127.077L720.888 122.109C720.89 120.219 720.046 119.21 718.66 119.209C717.31 119.207 716.354 120.124 716.245 121.834L716.239 127.072L714.709 127.07L714.719 117.98L715.799 117.981L716.05 119.062C716.681 118.18 717.689 117.75 718.841 117.751C720.335 117.753 721.379 118.312 721.935 119.5C722.548 118.331 723.665 117.756 724.979 117.758ZM735.323 117.769C737.897 117.772 739.533 119.196 739.531 121.23L739.529 123.012L732.581 123.004C732.579 124.948 733.478 125.993 735.422 125.995C736.952 125.997 737.997 125.368 737.998 124.288L737.998 124.18L739.528 124.182C739.526 126.198 737.904 127.312 735.456 127.31C732.468 127.306 731.048 125.577 731.051 123.075L731.052 121.941C731.055 119.439 732.533 117.766 735.323 117.769ZM732.601 121.69L737.983 121.696L737.983 121.354C737.985 119.842 737.104 119.085 735.412 119.083C733.54 119.081 732.693 120.016 732.601 121.69ZM746.839 117.782C749.251 117.785 750.762 119.047 750.758 122.197L750.753 127.111L749.223 127.109L749.228 122.249C749.231 120.179 748.224 119.242 746.514 119.24C744.912 119.238 743.777 120.047 743.649 121.865L743.643 127.103L742.113 127.101L742.123 118.011L743.203 118.012L743.472 119.182C744.193 118.229 745.363 117.781 746.839 117.782ZM757.534 125.66L758.434 125.661L758.432 127.119L757.316 127.118C755.084 127.116 753.843 126.052 753.846 123.982L753.851 119.464L752.609 119.463L752.61 118.023L753.852 118.024L753.855 115.36L755.385 115.362L755.382 118.026L758.172 118.029L758.171 119.469L755.381 119.466L755.376 123.624C755.375 124.992 756.148 125.659 757.534 125.66Z" fill="#94A8FD"/>
<circle cx="127" cy="574" r="74" stroke="#94A8FD" stroke-opacity="0.75" stroke-width="2"/>
<path d="M71.866 561.311C74.566 561.314 75.9865 562.612 75.9841 564.79L75.9829 565.834C75.9805 568.012 74.557 569.324 71.875 569.321L67.465 569.316L67.4598 573.996L65.8758 573.994L65.89 561.304L71.866 561.311ZM74.3989 565.832L74.4001 564.788C74.4015 563.492 73.6643 562.807 71.9723 562.805L67.4723 562.8L67.4667 567.804L71.9487 567.809C73.6407 567.811 74.3975 567.128 74.3989 565.832ZM82.6891 564.761C82.9051 564.761 83.1211 564.762 83.3371 564.78L83.3355 566.184C83.0296 566.111 82.6877 566.075 82.3637 566.075C80.9597 566.073 79.735 566.684 79.7331 568.358L79.7268 574.01L78.1968 574.008L78.2069 564.918L79.2869 564.919L79.5918 565.91C80.3127 565.136 81.4651 564.76 82.6891 564.761ZM89.0823 574.254C86.1843 574.251 84.71 572.719 84.7128 570.217L84.7145 568.705C84.7173 566.203 86.195 564.693 89.093 564.696C91.991 564.7 93.4653 566.213 93.4625 568.715L93.4608 570.227C93.458 572.729 91.9983 574.258 89.0823 574.254ZM89.0839 572.796C91.0999 572.799 91.9289 571.881 91.931 570.081L91.9323 568.857C91.9343 567.075 91.1073 566.157 89.0914 566.154C87.0934 566.152 86.2463 567.069 86.2443 568.851L86.243 570.075C86.2409 571.875 87.0679 572.794 89.0839 572.796ZM99.9983 574.266C97.1003 574.263 95.626 572.732 95.6288 570.23L95.6305 568.718C95.6333 566.216 97.111 564.705 100.009 564.708C102.907 564.712 104.381 566.225 104.378 568.727L104.377 570.239C104.374 572.741 102.914 574.27 99.9983 574.266ZM99.9999 572.808C102.016 572.811 102.845 571.894 102.847 570.094L102.848 568.87C102.85 567.088 102.023 566.169 100.007 566.166C98.0094 566.164 97.1623 567.081 97.1603 568.863L97.159 570.087C97.1569 571.887 97.9839 572.806 99.9999 572.808ZM110.91 561.643C109.596 561.641 108.84 562.324 108.838 563.746L108.837 564.952L111.681 564.956L111.679 566.396L108.835 566.392L108.827 574.042L107.297 574.041L107.305 566.391L106.243 566.389L106.245 564.949L107.307 564.951L107.308 563.691C107.311 561.567 108.626 560.182 110.804 560.185L111.956 560.186L111.954 561.644L110.91 561.643ZM112.724 569.925L112.726 568.521L117.082 568.526L117.08 569.93L112.724 569.925ZM124.532 574.294C120.77 574.29 118.99 572.65 118.993 569.932L118.998 565.576C119.001 562.804 120.785 561.132 124.547 561.136C128.309 561.14 130.071 562.816 130.068 565.588L130.063 569.944C130.06 572.662 128.294 574.298 124.532 574.294ZM124.534 572.782C127.378 572.785 128.477 571.706 128.479 569.744L128.484 565.766C128.486 563.75 127.389 562.651 124.545 562.648C121.683 562.645 120.584 563.742 120.582 565.758L120.577 569.736C120.575 571.698 121.672 572.779 124.534 572.782ZM136.698 561.672C135.384 561.67 134.627 562.353 134.625 563.775L134.624 564.981L137.468 564.984L137.466 566.424L134.622 566.421L134.614 574.071L133.084 574.07L133.092 566.42L132.03 566.418L132.032 564.978L133.094 564.98L133.095 563.72C133.098 561.596 134.413 560.211 136.591 560.213L137.743 560.215L137.742 561.673L136.698 561.672ZM138.511 569.954L138.513 568.55L142.869 568.555L142.867 569.959L138.511 569.954ZM159.28 561.391L160.936 561.393L157.573 574.079L155.233 574.076L152.455 564.245L149.653 574.07L147.314 574.068L143.98 561.374L145.654 561.376L148.557 572.773L151.63 561.382L153.196 561.384L156.351 572.8L159.28 561.391ZM165.776 574.34C162.878 574.337 161.403 572.805 161.406 570.303L161.408 568.791C161.411 566.289 162.888 564.779 165.786 564.782C168.684 564.785 170.159 566.299 170.156 568.801L170.154 570.313C170.151 572.815 168.692 574.343 165.776 574.34ZM165.777 572.882C167.793 572.884 168.622 571.967 168.624 570.167L168.626 568.943C168.628 567.161 167.801 566.242 165.785 566.24C163.787 566.238 162.94 567.155 162.938 568.937L162.936 570.161C162.934 571.961 163.761 572.88 165.777 572.882ZM177.224 564.867C177.44 564.867 177.656 564.868 177.872 564.886L177.871 566.29C177.565 566.217 177.223 566.181 176.899 566.181C175.495 566.179 174.27 566.79 174.268 568.464L174.262 574.116L172.732 574.114L172.742 565.024L173.822 565.025L174.127 566.016C174.848 565.242 176 564.866 177.224 564.867ZM188.587 565.042L183.381 569.158L188.577 574.132L186.597 574.13L181.616 569.462L181.611 574.124L180.081 574.122L180.097 560.262L181.627 560.264L181.617 568.85L186.535 565.039L188.587 565.042ZM104.395 591.105C104.396 590.121 104.487 589.162 104.668 588.226C104.861 587.29 105.156 586.396 105.553 585.545C105.95 584.693 106.449 583.908 107.05 583.188L108.544 583.19C107.991 583.933 107.522 584.737 107.137 585.6C106.764 586.464 106.481 587.358 106.288 588.282C106.095 589.205 105.998 590.141 105.997 591.089C105.996 592.013 106.091 592.931 106.282 593.844C106.473 594.756 106.754 595.632 107.125 596.472C107.496 597.325 107.957 598.129 108.508 598.886L107.032 598.884C106.433 598.176 105.936 597.401 105.541 596.561C105.146 595.732 104.853 594.856 104.662 593.932C104.483 593.008 104.394 592.065 104.395 591.105ZM116.604 583.361C119.304 583.364 120.725 584.662 120.722 586.84L120.721 587.884C120.718 590.062 119.295 591.374 116.613 591.371L112.203 591.366L112.198 596.046L110.614 596.044L110.628 583.354L116.604 583.361ZM119.137 587.882L119.138 586.838C119.14 585.542 118.402 584.857 116.71 584.855L112.21 584.85L112.205 589.854L116.687 589.859C118.379 589.861 119.135 589.178 119.137 587.882ZM126.754 596.296C123.856 596.293 122.382 594.762 122.384 592.26L122.386 590.748C122.389 588.246 123.867 586.735 126.765 586.738C129.663 586.742 131.137 588.255 131.134 590.757L131.132 592.269C131.13 594.771 129.67 596.3 126.754 596.296ZM126.756 594.838C128.772 594.841 129.601 593.924 129.603 592.124L129.604 590.9C129.606 589.118 128.779 588.199 126.763 588.196C124.765 588.194 123.918 589.111 123.916 590.893L123.915 592.117C123.913 593.917 124.74 594.836 126.756 594.838ZM146.906 583.377L148.562 583.379L145.2 596.065L142.86 596.063L140.081 586.231L137.28 596.056L134.94 596.054L131.606 583.36L133.28 583.362L136.184 594.759L139.256 583.368L140.822 583.37L143.978 594.786L146.906 583.377ZM153.636 591.161C153.635 592.121 153.538 593.063 153.345 593.986C153.164 594.91 152.875 595.786 152.478 596.613C152.093 597.453 151.594 598.226 150.981 598.934L149.505 598.932C150.058 598.177 150.521 597.373 150.894 596.522C151.267 595.682 151.55 594.806 151.743 593.895C151.936 592.983 152.033 592.065 152.034 591.141C152.035 590.193 151.94 589.257 151.749 588.333C151.558 587.408 151.277 586.514 150.906 585.65C150.535 584.785 150.068 583.981 149.505 583.236L150.999 583.238C151.61 583.958 152.107 584.745 152.49 585.597C152.885 586.45 153.172 587.344 153.351 588.28C153.542 589.217 153.637 590.177 153.636 591.161Z" fill="#94A8FD"/>
<circle cx="426" cy="630" r="74" stroke="#94A8FD" stroke-opacity="0.75" stroke-width="2"/>
<path d="M372.465 619.761L370.881 619.759L370.881 619.651C370.883 617.671 369.697 616.608 366.997 616.605C364.261 616.602 363.071 617.662 363.069 619.642L363.065 623.674C363.062 625.654 364.249 626.736 366.967 626.739C369.685 626.742 370.874 625.663 370.877 623.683L370.878 622.855L366.594 622.85L366.595 621.356L372.463 621.363L372.46 623.883C372.457 626.601 370.691 628.255 366.983 628.251C363.257 628.246 361.477 626.588 361.48 623.87L361.485 619.442C361.488 616.724 363.272 615.088 366.98 615.093C370.706 615.097 372.468 616.737 372.465 619.455L372.465 619.761ZM379.004 618.706C381.578 618.709 383.214 620.133 383.212 622.167L383.21 623.949L376.262 623.941C376.259 625.885 377.158 626.93 379.102 626.932C380.632 626.934 381.677 626.305 381.678 625.225L381.678 625.117L383.208 625.119C383.206 627.135 381.585 628.249 379.137 628.246C376.149 628.243 374.729 626.513 374.732 624.011L374.733 622.877C374.736 620.375 376.214 618.703 379.004 618.706ZM376.281 622.627L381.663 622.633L381.664 622.291C381.665 620.779 380.784 620.022 379.092 620.02C377.22 620.018 376.373 620.953 376.281 622.627ZM389.753 628.276C386.855 628.273 385.381 626.741 385.384 624.239L385.385 622.727C385.388 620.225 386.866 618.715 389.764 618.718C392.662 618.721 394.136 620.235 394.133 622.737L394.132 624.249C394.129 626.751 392.669 628.279 389.753 628.276ZM389.755 626.818C391.771 626.82 392.6 625.903 392.602 624.103L392.603 622.879C392.605 621.097 391.778 620.178 389.762 620.176C387.764 620.174 386.917 621.091 386.915 622.873L386.914 624.097C386.912 625.897 387.739 626.816 389.755 626.818ZM403.956 618.968L405.036 618.969L405.025 628.743C405.022 630.795 403.581 632.432 400.665 632.428C397.767 632.425 396.616 631.074 396.438 629.454L397.986 629.455C398.147 630.446 398.974 630.968 400.63 630.97C402.376 630.972 403.493 630.127 403.495 628.561L403.496 627.139C402.794 627.913 401.713 628.289 400.309 628.288C397.807 628.285 396.296 627.131 396.3 624.143L396.301 622.865C396.305 619.877 397.818 618.727 400.32 618.73C401.796 618.732 402.929 619.147 403.63 620.03L403.956 618.968ZM400.599 626.83C402.327 626.832 403.372 626.005 403.5 624.205L403.501 622.819C403.377 621.001 402.352 620.19 400.606 620.188C398.77 620.186 397.833 621.013 397.831 623.011L397.83 624.001C397.828 625.999 398.763 626.828 400.599 626.83ZM412.505 618.816C412.721 618.816 412.937 618.816 413.153 618.834L413.151 620.238C412.845 620.166 412.503 620.13 412.179 620.129C410.775 620.128 409.55 620.738 409.549 622.412L409.542 628.064L408.012 628.063L408.022 618.973L409.102 618.974L409.407 619.964C410.128 619.191 411.281 618.814 412.505 618.816ZM422.184 618.988L423.264 618.99L423.254 628.08L422.174 628.078L421.851 627.016C421.148 627.897 420.014 628.31 418.538 628.308C416.036 628.306 414.525 627.152 414.528 624.164L414.53 622.886C414.533 619.898 416.046 618.748 418.548 618.75C420.024 618.752 421.158 619.167 421.859 620.05L422.184 618.988ZM418.827 626.851C420.555 626.853 421.6 626.026 421.728 624.226L421.73 622.84C421.606 621.022 420.581 620.211 418.835 620.209C416.999 620.207 416.062 621.034 416.06 623.032L416.058 624.022C416.056 626.002 416.991 626.849 418.827 626.851ZM430.949 618.764C433.469 618.767 434.98 619.903 434.976 622.909L434.975 624.187C434.972 627.193 433.458 628.325 430.938 628.322C429.552 628.321 428.473 627.941 427.772 627.167L427.766 632.225L426.236 632.223L426.251 618.993L427.331 618.994L427.654 620.057C428.357 619.175 429.491 618.763 430.949 618.764ZM433.445 624.041L433.446 623.051C433.449 621.053 432.513 620.224 430.677 620.222C428.931 620.22 427.905 621.029 427.777 622.847L427.775 624.233C427.899 626.033 428.942 626.862 430.67 626.864C432.506 626.866 433.443 626.039 433.445 624.041ZM442.288 618.777C444.664 618.78 446.192 620.041 446.189 623.191L446.183 628.105L444.653 628.104L444.659 623.244C444.661 621.174 443.636 620.236 441.962 620.235C440.324 620.233 439.207 621.042 439.079 622.859L439.073 628.097L437.543 628.096L437.559 614.236L439.089 614.237L439.083 619.961C439.803 619.17 440.92 618.775 442.288 618.777ZM449.122 617.597L449.125 615.725L450.745 615.726L450.742 617.598L449.122 617.597ZM449.147 628.109L449.157 619.019L450.687 619.02L450.677 628.11L449.147 628.109ZM457.638 628.334C454.812 628.331 453.338 626.817 453.341 624.315L453.342 622.803C453.345 620.301 454.823 618.791 457.631 618.794C460.259 618.797 461.841 620.221 461.839 622.507L461.839 622.543L460.291 622.541L460.291 622.505C460.292 621.029 459.357 620.254 457.647 620.252C455.721 620.25 454.874 621.167 454.872 622.949L454.871 624.173C454.869 625.973 455.696 626.874 457.622 626.876C459.332 626.878 460.287 626.105 460.288 624.629L460.288 624.593L461.836 624.595L461.836 624.631C461.834 626.917 460.248 628.337 457.638 628.334ZM471.649 619.044L472.729 619.045L472.719 628.135L471.639 628.134L471.316 627.072C470.613 627.953 469.478 628.365 468.002 628.364C465.5 628.361 463.99 627.207 463.993 624.219L463.995 622.941C463.998 619.953 465.511 618.803 468.013 618.806C469.489 618.807 470.623 619.223 471.324 620.106L471.649 619.044ZM468.292 626.906C470.02 626.908 471.065 626.081 471.193 624.281L471.195 622.895C471.071 621.077 470.046 620.266 468.3 620.264C466.464 620.262 465.527 621.089 465.524 623.087L465.523 624.077C465.521 626.057 466.456 626.904 468.292 626.906ZM475.793 614.279L477.323 614.28L477.307 628.14L475.777 628.139L475.793 614.279ZM480.469 614.284L481.999 614.285L481.983 628.145L480.453 628.144L480.469 614.284ZM491.763 619.066L493.293 619.068L493.282 628.842C493.28 630.894 491.874 632.531 489.012 632.527C486.276 632.524 485.144 631.173 484.983 629.553L486.513 629.555C486.692 630.545 487.466 631.068 488.996 631.069C490.688 631.071 491.751 630.226 491.752 628.66L491.754 627.292C491.069 628.03 490.079 628.389 488.837 628.387C486.533 628.385 485.076 627.105 485.08 623.973L485.085 619.059L486.615 619.061L486.61 623.921C486.607 625.973 487.434 626.928 489.108 626.929C490.566 626.931 491.575 626.158 491.757 624.502L491.763 619.066ZM385.565 637.347C389.057 637.351 390.819 638.991 390.816 641.709L390.812 645.687C390.809 648.405 389.043 650.041 385.551 650.037L380.277 650.031L380.291 637.341L385.565 637.347ZM389.228 645.488L389.232 641.888C389.234 639.926 388.155 638.844 385.671 638.842L381.873 638.837L381.863 648.521L385.643 648.525C388.145 648.528 389.226 647.468 389.228 645.488ZM393.56 639.534L393.562 637.662L395.182 637.664L395.18 639.536L393.56 639.534ZM393.584 650.046L393.594 640.956L395.124 640.958L395.114 650.048L393.584 650.046ZM401.733 650.29C399.069 650.287 397.577 648.989 397.579 647.117L397.579 646.937L399.109 646.939L399.109 647.119C399.108 648.235 400.079 648.938 401.843 648.94C403.085 648.941 404.165 648.51 404.166 647.592C404.169 645.306 397.759 646.991 397.763 643.589C397.765 641.861 399.278 640.729 401.618 640.731C404.156 640.734 405.559 641.996 405.557 643.832L405.556 644.012L404.044 644.01L404.045 643.812C404.046 642.75 403.201 642.065 401.617 642.063C400.159 642.062 399.294 642.655 399.293 643.465C399.291 645.481 405.701 643.886 405.697 647.468C405.694 649.394 403.803 650.292 401.733 650.29ZM411.904 648.609L412.804 648.61L412.802 650.068L411.686 650.067C409.454 650.064 408.213 649.001 408.215 646.931L408.22 642.413L406.978 642.411L406.98 640.971L408.222 640.973L408.225 638.309L409.755 638.311L409.752 640.975L412.542 640.978L412.54 642.418L409.75 642.415L409.746 646.573C409.744 647.941 410.518 648.607 411.904 648.609ZM419.239 640.823C419.455 640.823 419.671 640.824 419.887 640.842L419.885 642.246C419.579 642.174 419.237 642.137 418.913 642.137C417.509 642.135 416.285 642.746 416.283 644.42L416.276 650.072L414.746 650.07L414.756 640.98L415.836 640.981L416.141 641.972C416.862 641.198 418.015 640.822 419.239 640.823ZM422.071 639.566L422.074 637.694L423.694 637.696L423.691 639.568L422.071 639.566ZM422.096 650.078L422.106 640.988L423.636 640.99L423.626 650.08L422.096 650.078ZM431.408 640.765C433.91 640.768 435.421 641.903 435.417 644.909L435.416 646.187C435.412 649.193 433.899 650.326 431.397 650.323C429.921 650.321 428.806 649.906 428.105 649.023L427.779 650.085L426.699 650.084L426.715 636.224L428.245 636.225L428.239 641.913C428.941 641.14 430.022 640.763 431.408 640.765ZM433.886 646.042L433.887 645.052C433.889 643.054 432.954 642.225 431.136 642.222C429.372 642.221 428.363 643.029 428.235 644.847L428.234 646.233C428.358 648.033 429.383 648.863 431.129 648.864C432.947 648.867 433.884 648.04 433.886 646.042ZM444.601 641.014L446.131 641.015L446.121 650.105L445.059 650.104L444.79 648.988C444.123 649.905 443.042 650.336 441.674 650.334C439.37 650.332 437.914 649.052 437.917 645.92L437.923 641.006L439.453 641.008L439.447 645.868C439.445 647.92 440.272 648.875 441.946 648.877C443.404 648.878 444.413 648.105 444.595 646.45L444.601 641.014ZM453.001 648.655L453.901 648.656L453.9 650.114L452.784 650.113C450.552 650.11 449.311 649.047 449.313 646.977L449.318 642.459L448.076 642.457L448.078 641.017L449.32 641.019L449.323 638.355L450.853 638.357L450.85 641.021L453.64 641.024L453.638 642.464L450.848 642.461L450.843 646.619C450.842 647.987 451.615 648.653 453.001 648.655ZM459.706 640.797C462.28 640.799 463.917 642.223 463.914 644.257L463.912 646.039L456.965 646.031C456.962 647.975 457.861 649.02 459.805 649.023C461.335 649.024 462.38 648.396 462.381 647.316L462.381 647.208L463.911 647.209C463.909 649.225 462.288 650.339 459.84 650.337C456.852 650.333 455.432 648.604 455.434 646.102L455.436 644.968C455.438 642.466 456.916 640.793 459.706 640.797ZM456.984 644.717L462.366 644.723L462.366 644.381C462.368 642.869 461.487 642.113 459.795 642.111C457.923 642.109 457.076 643.044 456.984 644.717ZM473.28 636.276L474.81 636.277L474.794 650.137L473.732 650.136L473.391 649.092C472.688 649.955 471.572 650.368 470.114 650.366C467.594 650.363 466.083 649.228 466.087 646.222L466.088 644.944C466.091 641.938 467.605 640.805 470.125 640.808C471.493 640.81 472.572 641.189 473.273 641.946L473.28 636.276ZM470.386 648.908C472.042 648.91 473.086 648.138 473.268 646.482L473.27 644.7C473.092 643.026 472.067 642.268 470.393 642.266C468.557 642.264 467.62 643.091 467.618 645.089L467.617 646.079C467.615 648.077 468.55 648.906 470.386 648.908Z" fill="#94A8FD"/>
<circle cx="715" cy="574" r="74" stroke="#94A8FD" stroke-opacity="0.75" stroke-width="2"/>
<path d="M691.737 555.39L695.317 555.394L695.315 557.074L686.395 557.064L686.397 555.384L689.977 555.388L689.989 544.628L686.409 544.624L686.411 542.964L691.751 542.97L691.737 555.39ZM703.104 557.342C699.304 557.338 697.346 555.516 697.35 552.496L697.355 547.656C697.359 544.576 699.321 542.718 703.101 542.722C706.881 542.727 708.839 544.589 708.835 547.669L708.83 552.509C708.826 555.529 706.864 557.347 703.104 557.342ZM703.086 555.662C705.866 555.666 707.068 554.467 707.07 552.287L707.075 547.867C707.078 545.627 705.879 544.406 703.119 544.402C700.339 544.399 699.118 545.618 699.115 547.858L699.11 552.278C699.108 554.458 700.306 555.659 703.086 555.662ZM717.499 557.359C713.699 557.354 711.741 555.532 711.744 552.512L711.75 547.672C711.753 544.592 713.715 542.734 717.495 542.739C721.275 542.743 723.233 544.605 723.23 547.685L723.224 552.525C723.221 555.545 721.259 557.363 717.499 557.359ZM717.481 555.679C720.261 555.682 721.462 554.483 721.465 552.303L721.47 547.883C721.472 545.643 720.273 544.422 717.513 544.419C714.733 544.415 713.512 545.634 713.51 547.874L713.505 552.294C713.502 554.474 714.701 555.675 717.481 555.679ZM728.59 542.631C729.577 542.632 730.323 543.026 730.829 543.813C731.334 544.587 731.587 545.681 731.585 547.094C731.583 548.508 731.336 549.614 730.841 550.414C730.36 551.2 729.607 551.592 728.58 551.591C727.953 551.59 727.42 551.41 726.981 551.049C726.541 550.689 726.208 550.175 725.982 549.508C725.77 548.828 725.664 548.021 725.665 547.088C725.667 545.674 725.901 544.581 726.369 543.808C726.836 543.022 727.577 542.63 728.59 542.631ZM728.589 543.871C728.082 543.87 727.708 544.143 727.468 544.69C727.24 545.223 727.126 546.023 727.125 547.089C727.124 548.156 727.236 548.963 727.462 549.51C727.702 550.057 728.075 550.33 728.581 550.331C729.101 550.332 729.488 550.065 729.742 549.532C729.996 548.986 730.124 548.173 730.125 547.093C730.126 546.026 730 545.226 729.748 544.692C729.495 544.145 729.109 543.872 728.589 543.871ZM737.73 542.841L729.794 557.112L728.254 557.111L736.19 542.84L737.73 542.841ZM737.324 548.361C737.977 548.362 738.523 548.542 738.963 548.903C739.403 549.25 739.735 549.757 739.961 550.424C740.201 551.077 740.32 551.877 740.319 552.824C740.317 554.237 740.069 555.344 739.575 556.143C739.094 556.929 738.34 557.322 737.314 557.321C736.687 557.32 736.154 557.139 735.714 556.779C735.275 556.418 734.942 555.905 734.716 555.238C734.503 554.558 734.398 553.751 734.399 552.818C734.4 551.404 734.635 550.311 735.102 549.538C735.57 548.752 736.31 548.36 737.324 548.361ZM737.322 549.621C736.816 549.62 736.442 549.886 736.201 550.42C735.974 550.953 735.86 551.752 735.859 552.819C735.857 553.899 735.97 554.713 736.196 555.26C736.435 555.793 736.808 556.06 737.315 556.061C737.835 556.061 738.222 555.795 738.476 555.262C738.73 554.729 738.857 553.916 738.859 552.822C738.86 551.756 738.734 550.956 738.481 550.422C738.229 549.888 737.842 549.621 737.322 549.621ZM671.363 581.047L668.629 575.184L663.729 575.178L663.723 581.038L661.963 581.036L661.978 566.936L668.618 566.944C671.618 566.947 673.197 568.349 673.194 570.769L673.193 571.349C673.191 573.229 672.25 574.488 670.449 574.966L673.203 581.049L671.363 581.047ZM663.737 568.598L663.731 573.498L668.711 573.504C670.591 573.506 671.432 572.787 671.433 571.347L671.434 570.767C671.436 569.347 670.617 568.606 668.737 568.604L663.737 568.598ZM679.612 570.696C682.472 570.699 684.29 572.281 684.288 574.541L684.286 576.521L676.566 576.513C676.563 578.673 677.562 579.834 679.722 579.836C681.422 579.838 682.583 579.139 682.584 577.939L682.584 577.819L684.284 577.821C684.282 580.061 682.48 581.299 679.76 581.296C676.44 581.293 674.862 579.371 674.866 576.591L674.867 575.331C674.87 572.551 676.512 570.693 679.612 570.696ZM676.587 575.053L682.567 575.059L682.568 574.679C682.57 572.999 681.591 572.158 679.711 572.156C677.631 572.154 676.689 573.193 676.587 575.053ZM692.408 570.71C695.088 570.713 696.767 572.115 696.763 575.615L696.757 581.075L695.057 581.073L695.063 575.673C695.065 573.373 693.946 572.332 692.046 572.33C690.266 572.328 689.005 573.227 688.863 575.246L688.857 581.066L687.157 581.065L687.168 570.965L688.368 570.966L688.666 572.266C689.468 571.207 690.768 570.709 692.408 570.71ZM704.261 570.724C707.121 570.727 708.939 572.309 708.936 574.569L708.934 576.549L701.214 576.54C701.212 578.7 702.21 579.861 704.37 579.864C706.07 579.866 707.231 579.167 707.232 577.967L707.233 577.847L708.933 577.849C708.93 580.089 707.129 581.327 704.409 581.324C701.089 581.32 699.511 579.398 699.514 576.618L699.515 575.358C699.519 572.578 701.161 570.72 704.261 570.724ZM701.236 575.08L707.216 575.087L707.216 574.707C707.218 573.027 706.239 572.186 704.359 572.184C702.279 572.182 701.338 573.22 701.236 575.08ZM722.479 571.004L724.219 571.006L721.507 581.103L719.627 581.101L717.255 574.198L714.867 581.096L712.967 581.093L710.279 570.99L711.999 570.992L714.089 579.375L716.519 570.997L717.979 570.999L720.409 579.382L722.479 571.004ZM734.036 571.017L735.236 571.018L735.225 581.118L734.025 581.117L733.666 579.937C732.885 580.916 731.624 581.374 729.984 581.373C727.204 581.369 725.526 580.088 725.529 576.768L725.531 575.348C725.535 572.028 727.216 570.749 729.996 570.753C731.636 570.754 732.896 571.216 733.675 572.197L734.036 571.017ZM730.306 579.753C732.226 579.755 733.387 578.836 733.529 576.837L733.531 575.297C733.393 573.276 732.254 572.375 730.314 572.373C728.274 572.371 727.233 573.289 727.231 575.509L727.23 576.609C727.227 578.809 728.266 579.751 730.306 579.753ZM743.775 570.768C746.555 570.771 748.233 572.033 748.23 575.373L748.228 576.793C748.224 580.133 746.543 581.391 743.763 581.388C742.123 581.386 740.883 580.925 740.105 579.944L739.743 581.124L738.543 581.122L738.56 565.722L740.26 565.724L740.253 572.044C741.034 571.185 742.235 570.766 743.775 570.768ZM746.528 576.631L746.529 575.531C746.532 573.311 745.493 572.39 743.473 572.388C741.513 572.385 740.392 573.284 740.25 575.304L740.248 576.844C740.386 578.844 741.525 579.766 743.465 579.768C745.485 579.77 746.526 578.851 746.528 576.631ZM751.18 565.736L752.88 565.738L752.862 581.138L751.162 581.136L751.18 565.736ZM760.569 570.787C763.429 570.79 765.247 572.372 765.245 574.632L765.243 576.612L757.523 576.603C757.52 578.763 758.519 579.925 760.679 579.927C762.379 579.929 763.54 579.23 763.541 578.03L763.541 577.91L765.241 577.912C765.239 580.152 763.437 581.39 760.717 581.387C757.397 581.383 755.819 579.462 755.823 576.682L755.824 575.422C755.827 572.642 757.469 570.783 760.569 570.787ZM757.544 575.143L763.524 575.15L763.525 574.77C763.527 573.09 762.548 572.249 760.668 572.247C758.588 572.245 757.646 573.284 757.544 575.143ZM692.575 592.631L684.335 592.621L684.329 597.281L691.669 597.29L691.668 598.97L684.328 598.961L684.323 603.381L692.563 603.391L692.561 605.071L682.561 605.059L682.577 590.959L692.577 590.971L692.575 592.631ZM700.702 594.72C703.382 594.723 705.06 596.125 705.056 599.625L705.05 605.085L703.35 605.083L703.356 599.683C703.359 597.383 702.24 596.341 700.34 596.339C698.56 596.337 697.299 597.236 697.156 599.256L697.15 605.076L695.45 605.074L695.461 594.974L696.661 594.975L696.96 596.276C697.761 595.216 699.062 594.718 700.702 594.72ZM712.554 594.733C715.414 594.736 717.232 596.318 717.23 598.578L717.227 600.558L709.507 600.55C709.505 602.71 710.504 603.871 712.664 603.873C714.364 603.875 715.525 603.176 715.526 601.976L715.526 601.856L717.226 601.858C717.224 604.098 715.422 605.336 712.702 605.333C709.382 605.329 707.804 603.408 707.807 600.628L707.809 599.368C707.812 596.588 709.454 594.73 712.554 594.733ZM709.529 599.09L715.509 599.096L715.51 598.716C715.511 597.036 714.532 596.195 712.652 596.193C710.572 596.191 709.631 597.23 709.529 599.09ZM725.09 594.827C725.33 594.827 725.57 594.828 725.81 594.848L725.808 596.408C725.468 596.328 725.088 596.287 724.728 596.287C723.168 596.285 721.807 596.963 721.805 598.823L721.798 605.103L720.098 605.102L720.11 595.002L721.31 595.003L721.648 596.103C722.449 595.244 723.73 594.826 725.09 594.827ZM735.845 595.019L737.045 595.02L737.033 605.88C737.03 608.16 735.428 609.979 732.188 609.975C728.968 609.971 727.69 608.47 727.492 606.67L729.212 606.672C729.391 607.772 730.31 608.353 732.15 608.355C734.09 608.357 735.331 607.419 735.333 605.679L735.335 604.099C734.554 604.958 733.353 605.376 731.793 605.375C729.013 605.371 727.335 604.09 727.339 600.77L727.34 599.35C727.344 596.03 729.025 594.752 731.805 594.755C733.445 594.756 734.705 595.218 735.484 596.199L735.845 595.019ZM732.115 603.755C734.035 603.757 735.196 602.838 735.338 600.839L735.34 599.299C735.202 597.278 734.063 596.377 732.123 596.375C730.083 596.373 729.042 597.292 729.04 599.512L729.039 600.612C729.036 602.832 730.075 603.753 732.115 603.755ZM747.804 595.033L749.504 595.034L749.491 605.894C749.489 608.174 747.927 609.993 744.747 609.989C741.707 609.986 740.448 608.484 740.27 606.684L741.97 606.686C742.169 607.786 743.029 608.367 744.729 608.369C746.609 608.371 747.79 607.433 747.792 605.693L747.793 604.173C747.032 604.992 745.932 605.39 744.552 605.389C741.992 605.386 740.374 603.964 740.377 600.484L740.384 595.024L742.084 595.026L742.077 600.426C742.075 602.706 742.994 603.767 744.854 603.769C746.474 603.771 747.595 602.912 747.797 601.073L747.804 595.033Z" fill="#94A8FD"/>
<circle cx="75" cy="343" r="74" stroke="#94A8FD" stroke-opacity="0.75" stroke-width="2"/>
<path d="M38.0033 315.27C34.4573 315.266 32.5692 313.554 32.5718 311.214L32.5723 310.764L34.1563 310.766L34.1558 311.252C34.1542 312.692 35.611 313.755 38.041 313.758C40.237 313.76 41.66 312.862 41.6616 311.422C41.6654 307.984 32.8607 310.422 32.8661 305.652C32.8681 303.78 34.274 302.108 37.802 302.112C41.348 302.116 42.9482 303.773 42.9457 306.005L42.9451 306.509L41.3611 306.508L41.3617 305.986C41.3632 304.636 40.1043 303.626 37.7823 303.624C35.6403 303.621 34.4694 304.466 34.4681 305.654C34.4647 308.66 43.2151 306.546 43.2636 311.406C43.2792 313.53 41.5493 315.274 38.0033 315.27ZM52.3444 305.962L53.8744 305.964L53.8642 315.054L52.8022 315.052L52.5335 313.936C51.8664 314.853 50.7859 315.284 49.4179 315.283C47.1139 315.28 45.6574 314 45.6609 310.868L45.6664 305.954L47.1964 305.956L47.1909 310.816C47.1886 312.868 48.0156 313.823 49.6896 313.825C51.1476 313.827 52.1564 313.054 52.3383 311.398L52.3444 305.962ZM61.5636 305.738C64.0836 305.741 65.5943 306.877 65.591 309.883L65.5895 311.161C65.5862 314.167 64.0729 315.299 61.5529 315.296C60.1669 315.295 59.0873 314.916 58.3862 314.141L58.3805 319.199L56.8505 319.197L56.8653 305.967L57.9453 305.968L58.2681 307.031C58.9711 306.149 60.1056 305.737 61.5636 305.738ZM64.0597 311.015L64.0608 310.025C64.063 308.027 63.128 307.198 61.292 307.196C59.546 307.194 58.5191 308.003 58.391 309.821L58.3895 311.207C58.5134 313.007 59.5565 313.836 61.2845 313.838C63.1205 313.84 64.0574 313.013 64.0597 311.015ZM72.8663 305.751C75.3863 305.754 76.8971 306.889 76.8937 309.895L76.8922 311.173C76.8889 314.179 75.3756 315.312 72.8556 315.309C71.4696 315.307 70.39 314.928 69.6889 314.153L69.6832 319.211L68.1532 319.21L68.1681 305.98L69.2481 305.981L69.5709 307.043C70.2739 306.162 71.4083 305.749 72.8663 305.751ZM75.3624 311.028L75.3635 310.038C75.3658 308.04 74.4307 307.211 72.5947 307.209C70.8487 307.207 69.8218 308.016 69.6937 309.833L69.6922 311.219C69.8162 313.02 70.8592 313.849 72.5872 313.851C74.4232 313.853 75.3602 313.026 75.3624 311.028ZM83.4203 315.321C80.5223 315.318 79.0481 313.786 79.0509 311.284L79.0526 309.772C79.0554 307.27 80.5331 305.76 83.4311 305.763C86.329 305.766 87.8034 307.28 87.8005 309.782L87.7989 311.294C87.7961 313.796 86.3363 315.324 83.4203 315.321ZM83.422 313.863C85.438 313.865 86.267 312.948 86.269 311.148L86.2704 309.924C86.2724 308.142 85.4454 307.223 83.4294 307.221C81.4314 307.219 80.5844 308.136 80.5824 309.918L80.581 311.142C80.579 312.942 81.406 313.861 83.422 313.863ZM94.869 305.848C95.085 305.848 95.301 305.848 95.517 305.866L95.5154 307.27C95.2095 307.198 94.8675 307.162 94.5435 307.161C93.1395 307.16 91.9148 307.77 91.9129 309.444L91.9066 315.096L90.3766 315.095L90.3868 306.005L91.4668 306.006L91.7717 306.996C92.4926 306.223 93.645 305.846 94.869 305.848ZM101.544 313.649L102.444 313.65L102.442 315.108L101.326 315.107C99.0939 315.104 97.8531 314.041 97.8555 311.971L97.8605 307.453L96.6185 307.452L96.6201 306.012L97.8621 306.013L97.8651 303.349L99.3951 303.351L99.3921 306.015L102.182 306.018L102.181 307.458L99.3905 307.455L99.3859 311.613C99.3843 312.981 100.158 313.648 101.544 313.649ZM107.932 315.348C105.268 315.345 103.776 314.048 103.778 312.176L103.778 311.996L105.308 311.997L105.308 312.177C105.306 313.293 106.278 313.996 108.042 313.998C109.284 314 110.364 313.569 110.365 312.651C110.368 310.365 103.958 312.05 103.962 308.648C103.964 306.92 105.477 305.787 107.817 305.79C110.355 305.793 111.757 307.055 111.755 308.891L111.755 309.071L110.243 309.069L110.243 308.871C110.245 307.809 109.399 307.124 107.815 307.122C106.357 307.12 105.493 307.714 105.492 308.524C105.489 310.54 111.899 308.945 111.895 312.527C111.893 314.453 110.002 315.351 107.932 315.348ZM34.3455 337.032L31.8854 331.755L27.4754 331.75L27.4695 337.024L25.8855 337.022L25.8997 324.332L31.8757 324.339C34.5757 324.342 35.9963 325.604 35.9939 327.782L35.9933 328.304C35.9914 329.996 35.1441 331.129 33.5236 331.559L36.0015 337.034L34.3455 337.032ZM27.482 325.828L27.4771 330.238L31.9591 330.243C33.6511 330.245 34.4078 329.598 34.4093 328.302L34.4099 327.78C34.4113 326.502 33.674 325.835 31.982 325.833L27.482 325.828ZM41.7701 327.716C44.3441 327.719 45.9805 329.143 45.9782 331.177L45.9762 332.959L39.0282 332.951C39.0261 334.895 39.9249 335.94 41.8689 335.942C43.3989 335.944 44.4436 335.315 44.4448 334.235L44.4449 334.127L45.9749 334.129C45.9727 336.145 44.3514 337.259 41.9034 337.256C38.9154 337.253 37.4953 335.523 37.4982 333.021L37.4994 331.887C37.5022 329.385 38.9801 327.713 41.7701 327.716ZM39.0477 331.637L44.4297 331.643L44.4301 331.301C44.4318 329.789 43.5506 329.032 41.8586 329.03C39.9866 329.028 39.1396 329.963 39.0477 331.637ZM53.2864 327.729C55.6984 327.732 57.209 328.993 57.2055 332.143L57.2 337.057L55.67 337.056L55.6754 332.196C55.6778 330.126 54.6708 329.189 52.9608 329.187C51.3588 329.185 50.2239 329.994 50.0959 331.811L50.09 337.049L48.56 337.048L48.5702 327.958L49.6502 327.959L49.9189 329.129C50.6399 328.176 51.8104 327.727 53.2864 327.729ZM63.9537 327.741C66.5277 327.744 68.1641 329.168 68.1618 331.202L68.1598 332.984L61.2118 332.976C61.2096 334.92 62.1085 335.965 64.0525 335.967C65.5825 335.969 66.6272 335.34 66.6284 334.26L66.6285 334.152L68.1585 334.154C68.1562 336.17 66.535 337.284 64.087 337.281C61.099 337.278 59.6789 335.548 59.6817 333.046L59.683 331.912C59.6858 329.41 61.1637 327.738 63.9537 327.741ZM61.2313 331.662L66.6133 331.668L66.6137 331.326C66.6154 329.814 65.7342 329.057 64.0422 329.055C62.1702 329.053 61.3232 329.988 61.2313 331.662ZM80.3499 327.993L81.9159 327.995L79.4757 337.082L77.7837 337.08L75.6486 330.868L73.4997 337.076L71.7897 337.074L69.3699 327.981L70.9179 327.983L72.7994 335.527L74.9859 327.987L76.2999 327.989L78.4874 335.533L80.3499 327.993ZM90.7515 328.005L91.8315 328.006L91.8213 337.096L90.7413 337.095L90.4185 336.033C89.7155 336.914 88.581 337.327 87.105 337.325C84.603 337.322 83.0923 336.168 83.0957 333.18L83.0971 331.902C83.1004 328.914 84.6137 327.764 87.1157 327.767C88.5917 327.769 89.7253 328.184 90.4263 329.067L90.7515 328.005ZM87.3946 335.867C89.1226 335.869 90.1676 335.042 90.2956 333.242L90.2971 331.857C90.1732 330.038 89.1481 329.227 87.4021 329.225C85.5661 329.223 84.6292 330.05 84.6269 332.048L84.6258 333.038C84.6236 335.018 85.5586 335.865 87.3946 335.867ZM99.5165 327.781C102.018 327.784 103.529 328.919 103.526 331.925L103.524 333.203C103.521 336.209 102.008 337.342 99.5057 337.339C98.0297 337.337 96.9142 336.922 96.2132 336.039L95.888 337.101L94.808 337.1L94.8235 323.24L96.3535 323.241L96.3472 328.929C97.05 328.156 98.1305 327.779 99.5165 327.781ZM101.995 333.058L101.996 332.068C101.998 330.07 101.063 329.241 99.2448 329.239C97.4808 329.237 96.4719 330.045 96.3439 331.863L96.3423 333.249C96.4663 335.049 97.4914 335.879 99.2374 335.881C101.055 335.883 101.992 335.056 101.995 333.058ZM106.181 323.252L107.711 323.254L107.695 337.114L106.165 337.112L106.181 323.252ZM114.631 327.798C117.205 327.801 118.842 329.224 118.84 331.258L118.838 333.04L111.89 333.033C111.887 334.977 112.786 336.022 114.73 336.024C116.26 336.026 117.305 335.397 117.306 334.317L117.306 334.209L118.836 334.21C118.834 336.226 117.213 337.341 114.765 337.338C111.777 337.335 110.357 335.605 110.359 333.103L110.361 331.969C110.364 329.467 111.841 327.795 114.631 327.798ZM111.909 331.719L117.291 331.725L117.291 331.383C117.293 329.871 116.412 329.114 114.72 329.112C112.848 329.11 112.001 330.045 111.909 331.719ZM53.4359 347.857L46.0199 347.849L46.0152 352.043L52.6212 352.05L52.6195 353.562L46.0135 353.555L46.009 357.533L53.425 357.541L53.4233 359.053L44.4233 359.043L44.4375 346.353L53.4375 346.363L53.4359 347.857ZM60.7501 349.737C63.1621 349.74 64.6726 351.002 64.6691 354.152L64.6636 359.066L63.1336 359.064L63.139 354.204C63.1414 352.134 62.1344 351.197 60.4244 351.195C58.8224 351.193 57.6875 352.002 57.5595 353.82L57.5536 359.058L56.0236 359.056L56.0338 349.966L57.1138 349.967L57.3825 351.138C58.1036 350.184 59.2741 349.736 60.7501 349.737ZM71.4173 349.749C73.9913 349.752 75.6277 351.176 75.6254 353.21L75.6234 354.992L68.6754 354.984C68.6732 356.928 69.5721 357.973 71.5161 357.975C73.0461 357.977 74.0908 357.348 74.092 356.268L74.0921 356.16L75.6221 356.162C75.6199 358.178 73.9986 359.292 71.5506 359.29C68.5626 359.286 67.1425 357.557 67.1453 355.055L67.1466 353.921C67.1494 351.419 68.6273 349.746 71.4173 349.749ZM68.6949 353.67L74.0769 353.676L74.0773 353.334C74.079 351.822 73.1978 351.065 71.5058 351.063C69.6338 351.061 68.7868 351.996 68.6949 353.67ZM82.6996 349.834C82.9156 349.834 83.1316 349.834 83.3475 349.853L83.346 351.257C83.04 351.184 82.6981 351.148 82.3741 351.148C80.9701 351.146 79.7454 351.757 79.7435 353.431L79.7372 359.083L78.2072 359.081L78.2174 349.991L79.2974 349.992L79.6023 350.983C80.3231 350.209 81.4756 349.833 82.6996 349.834ZM92.3791 350.007L93.4591 350.008L93.4482 359.782C93.4459 361.834 92.0041 363.47 89.0881 363.467C86.1901 363.464 85.0396 362.113 84.8614 360.492L86.4094 360.494C86.5703 361.484 87.3977 362.007 89.0537 362.009C90.7997 362.011 91.9166 361.166 91.9184 359.6L91.92 358.178C91.2171 358.952 90.1367 359.328 88.7327 359.327C86.2307 359.324 84.72 358.17 84.7233 355.182L84.7248 353.904C84.7281 350.916 86.2414 349.766 88.7434 349.769C90.2194 349.77 91.3529 350.186 92.054 351.068L92.3791 350.007ZM89.0223 357.869C90.7503 357.871 91.7953 357.044 91.9233 355.244L91.9248 353.858C91.8009 352.04 90.7758 351.229 89.0298 351.227C87.1938 351.225 86.2568 352.052 86.2546 354.05L86.2535 355.04C86.2513 357.038 87.1863 357.867 89.0223 357.869ZM103.142 350.019L104.672 350.021L104.661 359.795C104.659 361.847 103.253 363.483 100.391 363.48C97.6548 363.477 96.5223 362.125 96.3621 360.505L97.8921 360.507C98.071 361.497 98.8444 362.02 100.374 362.022C102.066 362.024 103.129 361.179 103.131 359.613L103.133 358.245C102.448 358.982 101.457 359.341 100.215 359.34C97.9114 359.337 96.4549 358.057 96.4584 354.925L96.4639 350.011L97.9939 350.013L97.9884 354.873C97.9861 356.925 98.8131 357.88 100.487 357.882C101.945 357.884 102.954 357.111 103.136 355.455L103.142 350.019ZM45.4143 368.354C48.1143 368.357 49.5348 369.655 49.5324 371.833L49.5312 372.877C49.5288 375.055 48.1053 376.367 45.4233 376.364L41.0133 376.359L41.008 381.039L39.4241 381.038L39.4383 368.348L45.4143 368.354ZM47.9472 372.875L47.9484 371.831C47.9498 370.535 47.2126 369.85 45.5206 369.848L41.0206 369.843L41.015 374.847L45.497 374.852C47.189 374.854 47.9458 374.171 47.9472 372.875ZM56.2374 371.804C56.4534 371.805 56.6694 371.805 56.8854 371.823L56.8838 373.227C56.5779 373.155 56.2359 373.118 55.9119 373.118C54.5079 373.116 53.2833 373.727 53.2814 375.401L53.275 381.053L51.745 381.051L51.7552 371.961L52.8352 371.963L53.1401 372.953C53.861 372.18 55.0134 371.803 56.2374 371.804ZM62.6306 381.298C59.7326 381.294 58.2583 379.763 58.2611 377.261L58.2628 375.749C58.2656 373.247 59.7433 371.736 62.6413 371.74C65.5393 371.743 67.0136 373.256 67.0108 375.758L67.0091 377.27C67.0063 379.772 65.5466 381.301 62.6306 381.298ZM62.6322 379.84C64.6482 379.842 65.4772 378.925 65.4792 377.125L65.4806 375.901C65.4826 374.119 64.6556 373.2 62.6396 373.198C60.6416 373.195 59.7946 374.112 59.7926 375.894L59.7912 377.118C59.7892 378.918 60.6162 379.837 62.6322 379.84ZM70.0306 370.56L70.0327 368.688L71.6707 368.69L71.6686 370.562L70.0306 370.56ZM67.3862 385.209L67.3878 383.751L67.8378 383.751C69.5478 383.753 70.0709 382.8 70.0725 381.396L70.083 371.982L71.613 371.984L71.602 381.83C71.5993 384.242 70.1402 385.212 68.2142 385.21L67.3862 385.209ZM78.5997 371.757C81.1737 371.76 82.8101 373.184 82.8078 375.218L82.8058 377L75.8578 376.992C75.8556 378.936 76.7544 379.981 78.6984 379.984C80.2284 379.985 81.2731 379.356 81.2744 378.276L81.2745 378.168L82.8045 378.17C82.8022 380.186 81.181 381.3 78.733 381.298C75.745 381.294 74.3249 379.565 74.3277 377.063L74.329 375.929C74.3318 373.427 75.8097 371.754 78.5997 371.757ZM75.8773 375.678L81.2593 375.684L81.2596 375.342C81.2613 373.83 80.3802 373.073 78.6882 373.072C76.8162 373.069 75.9691 374.004 75.8773 375.678ZM89.2773 381.309C86.4513 381.306 84.977 379.793 84.9798 377.291L84.9815 375.779C84.9843 373.277 86.462 371.766 89.27 371.769C91.898 371.772 93.4804 373.196 93.4778 375.482L93.4778 375.518L91.9298 375.516L91.9298 375.48C91.9315 374.004 90.9964 373.229 89.2864 373.227C87.3604 373.225 86.5133 374.142 86.5113 375.924L86.51 377.148C86.508 378.948 87.3349 379.849 89.2609 379.851C90.9709 379.853 91.9258 379.08 91.9275 377.604L91.9275 377.568L93.4755 377.57L93.4755 377.606C93.4729 379.892 91.8873 381.312 89.2773 381.309ZM99.9315 379.647L100.832 379.648L100.83 381.106L99.7139 381.105C97.4819 381.103 96.2411 380.039 96.2434 377.969L96.2485 373.451L95.0065 373.45L95.0081 372.01L96.2501 372.011L96.2531 369.347L97.7831 369.349L97.7801 372.013L100.57 372.016L100.568 373.456L97.7785 373.453L97.7738 377.611C97.7723 378.979 98.5455 379.646 99.9315 379.647ZM106.32 381.346C103.656 381.344 102.163 380.046 102.166 378.174L102.166 377.994L103.696 377.996L103.696 378.176C103.694 379.292 104.666 379.995 106.43 379.997C107.672 379.998 108.752 379.567 108.753 378.649C108.756 376.363 102.346 378.048 102.35 374.646C102.351 372.918 103.865 371.786 106.205 371.788C108.743 371.791 110.145 373.053 110.143 374.889L110.143 375.069L108.631 375.067L108.631 374.869C108.632 373.807 107.787 373.122 106.203 373.12C104.745 373.119 103.881 373.712 103.88 374.522C103.877 376.538 110.287 374.943 110.283 378.525C110.281 380.451 108.39 381.349 106.32 381.346Z" fill="#94A8FD"/>
<circle cx="770" cy="343" r="74" stroke="#94A8FD" stroke-opacity="0.75" stroke-width="2"/>
<path d="M709.913 338.008L709.927 325.318L711.511 325.32L711.497 338.01L709.913 338.008ZM724.805 328.701C727.145 328.703 728.404 330.073 728.4 333.115L728.395 338.029L726.865 338.027L726.87 333.059C726.872 331.169 726.027 330.16 724.641 330.158C723.327 330.157 722.391 331.002 722.245 332.712L722.244 333.108L722.239 338.022L720.709 338.02L720.714 333.052C720.716 331.162 719.871 330.153 718.485 330.152C717.135 330.15 716.18 331.067 716.071 332.777L716.065 338.015L714.535 338.013L714.545 328.923L715.625 328.924L715.876 330.005C716.507 329.123 717.515 328.692 718.667 328.694C720.161 328.695 721.204 329.255 721.761 330.443C722.374 329.274 723.491 328.699 724.805 328.701ZM735.995 328.713C738.515 328.716 740.026 329.852 740.022 332.858L740.021 334.136C740.018 337.142 738.504 338.274 735.984 338.271C734.598 338.27 733.519 337.89 732.818 337.116L732.812 342.174L731.282 342.172L731.297 328.942L732.377 328.943L732.7 330.005C733.403 329.124 734.537 328.712 735.995 328.713ZM738.491 333.99L738.492 333C738.494 331.002 737.559 330.173 735.723 330.171C733.977 330.169 732.951 330.978 732.822 332.796L732.821 334.182C732.945 335.982 733.988 336.811 735.716 336.813C737.552 336.815 738.489 335.988 738.491 333.99ZM747.082 328.798C747.298 328.798 747.514 328.798 747.73 328.816L747.728 330.22C747.422 330.148 747.08 330.112 746.756 330.111C745.352 330.11 744.128 330.72 744.126 332.394L744.119 338.046L742.589 338.045L742.6 328.955L743.68 328.956L743.984 329.946C744.705 329.173 745.858 328.796 747.082 328.798ZM753.475 338.291C750.577 338.288 749.103 336.756 749.105 334.254L749.107 332.742C749.11 330.24 750.588 328.73 753.486 328.733C756.384 328.736 757.858 330.25 757.855 332.752L757.853 334.264C757.851 336.766 756.391 338.294 753.475 338.291ZM753.476 336.833C755.492 336.835 756.321 335.918 756.324 334.118L756.325 332.894C756.327 331.112 755.5 330.193 753.484 330.191C751.486 330.189 750.639 331.106 750.637 332.888L750.636 334.112C750.634 335.912 751.46 336.831 753.476 336.833ZM766.329 328.981L767.913 328.983L764.519 338.069L762.431 338.067L759.057 328.973L760.641 328.975L763.531 336.574L766.329 328.981ZM773.364 328.755C775.938 328.758 777.574 330.182 777.572 332.216L777.57 333.998L770.622 333.99C770.62 335.934 771.519 336.979 773.463 336.981C774.993 336.983 776.037 336.354 776.039 335.274L776.039 335.166L777.569 335.168C777.566 337.184 775.945 338.298 773.497 338.295C770.509 338.292 769.089 336.562 769.092 334.06L769.093 332.926C769.096 330.424 770.574 328.752 773.364 328.755ZM770.641 332.676L776.023 332.682L776.024 332.34C776.026 330.828 775.144 330.071 773.452 330.069C771.58 330.067 770.733 331.002 770.641 332.676ZM783.699 338.325C781.035 338.322 779.543 337.024 779.545 335.152L779.545 334.972L781.075 334.974L781.075 335.154C781.074 336.27 782.045 336.973 783.809 336.975C785.051 336.976 786.131 336.545 786.133 335.627C786.135 333.341 779.725 335.026 779.729 331.624C779.731 329.896 781.244 328.764 783.584 328.767C786.122 328.769 787.525 330.031 787.523 331.867L787.523 332.047L786.011 332.045L786.011 331.847C786.012 330.785 785.167 330.1 783.583 330.099C782.125 330.097 781.26 330.69 781.259 331.5C781.257 333.516 787.667 331.921 787.663 335.503C787.66 337.429 785.769 338.327 783.699 338.325ZM805.48 329.853L803.896 329.851L803.896 329.743C803.898 327.763 802.711 326.7 800.011 326.697C797.275 326.694 796.086 327.755 796.084 329.735L796.079 333.767C796.077 335.747 797.264 336.828 799.982 336.831C802.7 336.834 803.889 335.755 803.891 333.775L803.892 332.947L799.608 332.942L799.61 331.448L805.478 331.455L805.475 333.975C805.472 336.693 803.706 338.347 799.998 338.343C796.272 338.339 794.492 336.681 794.495 333.963L794.5 329.535C794.503 326.817 796.287 325.181 799.995 325.185C803.721 325.189 805.483 326.829 805.48 329.547L805.48 329.853ZM812.648 328.871C812.864 328.871 813.08 328.872 813.296 328.89L813.294 330.294C812.989 330.221 812.647 330.185 812.323 330.185C810.919 330.183 809.694 330.794 809.692 332.468L809.686 338.12L808.156 338.118L808.166 329.028L809.246 329.029L809.551 330.02C810.272 329.246 811.424 328.87 812.648 328.871ZM815.481 327.614L815.483 325.742L817.103 325.744L817.101 327.616L815.481 327.614ZM815.505 338.126L815.515 329.036L817.045 329.038L817.035 338.128L815.505 338.126ZM826.892 324.279L828.422 324.281L828.407 338.141L827.345 338.14L827.004 337.095C826.301 337.958 825.185 338.371 823.727 338.37C821.207 338.367 819.696 337.231 819.699 334.225L819.701 332.947C819.704 329.941 821.217 328.809 823.737 328.812C825.105 328.813 826.185 329.192 826.886 329.949L826.892 324.279ZM823.998 336.912C825.654 336.914 826.699 336.141 826.881 334.485L826.883 332.703C826.705 331.029 825.68 330.272 824.006 330.27C822.17 330.268 821.233 331.095 821.23 333.093L821.229 334.083C821.227 336.081 822.162 336.91 823.998 336.912ZM737.683 348.843L730.267 348.835L730.262 353.029L736.868 353.036L736.867 354.548L730.261 354.541L730.256 358.519L737.672 358.527L737.67 360.039L728.67 360.029L728.685 347.339L737.685 347.349L737.683 348.843ZM744.227 347.644C742.913 347.643 742.156 348.326 742.154 349.748L742.153 350.954L744.997 350.957L744.995 352.397L742.151 352.394L742.143 360.044L740.613 360.042L740.621 352.392L739.559 352.391L739.561 350.951L740.623 350.952L740.624 349.692C740.627 347.568 741.942 346.184 744.12 346.186L745.272 346.188L745.271 347.646L744.227 347.644ZM750.766 347.652C749.452 347.65 748.695 348.333 748.693 349.755L748.692 350.961L751.536 350.965L751.534 352.405L748.69 352.401L748.682 360.051L747.152 360.05L747.16 352.4L746.098 352.399L746.1 350.959L747.162 350.96L747.163 349.7C747.166 347.576 748.481 346.191 750.659 346.194L751.811 346.195L751.81 347.653L750.766 347.652ZM753.397 349.545L753.399 347.673L755.019 347.675L755.017 349.547L753.397 349.545ZM753.421 360.057L753.431 350.967L754.961 350.968L754.951 360.058L753.421 360.057ZM761.912 360.282C759.086 360.279 757.612 358.765 757.615 356.263L757.617 354.751C757.619 352.249 759.097 350.739 761.905 350.742C764.533 350.745 766.115 352.169 766.113 354.455L766.113 354.491L764.565 354.489L764.565 354.453C764.567 352.977 763.631 352.202 761.921 352.2C759.995 352.198 759.148 353.115 759.146 354.897L759.145 356.121C759.143 357.921 759.97 358.822 761.896 358.824C763.606 358.826 764.561 358.053 764.563 356.577L764.563 356.541L766.111 356.543L766.111 356.579C766.108 358.865 764.522 360.285 761.912 360.282ZM768.725 349.562L768.727 347.69L770.347 347.692L770.345 349.564L768.725 349.562ZM768.749 360.074L768.759 350.984L770.289 350.986L770.279 360.076L768.749 360.074ZM777.215 350.759C779.789 350.762 781.426 352.186 781.423 354.22L781.421 356.002L774.473 355.994C774.471 357.938 775.37 358.983 777.314 358.986C778.844 358.987 779.889 358.358 779.89 357.278L779.89 357.17L781.42 357.172C781.418 359.188 779.796 360.302 777.348 360.3C774.36 360.296 772.94 358.567 772.943 356.065L772.945 354.931C772.947 352.429 774.425 350.756 777.215 350.759ZM774.493 354.68L779.875 354.686L779.875 354.344C779.877 352.832 778.996 352.075 777.304 352.073C775.432 352.071 774.585 353.006 774.493 354.68ZM788.732 350.772C791.144 350.775 792.654 352.037 792.651 355.187L792.645 360.101L791.115 360.099L791.121 355.239C791.123 353.169 790.116 352.232 788.406 352.23C786.804 352.228 785.669 353.037 785.541 354.855L785.535 360.093L784.005 360.091L784.015 351.001L785.095 351.002L785.364 352.173C786.085 351.219 787.256 350.771 788.732 350.772ZM799.424 360.324C796.598 360.321 795.124 358.807 795.127 356.305L795.128 354.793C795.131 352.291 796.609 350.781 799.417 350.784C802.045 350.787 803.627 352.211 803.625 354.497L803.625 354.533L802.077 354.531L802.077 354.495C802.078 353.019 801.143 352.244 799.433 352.242C797.507 352.24 796.66 353.157 796.658 354.939L796.657 356.163C796.655 357.963 797.482 358.864 799.408 358.866C801.118 358.868 802.073 358.095 802.074 356.619L802.074 356.583L803.622 356.585L803.622 356.621C803.62 358.907 802.034 360.327 799.424 360.324ZM812.895 351.033L814.425 351.035L814.414 360.809C814.412 362.861 813.006 364.498 810.144 364.494C807.408 364.491 806.275 363.14 806.115 361.52L807.645 361.522C807.824 362.512 808.597 363.035 810.127 363.036C811.819 363.038 812.882 362.193 812.884 360.627L812.886 359.259C812.201 359.997 811.21 360.356 809.968 360.354C807.664 360.352 806.208 359.072 806.211 355.94L806.217 351.026L807.747 351.028L807.741 355.888C807.739 357.94 808.566 358.895 810.24 358.896C811.698 358.898 812.707 358.125 812.889 356.469L812.895 351.033Z" fill="#94A8FD"/>
<line x1="212.306" y1="175.604" x2="331.306" y2="267.604" stroke="#94A8FD" stroke-opacity="0.25"/>
<line x1="315" y1="356.5" x2="179" y2="356.5" stroke="#94A8FD" stroke-opacity="0.25"/>
<line x1="426.5" y1="463" x2="426.5" y2="540" stroke="#94A8FD" stroke-opacity="0.25"/>
<line x1="523.303" y1="414.603" x2="650.304" y2="511.603" stroke="#94A8FD" stroke-opacity="0.25"/>
<line x1="542.969" y1="352.5" x2="675.029" y2="352.5" stroke="#94A8FD" stroke-opacity="0.25"/>
<line x1="423.5" y1="237.013" x2="423.5" y2="158.987" stroke="#94A8FD" stroke-opacity="0.25"/>
<line x1="531.674" y1="284.621" x2="646.674" y2="185.621" stroke="#94A8FD" stroke-opacity="0.25"/>
</svg>
