<svg width="500" height="500" viewBox="0 0 500 500" fill="none" xmlns="http://www.w3.org/2000/svg">
<circle cx="250" cy="250" r="245" stroke="#94A8FD" stroke-width="10"/>
<path d="M152.89 289.876C125.31 289.845 110.625 276.528 110.645 258.328L110.649 254.828L122.969 254.842L122.965 258.622C122.952 269.822 134.283 278.095 153.183 278.116C170.263 278.135 181.331 271.148 181.343 259.948C181.373 233.208 112.892 252.171 112.933 215.071C112.95 200.511 123.884 187.503 151.324 187.534C178.904 187.565 191.35 200.459 191.33 217.819L191.326 221.739L179.006 221.725L179.011 217.665C179.022 207.165 169.231 199.314 151.171 199.294C134.511 199.275 125.404 205.845 125.393 215.085C125.367 238.465 193.426 222.021 193.803 259.822C193.925 276.342 180.47 289.907 152.89 289.876ZM283.49 201.122L225.81 201.057L225.773 233.677L277.153 233.735L277.14 245.495L225.76 245.437L225.726 276.377L283.406 276.442L283.392 288.202L213.392 288.124L213.503 189.424L283.503 189.502L283.49 201.122ZM344.075 289.95C315.095 289.918 301.249 277.162 301.273 256.022L301.312 221.582C301.335 200.442 315.21 187.718 344.05 187.75C373.03 187.782 386.735 200.538 386.712 221.678L386.707 225.598L373.687 225.583L373.69 223.203C373.707 207.803 365.176 199.534 344.176 199.51C322.476 199.486 313.647 207.736 313.63 223.136L313.595 254.496C313.577 269.896 322.388 278.166 343.948 278.19C365.088 278.214 373.637 269.963 373.655 254.563L373.657 252.183L386.677 252.198L386.673 256.118C386.649 277.258 372.915 289.982 344.075 289.95Z" fill="#94A8FD"/>
</svg>
