<svg width="35" height="35" viewBox="0 0 35 35" fill="none" xmlns="http://www.w3.org/2000/svg">
<path d="M17.499 0C27.164 0 34.999 7.83502 34.999 17.5C34.999 27.165 27.164 35 17.499 35C7.83404 35 -0.000976562 27.165 -0.000976562 17.5C-0.000976562 7.83502 7.83404 0 17.499 0ZM25.2717 10.5C24.605 10.5118 23.5821 10.863 18.6595 12.8844C16.9355 13.5923 13.4897 15.0577 8.32236 17.2803C7.48326 17.6098 7.0437 17.9321 7.00369 18.2472C6.92686 18.8522 7.80912 19.0405 8.91919 19.3968C9.82423 19.6872 11.0417 20.027 11.6746 20.0405C12.2487 20.0528 12.8894 19.8191 13.5968 19.3395C18.4249 16.122 20.9171 14.4956 21.0736 14.4606C21.184 14.4359 21.3369 14.4047 21.4406 14.4957C21.5442 14.5866 21.534 14.7589 21.5231 14.8051C21.4353 15.1746 16.8999 19.2473 16.6389 19.5149L16.5137 19.6408C15.552 20.5907 14.58 21.2109 16.2571 22.302C17.7714 23.2872 18.6528 23.9157 20.2129 24.9254C21.2099 25.5706 21.9915 26.3357 23.0209 26.2422C23.4945 26.1992 23.9838 25.7595 24.2322 24.448C24.8195 21.3488 25.9737 14.6337 26.2405 11.8665C26.2638 11.6241 26.2344 11.3138 26.2108 11.1776C26.1872 11.0414 26.1379 10.8474 25.9586 10.7037C25.7462 10.5336 25.4183 10.4977 25.2717 10.5Z" fill="#94ABFD"/>
</svg>
