<svg width="30" height="31" viewBox="0 0 30 31" fill="none" xmlns="http://www.w3.org/2000/svg">
<path id="usd-coin-usdc-logo 2 (Traced)" fill-rule="evenodd" clip-rule="evenodd" d="M13.6778 0.0217418C13.5952 0.0356846 13.2842 0.0762511 12.9867 0.11189C9.84799 0.487806 6.68675 2.05031 4.36255 4.3745C2.09431 6.64274 0.636384 9.53516 0.115389 12.8005C-0.0384631 13.765 -0.0384631 16.2589 0.115389 17.2234C0.636384 20.4887 2.09431 23.3812 4.36255 25.6494C6.64372 27.9306 9.50465 29.3726 12.7886 29.8966C13.753 30.0504 16.247 30.0504 17.2114 29.8966C19.9197 29.4644 22.4098 28.3687 24.4956 26.6913C27.3439 24.4005 29.283 20.9937 29.8846 17.2234C30.0385 16.2589 30.0385 13.765 29.8846 12.8005C29.3636 9.53516 27.9057 6.64274 25.6374 4.3745C23.3793 2.11636 20.494 0.656984 17.2537 0.134066C16.6839 0.0421152 14.048 -0.0407006 13.6778 0.0217418ZM12.0278 4.52204C12.1665 4.66069 12.1754 4.70895 12.1754 5.32874C12.1754 5.94151 12.165 6.00035 12.0273 6.16382C11.946 6.26057 11.7499 6.38774 11.5916 6.4464C10.9997 6.66594 10.0024 7.22696 9.39977 7.6795C5.95114 10.2688 4.70151 14.9196 6.39743 18.8534C7.36129 21.0891 9.06869 22.7973 11.3155 23.7738C12.1127 24.1203 12.1754 24.2084 12.1754 24.9834C12.1754 25.5954 12.084 25.8652 11.8573 25.9221C11.5345 26.0031 9.81193 25.2394 8.7542 24.5463C5.3921 22.3435 3.41414 18.3055 3.75003 14.3307C3.92396 12.2733 4.5122 10.5677 5.62294 8.90034C6.94222 6.91998 8.7566 5.48897 11.0635 4.60924C11.3941 4.48322 11.7131 4.37883 11.7724 4.37732C11.8318 4.37576 11.9467 4.44091 12.0278 4.52204ZM19.1253 4.69669C21.8345 5.79054 23.894 7.71586 25.1544 10.333C26.03 12.1514 26.4133 14.1577 26.2536 16.0877C25.8833 20.5645 23.0378 24.302 18.842 25.8232C18.2111 26.0519 18.1087 26.0545 17.9443 25.8455C17.8261 25.6952 17.8167 25.6228 17.8349 25.0053C17.8534 24.3752 17.8648 24.3201 18.0049 24.1879C18.0876 24.11 18.3715 23.9583 18.636 23.8509C19.7359 23.4042 20.7866 22.6787 21.7061 21.7311C22.6133 20.7963 23.1857 19.9204 23.6564 18.7473C24.6442 16.2847 24.5809 13.6355 23.4775 11.2586C22.4826 9.11544 20.5732 7.34066 18.3232 6.46761C17.9264 6.3137 17.8251 6.09218 17.8249 5.37815C17.8246 4.6405 17.9294 4.39169 18.2453 4.38093C18.2949 4.37919 18.6909 4.52132 19.1253 4.69669ZM15.6309 7.706C15.8852 7.81232 15.8983 7.86442 15.9169 8.84667L15.9315 9.62273L16.3222 9.7023C17.2376 9.88866 18.0361 10.5094 18.4547 11.3602C18.7297 11.919 18.7977 12.3692 18.6345 12.5496C18.5393 12.6546 18.4476 12.6681 17.8246 12.6681C17.017 12.6681 17.0243 12.672 16.746 12.0835C16.5483 11.6655 16.183 11.3284 15.7878 11.1995C15.1444 10.9895 14.18 11.0281 13.684 11.2839C13.4156 11.4223 13.105 11.7414 13.0204 11.9659C12.9854 12.0589 12.9566 12.3237 12.9566 12.5542C12.9566 13.57 13.4269 13.8721 15.5108 14.195C17.1061 14.4422 17.8688 14.7491 18.4514 15.3783C19.4367 16.4426 19.327 18.472 18.2235 19.5932C17.7091 20.1159 17.174 20.3935 16.0968 20.6964C16.042 20.7118 16.0217 20.9139 16.0217 21.4426C16.0217 22.2204 15.948 22.5231 15.7302 22.6397C15.6635 22.6754 15.3569 22.7044 15.049 22.7043C14.5969 22.7041 14.4515 22.6812 14.2938 22.585L14.0985 22.4659V21.5948V20.7236L13.9333 20.6862C12.6985 20.4062 12.0349 20.0577 11.4824 19.3991C11.0908 18.9324 10.6679 17.8361 10.7632 17.5354C10.8492 17.2647 10.9429 17.2356 11.7275 17.2356C12.5782 17.2356 12.5724 17.2323 12.7471 17.8204C12.9016 18.3407 13.1743 18.6804 13.6177 18.9046C14.6296 19.4164 16.0062 19.2783 16.6719 18.5982C16.9989 18.2642 17.1194 17.9589 17.117 17.4699C17.112 16.4556 16.5838 16.1214 14.4141 15.7597C12.0898 15.3722 11.1706 14.6619 10.9712 13.0991C10.8652 12.2681 11.0887 11.436 11.5836 10.8193C12.0295 10.2636 12.9579 9.74094 13.6929 9.6318L13.9783 9.58943V8.87312C13.9783 8.08198 14.0587 7.77608 14.2912 7.68281C14.5128 7.5938 15.3991 7.60919 15.6309 7.706Z" fill="#94A8FD"/>
</svg>
