<svg width="30" height="27" viewBox="0 0 30 27" fill="none" xmlns="http://www.w3.org/2000/svg">
<path id="tether-usdt-logo 3 (Traced)" fill-rule="evenodd" clip-rule="evenodd" d="M5.56917 0.0825752C5.46003 0.169694 -0.000419969 11.6307 2.42267e-08 11.7718C0.00024002 11.8555 14.7044 26.0056 14.9153 26.1252C14.962 26.1516 15.038 26.1516 15.0845 26.1252C15.298 26.0038 29.9998 11.8571 30 11.7728C30.0002 11.6308 24.5404 0.169994 24.431 0.0825752C24.2931 -0.027403 5.70699 -0.027403 5.56917 0.0825752ZM22.1399 5.34749V7.08746H19.53H16.92V8.22108V9.35471L17.475 9.39413C19.3976 9.53086 20.8585 9.74278 22.0737 10.0613C23.3353 10.3918 24.1046 10.7926 24.279 11.2099C24.3567 11.3958 24.3545 11.4389 24.2577 11.637C23.8613 12.4477 21.3713 13.1355 17.8905 13.3958L16.92 13.4684V17.1178V20.7672H15.0305H13.141L13.1256 17.1223L13.1101 13.4774L12.1801 13.4048C9.50715 13.1961 7.28598 12.7342 6.33236 12.1886C4.83898 11.3342 5.92911 10.3987 9.12387 9.79306C9.8153 9.66202 11.5508 9.45881 12.5251 9.39485L13.1401 9.35447V8.22097V7.08746H10.5001H7.86017V5.34749V3.60752H15.0001H22.1399V5.34749ZM12.2701 9.67432C9.12645 9.88786 6.73441 10.5045 6.57421 11.1427C6.44684 11.6502 7.55646 12.1507 9.54015 12.4807C11.0554 12.7327 11.9633 12.7987 14.3507 12.8306C16.7983 12.8632 17.9664 12.8132 19.59 12.6061C24.7426 11.9489 24.6954 10.5015 19.5 9.85198C18.9555 9.78388 18.1523 9.7075 17.715 9.68218L16.92 9.63616V10.9032V12.1703L16.5512 12.2089C16.0775 12.2584 14.0721 12.2581 13.5462 12.2084L13.1424 12.1702L13.1262 10.9088C13.1163 10.128 13.0872 9.64318 13.0501 9.63634C13.0171 9.63034 12.6661 9.64738 12.2701 9.67432Z" fill="#94A8FD"/>
</svg>
